<svg width="369" height="393" fill="none" xmlns="http://www.w3.org/2000/svg">
    <path opacity=".7" d="M24.265 127.176S.668 187.801 33.829 248.847c33.16 61.046 101.462 93.295 156.128 120.871 54.667 27.575 111.433 14.145 138.406-31.02 26.974-45.166-10.021-77.406-10.071-141.812-.051-64.405 9.69-81.456-25.391-135.867C257.819 6.61 171.82-5.44 106.785 34.917c-65.034 40.357-82.52 92.259-82.52 92.259z" fill="#fff"/>
    <path d="M103.12 371.764c-98.322-37.756-72.33-90.71-90.408-160.74-18.078-70.031-16.081-96.832 27.93-145.753 44.01-48.92 120.014-67.066 174.232-9.203s104.416 52.356 135.419 95.341c31.002 42.985 25.272 93.91-30.774 129.83-56.046 35.92-95.157 137.088-216.399 90.525z" fill="#3087DF"/>
    <path opacity=".7" d="M103.12 371.764c-98.322-37.756-72.33-90.71-90.408-160.74-18.078-70.031-16.081-96.832 27.93-145.753 44.01-48.92 120.014-67.066 174.232-9.203s104.416 52.356 135.419 95.341c31.002 42.985 25.272 93.91-30.774 129.83-56.046 35.92-95.157 137.088-216.399 90.525z" fill="#fff"/>
    <path clip-rule="evenodd" d="m75.633 189.182 3.791 5.747 6.9.134-4.313 5.377 2.005 6.588-6.462-2.429-5.66 3.933.32-6.873-5.502-4.159 6.655-1.824 2.266-6.494v0zM311.741 255.062l-1.34 3.504 2.14 3.091-3.757-.184-2.283 2.982-.986-3.621-3.555-1.252 3.151-2.05.093-3.756 2.931 2.353 3.606-1.067v0zM265.879 82.736c.095-.399.143-.808.143-1.218 0-2.993-2.432-5.42-5.433-5.42-.478.002-.954.064-1.416.186a5.22 5.22 0 0 0-5.707-2.516 5.207 5.207 0 0 0-4.04 4.742 4.741 4.741 0 0 0-.783-.076 4.208 4.208 0 0 0-4.212 3.773 2.371 2.371 0 0 0-2.211 2.389 2.372 2.372 0 0 0 2.261 2.341h19.915a2.376 2.376 0 0 0 2.231-1.574 2.365 2.365 0 0 0-.731-2.627h-.017zM69.265 43.978c.058-.248.086-.502.084-.757a3.357 3.357 0 0 0-1.317-2.706 3.377 3.377 0 0 0-2.962-.57 3.264 3.264 0 0 0-6.1 1.395 3.104 3.104 0 0 0-.488-.05 2.66 2.66 0 0 0-2.645 2.36 1.48 1.48 0 0 0-1.483 1.479 1.48 1.48 0 0 0 1.483 1.479H68.33a1.476 1.476 0 0 0 .935-2.63v0zM250.918 159.371a5.356 5.356 0 0 0-5.476 3.823 5.385 5.385 0 0 0-6.655-.714c-3.227 1.974-3.294 6.721.69 10.04 2.881 2.378 6.807 3.504 8.787 3.941l.623.126.48-.412c1.525-1.336 4.423-4.201 5.788-7.671 1.912-4.814-.463-8.948-4.237-9.133zM79.736 281.133a2.67 2.67 0 0 0-2.738 1.908 2.71 2.71 0 0 0-3.37-.362c-1.617.992-1.684 3.361.346 5.041a10.917 10.917 0 0 0 4.389 1.967l.312.067.244-.202a10.996 10.996 0 0 0 2.89-3.84c1.002-2.428-.186-4.495-2.073-4.579z" stroke="#263238" stroke-width=".929" stroke-linecap="round" stroke-linejoin="round"/>
    <path d="M14.44 220.395c-1.483-.126-2.966-.26-4.44-.403M46.157 178.25c-7.203 2.059-18.946 5.647-17.952 15.292.539 5.218 5.054 9.116 8.567 12.603 3.244 3.235 7.886 8.453 2.898 12.486-2.611 2.109-6.925 2.025-10.109 2.218-3.93.206-7.87.153-11.794-.16M54.606 176.587c-1.625.21-3.243.504-4.843.84M168.806 35.567c.236 1.907.48 3.806.716 5.713M165.782 11.613l2.603 20.66M184.02 15.932c-1.943 8.839-3.889 17.677-5.838 26.517M185.764 8c-.32 1.454-.64 2.899-.952 4.352M191.265 34.147l-4.296 8.494M197.937 20.973l-4.953 9.788" stroke="#263238" stroke-width=".929" stroke-linecap="round" stroke-linejoin="round"/>
    <path clip-rule="evenodd" d="M113.172 137.307c-.45.003-.9.054-1.339.151a6.073 6.073 0 0 1 .993 5.818 6.093 6.093 0 0 1-4.422 3.92 6.107 6.107 0 0 0 7.411 1.671 6.078 6.078 0 0 0 3.293-6.829 6.096 6.096 0 0 0-5.936-4.731v0zM193.464 315.237l14.776 10.536-12.721 6.52-2.055-17.056v0z" stroke="#263238" stroke-width=".929" stroke-linecap="round" stroke-linejoin="round"/>
    <path d="M351.722 232.586c2.528 2.093 7.254 6.495 4.381 10.016-2.039 2.52-6.276 3.058-9.267 3.554-5.577.924-12.476.882-17.261 4.251-3.1 2.176-2.662 5.26-.413 7.99M344.427 227.755a81.787 81.787 0 0 1 3.867 2.336M233.471 363.784c.733 1 1.457 2 2.19 2.991M226.849 354.702l4.322 5.923M217.515 360.743V381M201.989 373.892c-.707 2.369-1.423 4.739-2.131 7.108M204.129 366.775l-1.162 3.857" stroke="#263238" stroke-width=".929" stroke-linecap="round" stroke-linejoin="round"/>
    <path clip-rule="evenodd" d="m98.21 235.334 3.033 12.536 13.176-10.486-16.208-2.05v0z" stroke="#263238" stroke-width=".929" stroke-linecap="round" stroke-linejoin="round"/>
    <path opacity=".3" d="M289.396 80.975s9.063-30.062 7.959-41.378c0 0 40.067 7.874 54.493 18.05 0 0-14.182 33.99-14.106 46.278 0 0-41.753-14.624-48.346-22.95zM276.386 151.183s20.834 16.4 27.225 28.026l6.425 11.618s32.993-23.034 41.964-40.984c0 0-44.266-17.716-49.224-24.802-4.957-7.086-26.39 26.142-26.39 26.142zM251.42 373.45s18.676-30.154 19.392-43.195c0 0 40.767 8.87 50.328 14.382 0 0-20.682 33.789-22.461 48.363a41.624 41.624 0 0 0-20.43-9.867c-12.799-2.287-26.829-9.683-26.829-9.683zM156.227 305.646s15.894 42.207 27.369 51.412c0 0-36.256 28.579-61.55 24.643 0 0-1.687-29.987-6.746-44.595l40.927-31.46zM25.226 337.492s16.922-30.372 16.99-51.572c0 0 24.73 4.85 44.307 14.985 0 0-10.117 30.514-7.268 47.744 0-.025-36.635-.62-54.03-11.157zM13 127.621s34.418-13.083 60.21-12.472c0 0 .329 28.194-4.064 44.452 0 0-31.728 13.904-51.197 13.092 0 0 5.565-23.922-4.949-45.072z" fill="#000" fill-opacity=".7"/>
    <path d="M185.662 347.501c-18.491 11.073-35.666 29.802-58.49 28.789a.6.6 0 0 1-.582-.436 119.674 119.674 0 0 0-6.694-24.676 138.835 138.835 0 0 0-9.688-19.985.314.314 0 0 1-.02-.293.32.32 0 0 1 .23-.184c13.348-3.644 23.238-13.327 34.57-20.413a59.606 59.606 0 0 1 11.231-5.629.457.457 0 0 1 .565.268c6.998 15.915 16.197 30.213 28.979 41.981.211.168.16.427-.101.578z" fill="#fff"/>
    <path fill-rule="evenodd" clip-rule="evenodd" d="M171.089 357.422c4.852-3.505 9.666-6.982 14.573-9.921.261-.151.312-.41.135-.578-12.783-11.768-21.981-26.066-28.98-41.981a.456.456 0 0 0-.564-.268c-7.821 2.838-14.512 7.655-21.202 12.473-7.65 5.509-15.3 11.017-24.641 13.569a.32.32 0 0 0-.211.477c8.078 13.812 13.862 28.579 16.391 44.661a.6.6 0 0 0 .582.436c16.767.744 30.486-9.166 43.917-18.868zm-.784-.556c-13.075 9.436-26.434 19.078-42.754 18.611a131.878 131.878 0 0 0-16.306-44.167c9.213-2.536 16.78-7.985 24.347-13.434 6.526-4.699 13.053-9.399 20.635-12.23 6.956 15.605 15.978 29.735 28.33 41.52-4.798 2.878-9.506 6.275-14.252 9.7z" fill="#263238"/>
    <path d="M162.913 318.135c-16.095 6.432-27.992 21.978-46.028 24.893a144.984 144.984 0 0 0-6.264-11.952c17.512-4.733 29.08-19.91 45.817-25.966a158.942 158.942 0 0 0 6.475 13.025z" fill="#3087DF"/>
    <path fill-rule="evenodd" clip-rule="evenodd" d="M144.538 329.688c6.083-4.333 12.147-8.651 18.966-11.319a157.342 157.342 0 0 1-6.864-13.812c-7.98 2.82-14.778 7.715-21.58 12.612-7.765 5.59-15.534 11.184-25.072 13.697a141.182 141.182 0 0 1 6.636 12.631c10.778-1.605 19.366-7.721 27.914-13.809zm-27.4 12.887-.008.001h.008v-.001zm26.828-13.599c-8.256 5.883-16.544 11.789-26.828 13.599a156.785 156.785 0 0 0-5.902-11.265c9.213-2.536 16.78-7.985 24.348-13.434 6.526-4.699 13.052-9.399 20.635-12.23a151.735 151.735 0 0 0 6.096 12.263c-6.577 2.679-12.455 6.867-18.349 11.067z" fill="#263238"/>
    <path fill-rule="evenodd" clip-rule="evenodd" d="m132.433 333.22.843-.528c-1.326-1.876-2.65-3.744-3.971-5.603l-1.231.779a296.344 296.344 0 0 1 2.235 6.617l.784-.461-.405-1.198 1.037-.628.708 1.022zm-1.517-1.618c-.188.11-.37.217-.548.328a259.29 259.29 0 0 1-1.139-3.35c.473.672.942 1.349 1.41 2.024l.572.824-.295.174z" fill="#263238"/>
    <path d="M131.287 325.757c.82 1.58 1.63 3.166 2.428 4.757.228.444.472.486.733.319.262-.168.355-.453.127-.888-.81-1.592-1.622-3.18-2.437-4.766l.835-.511c.843 1.566 1.61 3.141 2.411 4.707a1.665 1.665 0 0 1-.447 2.387c-.843.537-1.526.243-2.032-.745a414.103 414.103 0 0 0-2.394-4.682l.776-.578zM136.143 326.134l1.138-.838 1.012 1.969c.268.376.375.843.295 1.297a1.734 1.734 0 0 1-.716 1.123c-.843.562-1.518.277-2.024-.712l-1.644-3.216a1.706 1.706 0 0 1 .413-2.412c.843-.57 1.509-.302 2.024.695l.303.595-.767.552-.346-.661c-.227-.444-.472-.494-.733-.31-.262.184-.338.461-.11.904l1.686 3.351c.228.444.473.494.734.31s.346-.461.118-.905l-.582-1.139-.379.26c-.118-.268-.27-.562-.422-.863zM137.189 321.644l2.462 4.791c.227.444.472.486.733.302.262-.184.338-.461.11-.905l-2.462-4.791.776-.553a532.117 532.117 0 0 0 2.428 4.733 1.743 1.743 0 0 1-.413 2.429c-.801.578-1.51.301-2.024-.695l-2.453-4.724.843-.587zM140.41 319.232c.792-.569 1.492-.285 1.998.712l.101.193-.776.544-.126-.259c-.228-.444-.464-.503-.725-.319-.262.185-.321.461-.093.905s.565.67 1.391.838a2.394 2.394 0 0 1 1.897 1.306 1.724 1.724 0 0 1-.413 2.421c-.843.578-1.509.31-2.023-.687a5.326 5.326 0 0 1-.194-.385l.767-.553.228.444c.227.444.48.486.733.301.253-.184.346-.46.118-.904-.227-.444-.573-.67-1.399-.838a2.377 2.377 0 0 1-1.889-1.307 1.71 1.71 0 0 1-.302-1.289c.076-.453.33-.857.707-1.123zM141.885 318.277c.843-.595 1.686-1.181 2.53-1.759l.446.896-.843.587c.9 1.775 1.81 3.548 2.732 5.318l-.843.57a951.498 951.498 0 0 1-2.732-5.319l-.843.595-.447-.888z" fill="#263238"/>
    <path d="M178.217 346.881c-14.764 9.373-28.845 23.311-46.973 25.028a150.22 150.22 0 0 0-8.617-25.966c14.823-3.551 25.675-15.655 38.845-22.314a145.916 145.916 0 0 0 16.745 23.252z" fill="#BFBFBF"/>
    <path fill-rule="evenodd" clip-rule="evenodd" d="M167.552 354.808c3.803-2.742 7.574-5.46 11.39-7.868a142.15 142.15 0 0 1-17.361-23.947c-5.176 2.582-9.986 6.013-14.812 9.456-7.695 5.489-15.43 11.007-24.757 13.159a147.169 147.169 0 0 1 8.828 26.762c13.898-1.115 25.45-9.443 36.712-17.562zm-.768-.563c-10.787 7.778-21.848 15.755-35.143 17.195a153.387 153.387 0 0 0-8.432-25.212c8.997-2.233 16.538-7.609 24.041-12.956 4.598-3.278 9.182-6.546 14.078-9.073a149.44 149.44 0 0 0 16.172 22.615c-3.59 2.291-7.138 4.85-10.716 7.431z" fill="#263238"/>
    <path d="M130.814 348.959c12.311-4.641 22.108-14.625 33.533-20.614a143.004 143.004 0 0 0 13.87 18.553c-12.842 8.075-24.679 19.466-39.629 23.637a209.015 209.015 0 0 0-7.774-21.576z" fill="#fff"/>
    <path fill-rule="evenodd" clip-rule="evenodd" d="M167.226 355.026c3.885-2.812 7.75-5.608 11.716-8.086a138.635 138.635 0 0 1-14.46-19.19c-4.946 2.544-9.579 5.849-14.233 9.169-6.35 4.531-12.738 9.089-20.008 11.772a204.435 204.435 0 0 1 7.968 22.38c10.802-2.865 19.965-9.495 29.017-16.045zm-.636-.674c-8.664 6.26-17.459 12.615-27.715 15.605a213.995 213.995 0 0 0-7.529-20.764c7.025-2.709 13.237-7.141 19.411-11.545 4.399-3.139 8.78-6.264 13.421-8.742a146.479 146.479 0 0 0 13.288 17.908c-3.667 2.329-7.26 4.925-10.876 7.538z" fill="#263238"/>
    <path d="m139.035 370.385-.953.259a206.504 206.504 0 0 0-9.839-26.552l.776-.31a216.015 216.015 0 0 1 10.016 26.603zM147.307 367.168l-.903.427a370.208 370.208 0 0 0-11.483-26.745l.725-.418a406.957 406.957 0 0 1 11.661 26.736zM155.19 362.788l-.843.536a1703.296 1703.296 0 0 0-13.044-26.452l.7-.477a2809.01 2809.01 0 0 1 13.187 26.393zM162.661 357.745l-.844.587a659.358 659.358 0 0 1-14.384-25.799l.691-.494c4.646 8.678 9.461 17.255 14.537 25.706zM169.945 352.502l-.843.586a269.599 269.599 0 0 1-15.514-24.835c.228-.159.464-.31.7-.461a251.755 251.755 0 0 0 15.657 24.71z" fill="#263238"/>
    <path d="M164.583 328.706c-13.246 7.002-24.502 19.357-39.789 22.464l-.303-.787c15.177-3.175 26.391-15.479 39.628-22.431.152.251.312.502.464.754zM167.829 333.597c-13.49 7.455-25.236 20.102-41.087 22.808l-.278-.796c15.75-2.764 27.445-15.37 40.859-22.741l.506.729zM171.252 338.354c-13.777 8.008-26.222 21.041-42.756 23.37l-.253-.838c16.425-2.387 28.76-15.353 42.478-23.277l.531.745zM174.886 342.978c-14.241 8.686-27.495 22.172-44.83 24.157l-.228-.838c17.209-2.035 30.354-15.454 44.502-24.031l.556.712z" fill="#263238"/>
    <path d="M351.823 45.025a117.596 117.596 0 0 0-8.288 46.688.422.422 0 0 1-.439.41 164.072 164.072 0 0 1-38.92-5.494 162.736 162.736 0 0 1-15.59-5.026.393.393 0 0 1-.211-.553 130.063 130.063 0 0 0 7.091-17.212 124.555 124.555 0 0 0 6.004-31.419.406.406 0 0 1 .43-.402 150.512 150.512 0 0 1 49.695 12.438c.221.096.322.35.228.57z" fill="#fff"/>
    <path fill-rule="evenodd" clip-rule="evenodd" d="M288.586 81.62a163.43 163.43 0 0 0 54.51 10.503.423.423 0 0 0 .439-.41 117.596 117.596 0 0 1 8.288-46.688.435.435 0 0 0-.228-.553A150.512 150.512 0 0 0 301.9 32.033a.406.406 0 0 0-.43.403 125.24 125.24 0 0 1-13.095 48.631.394.394 0 0 0 .211.553zm54.055 9.649a166.36 166.36 0 0 1-53.245-10.294 130.422 130.422 0 0 0 12.858-48.037 154.107 154.107 0 0 1 48.667 12.145 122.914 122.914 0 0 0-8.28 46.186z" fill="#263238"/>
    <path d="M347.211 57.648a315.392 315.392 0 0 0-47.023-11.015 129.386 129.386 0 0 0 1.686-14.164 152.449 152.449 0 0 1 49.57 12.388 121.965 121.965 0 0 0-4.233 12.79z" fill="#3087DF"/>
    <path fill-rule="evenodd" clip-rule="evenodd" d="M299.733 46.993a328.498 328.498 0 0 1 47.739 11.165 119.844 119.844 0 0 1 4.503-13.519A150.545 150.545 0 0 0 301.495 32a126.723 126.723 0 0 1-1.762 14.993zm47.217 10.16a302.614 302.614 0 0 0-46.315-10.889 129.983 129.983 0 0 0 1.619-13.31A154.1 154.1 0 0 1 350.921 45.1a124.927 124.927 0 0 0-3.971 12.053z" fill="#263238"/>
    <path d="m318.4 44.33 1.568-4.758 1.299.268c-.455 2.295-.925 4.59-1.408 6.885l-.843-.184c.337-1.675.674-3.292.995-4.933a658.72 658.72 0 0 1-1.602 4.807l-.844-.175c.11-1.676.211-3.351.287-5.026a346.147 346.147 0 0 1-.944 4.866l-.793-.159c.444-2.278.863-4.57 1.257-6.877l1.298.26c-.079 1.675-.169 3.35-.27 5.026z" fill="#263238"/>
    <path fill-rule="evenodd" clip-rule="evenodd" d="m322.54 47.32.911.209c.196-2.356.376-4.724.539-7.103l-1.357-.31-2.353 6.701.844.184c.084-.221.165-.463.247-.707.058-.17.115-.342.174-.507l1.113.251-.052.57c-.021.238-.042.472-.066.712zm.143-2.22-.843-.193 1.147-3.375-.304 3.568zM325.862 47.236c-.083.271-.12.554-.11.838l.92.2a2.603 2.603 0 0 1 .092-.837c.047-.19.091-.38.135-.574.036-.157.072-.315.11-.473.16-.712.126-1.256-.278-1.591.455-.118.75-.52.91-1.223l.127-.528c.236-1.08-.051-1.675-1.004-1.918l-1.391-.335c-.218 1-.438 2-.658 3.003-.282 1.282-.564 2.565-.843 3.849l.894.209.312-1.395c.103-.465.207-.93.312-1.394l.312.084c.396.1.54.376.396 1.013l-.236 1.072zm-.038-4.209c.078-.35.156-.7.232-1.051l.447.092c.303.1.413.352.303.838l-.151.67c-.127.586-.371.67-.709.586l-.354-.084c.076-.352.154-.701.232-1.05z" fill="#263238"/>
    <path d="M330.356 46.583c-.067.301-.143.603-.211.896-.261 1.08-.843 1.583-1.745 1.357-.902-.226-1.197-.963-.944-2.052.253-1.09.548-2.354.843-3.535.295-1.181.843-1.591 1.762-1.349.919.243 1.214.997.953 2.07-.059.226-.11.443-.16.661l-.844-.234.178-.73c.118-.477 0-.711-.312-.787-.312-.075-.523.05-.633.537a142.548 142.548 0 0 0-.843 3.668c-.11.486 0 .704.312.78.312.075.506-.06.624-.537l.228-.971.792.226zM331.199 49.464l-.927-.234 1.686-6.701.911.26c-.245.954-.481 1.918-.725 2.872l1.028.294c.245-.955.489-1.91.742-2.865l.928.276a331.614 331.614 0 0 0-1.687 6.66l-.91-.252c.236-.955.472-1.91.716-2.864l-1.062-.327c-.236.963-.472 1.926-.7 2.881z" fill="#263238"/>
    <path d="M338.923 87.626a182.479 182.479 0 0 1-44.494-8.754 157.284 157.284 0 0 0 8.55-27.373 517.804 517.804 0 0 1 39.687 9.088 151.455 151.455 0 0 0-3.743 27.038z" fill="#BFBFBF"/>
    <path fill-rule="evenodd" clip-rule="evenodd" d="M293.847 79.149a180.178 180.178 0 0 0 45.489 8.929 146.934 146.934 0 0 1 3.794-27.8 489.974 489.974 0 0 0-40.429-9.28 154.387 154.387 0 0 1-8.854 28.151zm44.671 8.016a184.997 184.997 0 0 1-43.515-8.577 160.886 160.886 0 0 0 8.254-26.586 567.218 567.218 0 0 1 38.946 8.896 155.049 155.049 0 0 0-3.685 26.267z" fill="#263238"/>
    <path d="M307.313 58.075a4279.416 4279.416 0 0 1 34.249 7.647 152.331 152.331 0 0 0-2.639 21.904 182.941 182.941 0 0 1-38.406-6.86 230.363 230.363 0 0 0 6.796-22.691z" fill="#fff"/>
    <path fill-rule="evenodd" clip-rule="evenodd" d="M299.918 81.075a180.68 180.68 0 0 0 39.418 7.003 149.09 149.09 0 0 1 2.647-22.683 2653.916 2653.916 0 0 0-34.974-7.84 220.035 220.035 0 0 1-7.091 23.52zm38.6 6.073a184.712 184.712 0 0 1-37.445-6.701 234.313 234.313 0 0 0 6.501-21.862 8251.782 8251.782 0 0 1 33.541 7.447 155.395 155.395 0 0 0-2.597 21.116z" fill="#263238"/>
    <path d="m300.921 80.924-.843-.234a221.122 221.122 0 0 0 8.086-28.144l.751.151a234.788 234.788 0 0 1-7.994 28.227zM308.198 82.826l-.843-.2a438.168 438.168 0 0 0 7.436-28.756l.742.16a433.688 433.688 0 0 1-7.335 28.796zM315.542 84.468l-.843-.176c2.31-9.66 4.544-19.318 6.703-28.973l.733.167c-2.141 9.65-4.339 19.31-6.593 28.982zM322.962 85.8l-.844-.135a702.272 702.272 0 0 1 5.903-28.813l.733.176a609.152 609.152 0 0 0-5.792 28.771zM330.449 86.83l-.843-.1a286.803 286.803 0 0 1 4.974-28.262l.742.193a264.481 264.481 0 0 0-4.873 28.169z" fill="#263238"/>
    <path d="M341.486 66.132a9598.924 9598.924 0 0 0-39.882-8.845c.076-.285.144-.57.22-.837a2617.105 2617.105 0 0 1 39.805 8.878c-.034.26-.093.52-.143.804zM340.533 71.627a630.722 630.722 0 0 1-40.472-8.694l.253-.838a743.738 743.738 0 0 0 40.346 8.703c-.043.268-.085.553-.127.83zM339.783 77.155a315.156 315.156 0 0 1-41.475-8.627l.278-.838a338.592 338.592 0 0 0 41.315 8.636l-.118.83zM339.235 82.734a220.743 220.743 0 0 1-42.909-8.653l.312-.837a230.495 230.495 0 0 0 42.672 8.644l-.075.846z" fill="#263238"/>
    <path d="M319.311 336.755c-6.821 16.057-11.4 33.077-13.676 53.255 0 .293-.228.377-.43.193-15.725-13.821-39.629-5.864-53.532-24.207a.632.632 0 0 1-.11-.712 99.816 99.816 0 0 0 9.899-15.446 136.343 136.343 0 0 0 9.443-23.495.33.33 0 0 1 .464-.217c9.468 4.406 20.961 2.73 31.424 3.853 5.902.62 11.577 2.127 16.341 6.106a.626.626 0 0 1 .177.67z" fill="#fff"/>
    <path fill-rule="evenodd" clip-rule="evenodd" d="M280.462 380.361c8.785 1.791 17.581 3.584 24.701 9.841.202.184.396.101.438-.192 2.277-20.178 6.855-37.199 13.676-53.255a.627.627 0 0 0-.135-.671c-7.407-6.178-16.875-6.394-26.38-6.611-7.428-.169-14.879-.339-21.385-3.356a.328.328 0 0 0-.463.218c-4.427 14.549-10.886 28.16-19.393 38.948a.632.632 0 0 0 .11.712c7.608 10.039 18.212 12.201 28.831 14.366zm.253-.863c-10.385-2.089-20.755-4.175-28.317-13.637 8.313-10.997 14.637-24.491 19.089-38.823 6.423 2.892 13.747 3.084 21.049 3.274 9.32.243 18.604.485 25.932 6.342a190.865 190.865 0 0 0-13.558 52.191c-7.024-5.893-15.614-7.621-24.195-9.347z" fill="#263238"/>
    <path d="M313.729 350.357c-13.381-9.883-32.571-3.526-46.719-11.785a138.026 138.026 0 0 0 4.215-12.07c14.806 6.894 34.528-.963 47.706 9.993a192.332 192.332 0 0 0-5.202 13.862z" fill="#3087DF"/>
    <path fill-rule="evenodd" clip-rule="evenodd" d="M289.259 344.175c8.793.728 17.558 1.454 24.639 6.853a180.544 180.544 0 0 1 5.548-14.684c-7.447-6.435-17.052-6.652-26.694-6.87-7.564-.171-15.151-.342-21.737-3.516a135.552 135.552 0 0 1-4.477 12.765c6.778 4.131 14.761 4.792 22.721 5.452zm.206-.854c-7.655-.608-15.331-1.218-21.941-4.916h-.034a164.964 164.964 0 0 0 4.031-11.366c6.422 2.892 13.746 3.083 21.048 3.273 9.32.243 18.605.486 25.932 6.342a178.195 178.195 0 0 0-4.915 13.042c-6.998-5.014-15.547-5.693-24.121-6.375z" fill="#263238"/>
    <path d="M286.579 339.318h.321c.295 0 .582-.084.759-.57.59-1.614 1.174-3.227 1.753-4.841l.953.042a310.577 310.577 0 0 1-1.737 4.791c-.463 1.273-1.231 1.558-1.939 1.499a3.533 3.533 0 0 1-.447-.05l.337-.871zM291.925 334.041a336.982 336.982 0 0 1-1.804 4.95c-.161.461 0 .637.261.662.261.025.548-.134.717-.595l1.812-4.975.894.042a145.284 145.284 0 0 1-1.787 4.925 1.971 1.971 0 0 1-1.999 1.524c-.927-.058-1.188-.678-.843-1.675l1.771-4.866.978.008zM294.454 334.158l.953.042a842.164 842.164 0 0 0-2.032 5.57l1.543.126c-.118.31-.227.62-.337.93l-2.487-.193c.784-2.161 1.576-4.322 2.36-6.475zM296.116 338.723c.143-1.491.278-2.982.413-4.456l.986.067c-.126 1.005-.253 2.019-.388 3.032l1.805-2.931.893.083a496.836 496.836 0 0 0-2.79 4.281l-.785 2.169-.935-.084.801-2.161z" fill="#263238"/>
    <path d="M302.169 382.413c-13.878-8.376-32.217-4.833-45.024-15.915a155.055 155.055 0 0 0 11.711-22.615c12.496 5.746 28.162 2.42 40.295 8.82a214.886 214.886 0 0 0-6.982 29.71z" fill="#BFBFBF"/>
    <path fill-rule="evenodd" clip-rule="evenodd" d="M281.576 376.388c7.273 1.398 14.55 2.798 20.872 6.745a210.42 210.42 0 0 1 7.15-30.698c-6.38-3.475-13.759-4.184-21.149-4.894-6.861-.659-13.732-1.319-19.82-4.194a150.803 150.803 0 0 1-12.083 23.143c7.144 6.459 16.083 8.178 25.03 9.898zm.227-.874c-8.574-1.626-17.142-3.252-24.127-9.058h.034a158.65 158.65 0 0 0 11.306-22.054c5.952 2.673 12.609 3.333 19.253 3.992 7.099.704 14.183 1.406 20.376 4.56a216.823 216.823 0 0 0-6.821 28.747c-6.116-3.548-13.07-4.868-20.021-6.187z" fill="#263238"/>
    <path d="M272.279 350.634c11.408 3.568 24.621 2.027 35.228 7.589a215.95 215.95 0 0 0-5.338 24.19c-11.93-7.187-27.158-5.587-39.341-12.054a246.092 246.092 0 0 0 9.451-19.725z" fill="#fff"/>
    <path fill-rule="evenodd" clip-rule="evenodd" d="M281.575 376.381c7.275 1.4 14.551 2.799 20.873 6.752a213.07 213.07 0 0 1 5.497-25.17c-6.268-3.394-13.471-4.233-20.688-5.074-5.18-.603-10.367-1.207-15.222-2.758a238.555 238.555 0 0 1-9.831 20.379c5.957 3.291 12.664 4.581 19.371 5.871zm.23-.868c-6.354-1.206-12.706-2.412-18.412-5.321h.033a233.399 233.399 0 0 0 9.005-19.056c4.685 1.427 9.66 2.022 14.628 2.615 6.933.829 13.851 1.656 19.942 4.74a217.482 217.482 0 0 0-5.177 23.21c-6.118-3.549-13.07-4.869-20.019-6.188z" fill="#263238"/>
    <path d="M263.224 370.569c-.261-.142-.531-.276-.793-.427a239.767 239.767 0 0 0 11.476-24.433l.742.201a258.009 258.009 0 0 1-11.425 24.659zM270.61 373.45l-.843-.259a493.362 493.362 0 0 0 10.893-26.108l.768.108a567.336 567.336 0 0 1-10.818 26.259zM278.384 375.302l-.843-.176c3.372-9.091 6.745-18.171 10.118-27.239l.784.075c-3.362 9.097-6.715 18.21-10.059 27.34zM286.276 376.842l-.885-.175a679.346 679.346 0 0 1 9.139-28.043l.776.108a647.795 647.795 0 0 0-9.03 28.11zM294.016 378.811l-.843-.268c2.285-9.758 5.008-19.265 8.136-28.722l.742.185c-3.119 9.439-5.809 18.996-8.035 28.805z" fill="#263238"/>
    <path d="M307.38 358.675c-12.361-6.483-28.246-3.35-40.682-9.892l.329-.729c12.445 6.416 28.288 3.267 40.606 9.725l-.253.896zM305.82 364.63c-12.647-6.701-28.92-3.652-41.365-11.123.118-.235.236-.469.346-.712 12.445 7.321 28.667 4.263 41.247 10.931l-.228.904zM304.387 370.736c-13.018-7.094-29.831-4.012-42.36-12.564.126-.234.253-.46.371-.695 12.512 8.376 29.232 5.31 42.158 12.338l-.169.921zM303.131 376.901c-13.449-7.672-30.995-4.422-43.651-14.239l.388-.67c12.648 9.615 30.059 6.399 43.448 13.971-.025.31-.126.637-.185.938z" fill="#263238"/>
    <path d="M347.388 134.69a320.336 320.336 0 0 1-47.276-20.404.483.483 0 0 0-.59.109 225.33 225.33 0 0 0-23.347 36.235.442.442 0 0 0 .211.553 346.407 346.407 0 0 1 45.109 32.667.4.4 0 0 0 .598-.101 285.369 285.369 0 0 0 25.506-48.514.42.42 0 0 0-.211-.545z" fill="#fff"/>
    <path fill-rule="evenodd" clip-rule="evenodd" d="M276.386 151.208a346.407 346.407 0 0 1 45.109 32.667.397.397 0 0 0 .598-.067 285.369 285.369 0 0 0 25.506-48.514.416.416 0 0 0-.211-.57 320.336 320.336 0 0 1-47.276-20.404.483.483 0 0 0-.59.109 225.251 225.251 0 0 0-23.347 36.226.442.442 0 0 0 .211.553zm45.277 31.595a358.906 358.906 0 0 0-44.569-32.047 233.13 233.13 0 0 1 22.908-35.682 334.931 334.931 0 0 0 46.636 20.354 290.81 290.81 0 0 1-24.975 47.375z" fill="#263238"/>
    <path d="M340.971 149.231a875.47 875.47 0 0 1-48.405-24.801 219.04 219.04 0 0 1 7.31-9.85 326.656 326.656 0 0 0 47.335 20.546 281.83 281.83 0 0 1-6.24 14.105z" fill="#3087DF"/>
    <path fill-rule="evenodd" clip-rule="evenodd" d="M291.976 124.53a885.915 885.915 0 0 0 49.181 25.313 301.273 301.273 0 0 0 6.652-15.019 321.464 321.464 0 0 1-48.059-20.722 242.404 242.404 0 0 0-7.774 10.428zm48.818 24.098a812.95 812.95 0 0 1-47.621-24.29 198.503 198.503 0 0 1 6.888-9.256 334.931 334.931 0 0 0 46.636 20.354 299.93 299.93 0 0 1-5.903 13.192z" fill="#263238"/>
    <path fill-rule="evenodd" clip-rule="evenodd" d="m313.265 132.144.919.461c.72-1.882 1.439-3.755 2.159-5.62l-1.315-.629-4.039 4.624.843.427.717-.837 1.121.561-.405 1.013zm.666-1.775-.843-.436 1.982-2.37-1.139 2.806zM319.226 130.871l.397-.695c.26-.315.343-.738.223-1.127a1.217 1.217 0 0 0-.822-.808l-1.332-.62-3.086 5.202.919.452c.379-.653.767-1.307 1.155-1.96l.43.209c.361.226.803.283 1.21.158.407-.126.738-.422.906-.811zm-2.107-.31 1.037-1.767.43.201c.286.134.371.326.151.703l-.455.788c-.219.377-.447.427-.733.284l-.43-.209zM319.952 134.666a1.784 1.784 0 0 0-.287.703l.978.469c.035-.252.127-.492.27-.703l.464-.838c.286-.595.362-1.039 0-1.432a1.289 1.289 0 0 0 1.205-.838l.245-.427c.463-.838.278-1.432-.658-1.859l-1.374-.629-1.189 2.074c-.621 1.083-1.24 2.166-1.864 3.245l.92.452 1.239-2.177.32.15c.414.201.489.469.211.972l-.48.838zm.387-2.706c.304-.578.616-1.131.928-1.675l.413.226c.329.151.371.385.152.771a16.28 16.28 0 0 1-.295.527c-.22.436-.506.478-.843.319l-.355-.168z" fill="#263238"/>
    <path d="m324.117 130.569.919.411-3.01 5.503-.928-.452c1.012-1.818 2.024-3.636 3.019-5.462zM325.693 131.273l.92.402a542.395 542.395 0 0 0-2.53 4.783l1.518.72-.43.838-2.445-1.173a447.971 447.971 0 0 1 2.967-5.57z" fill="#263238"/>
    <path d="M320.694 177.174a420.609 420.609 0 0 0-38.929-27.088 271.21 271.21 0 0 1 12.369-20.58 1425.487 1425.487 0 0 0 41.053 21.979 305.592 305.592 0 0 1-14.493 25.689z" fill="#BFBFBF"/>
    <path fill-rule="evenodd" clip-rule="evenodd" d="M281.217 150.194a413.78 413.78 0 0 1 39.586 27.641 316.723 316.723 0 0 0 14.975-26.552 1355.182 1355.182 0 0 1-41.813-22.288 256.481 256.481 0 0 0-12.748 21.199zm39.367 26.318a430.031 430.031 0 0 0-38.263-26.519 279.599 279.599 0 0 1 11.99-19.976 1536.944 1536.944 0 0 0 40.286 21.66 315.468 315.468 0 0 1-14.013 24.835z" fill="#263238"/>
    <path d="M297.321 136.642a12702.687 12702.687 0 0 0 35.253 19.885 315.878 315.878 0 0 1-11.88 20.647 419.074 419.074 0 0 0-33.314-23.579 397.434 397.434 0 0 1 9.941-16.953z" fill="#fff"/>
    <path fill-rule="evenodd" clip-rule="evenodd" d="M286.824 153.687a412.18 412.18 0 0 1 33.979 24.149 309.419 309.419 0 0 0 12.369-21.527 5636.566 5636.566 0 0 1-36.036-20.211 385.259 385.259 0 0 0-10.312 17.589zm33.743 22.867a431.322 431.322 0 0 0-32.647-23.009l.017-.042a393.933 393.933 0 0 1 9.544-16.283 52660.672 52660.672 0 0 0 34.486 19.541 322.855 322.855 0 0 1-11.4 19.793z" fill="#263238"/>
    <path d="m287.751 153.838-.742-.477a420.139 420.139 0 0 1 12.437-20.941l.759.419a416.178 416.178 0 0 0-12.454 20.999zM294.328 158.127l-.734-.494a730.205 730.205 0 0 1 12.648-21.493l.759.41a854.565 854.565 0 0 0-12.673 21.577zM300.837 162.541l-.725-.503 12.892-22.23.767.411c-4.3 7.454-8.611 14.895-12.934 22.322zM307.27 167.089l-.716-.519a890.165 890.165 0 0 0 13.28-23.118l.767.402a803.858 803.858 0 0 1-13.331 23.235zM313.645 171.772l-.717-.536a493.282 493.282 0 0 0 13.76-24.14l.768.402a459.838 459.838 0 0 1-13.811 24.274z" fill="#263238"/>
    <path d="M332.363 156.929a15571.534 15571.534 0 0 1-40.961-23.235c.127-.21.262-.419.397-.629a11333.352 11333.352 0 0 0 41.002 23.06l-.438.804zM329.496 162.239a1809.038 1809.038 0 0 0-40.699-24.357c.126-.218.253-.427.388-.637a2085.523 2085.523 0 0 1 40.75 24.182l-.439.812zM326.52 167.491a861.546 861.546 0 0 0-40.253-25.421l.38-.645a917.287 917.287 0 0 1 40.328 25.237l-.455.829zM323.451 172.693a549.512 549.512 0 0 0-39.629-26.335l.371-.653a587.911 587.911 0 0 1 39.73 26.2l-.472.788z" fill="#263238"/>
    <path d="M87.3 300.42a150.13 150.13 0 0 0-47.007-20.296.412.412 0 0 0-.497.327 125.31 125.31 0 0 1-20.869 45.892.402.402 0 0 0 .127.587 162.75 162.75 0 0 0 52.065 19.156.41.41 0 0 0 .497-.335 117.955 117.955 0 0 1 15.826-44.754.433.433 0 0 0-.143-.577z" fill="#fff"/>
    <path fill-rule="evenodd" clip-rule="evenodd" d="M19.054 326.905a162.75 162.75 0 0 0 52.065 19.156.412.412 0 0 0 .497-.335 117.945 117.945 0 0 1 15.81-44.729.433.433 0 0 0-.127-.577 150.13 150.13 0 0 0-47.006-20.296.412.412 0 0 0-.497.327 125.314 125.314 0 0 1-20.869 45.867.402.402 0 0 0 .127.587zm51.787 18.243a165.962 165.962 0 0 1-50.851-18.754 130.415 130.415 0 0 0 20.497-45.281 153.767 153.767 0 0 1 46.07 19.792 123.325 123.325 0 0 0-15.716 44.243z" fill="#263238"/>
    <path d="M80.815 312.707a314.97 314.97 0 0 0-44.603-18.427 127.693 127.693 0 0 0 4.014-13.729 152.054 152.054 0 0 1 46.888 20.22 122.118 122.118 0 0 0-6.299 11.936z" fill="#3087DF"/>
    <path fill-rule="evenodd" clip-rule="evenodd" d="M35.706 294.514a326.917 326.917 0 0 1 45.278 18.738 119.544 119.544 0 0 1 6.686-12.632 150.405 150.405 0 0 0-47.748-20.621 125.824 125.824 0 0 1-4.216 14.515zm44.94 17.674a302.349 302.349 0 0 0-43.928-18.201v-.026a128.614 128.614 0 0 0 3.769-12.848 153.774 153.774 0 0 1 46.062 19.817 125.576 125.576 0 0 0-5.903 11.258z" fill="#263238"/>
    <path d="M49.964 287.897c.843.293 1.13 1.056.759 2.111l-.068.201-.843-.285c0-.092.068-.184.093-.276.16-.469.059-.704-.228-.838-.286-.134-.505 0-.666.503a2.049 2.049 0 0 0 .278 1.675c.438.739.515 1.635.211 2.437-.38 1.056-1.045 1.491-1.897 1.19-.851-.302-1.087-1.056-.717-2.103 0-.134.093-.268.135-.402l.844.285-.17.469c-.16.469 0 .695.237.838.236.142.506 0 .675-.478a1.99 1.99 0 0 0-.253-1.675 2.89 2.89 0 0 1-.279-2.387c.371-1.106 1.012-1.558 1.889-1.265zM51.71 291.7l1.205.435c-.11.319-.228.629-.337.939l-1.206-.436c-.227.645-.464 1.282-.7 1.927l1.501.552c-.118.31-.227.629-.346.938l-2.369-.837a353.384 353.384 0 0 0 2.327-6.584l2.437.838-.329.946-1.534-.561c-.22.62-.43 1.231-.65 1.843z" fill="#263238"/>
    <path fill-rule="evenodd" clip-rule="evenodd" d="m56.473 293.132.32-.837c.397-1.056.178-1.793-.69-2.153l-1.316-.486c-.781 2.206-1.585 4.4-2.411 6.584l.843.327c.312-.788.624-1.625.927-2.463l.413.151c.869.335 1.518-.067 1.914-1.123zm-1.998.042c.303-.737.573-1.482.843-2.228l.396.159c.279.109.38.319.203.788-.078.2-.152.4-.227.602l-.144.386c-.169.452-.38.561-.658.452l-.413-.159z" fill="#263238"/>
    <path d="M57.553 290.728c.91.352 1.82.712 2.723 1.081-.118.318-.245.628-.363.938l-.919-.369a837.506 837.506 0 0 1-2.175 5.612l-.843-.335a379.577 379.577 0 0 0 2.158-5.629l-.919-.36.337-.938zM60.461 295.084l1.19.494-.38.93-1.18-.495-.76 1.91 1.476.62-.37.93-2.337-.964c.844-2.177 1.687-4.363 2.53-6.541.843.326 1.593.661 2.386 1.005-.126.301-.244.611-.37.921l-1.502-.628c-.219.603-.455 1.248-.683 1.818zM63.514 298.585c.843-1.449 1.686-2.881 2.53-4.322l1.205.553a727.258 727.258 0 0 0-2.715 6.407l-.843-.351c.64-1.542 1.284-3.08 1.93-4.616a500.088 500.088 0 0 1-2.529 4.364l-.843-.343 1.265-4.85-1.88 4.582-.743-.31c.843-2.169 1.763-4.33 2.64-6.491l1.205.527-1.222 4.85z" fill="#263238"/>
    <path fill-rule="evenodd" clip-rule="evenodd" d="m69.736 297.772-.101.226c-.287.654-.633.972-1.105 1.006.366.493.386 1.16.051 1.675l-.228.519c-.421.972-1.079 1.298-1.922.913l-1.332-.595a580.377 580.377 0 0 1 2.723-6.391l1.299.612c.902.452 1.07 1.072.615 2.035zm-1.459-1.348c-.244.553-.489 1.114-.725 1.675l.33.159c.32.143.58.076.842-.435l.16-.352c.194-.453.152-.712-.151-.838l-.456-.209zm-1.913 4.54.843-1.952.37.176c.389.184.473.427.22 1.022l-.245.553c-.202.427-.421.552-.7.427l-.489-.226z" fill="#263238"/>
    <path d="m70.664 299.674 1.163.561-.405.888-1.155-.553-.843 1.835 1.45.687-.387.887-2.26-1.088c.91-2.103 1.83-4.189 2.774-6.291l2.327 1.164c-.143.294-.278.587-.413.88l-1.467-.729-.784 1.759z" fill="#263238"/>
    <path fill-rule="evenodd" clip-rule="evenodd" d="M73.041 304.281c-.13.246-.218.512-.261.787l.894.41c.03-.275.113-.542.244-.787l.43-.938a1.458 1.458 0 0 0 0-1.575c.464-.008.826-.318 1.122-.938l.227-.477c.447-.93.262-1.592-.582-2.052l-1.273-.662a243.719 243.719 0 0 0-2.816 6.19l.843.393c.371-.837.75-1.675 1.13-2.512l.295.142c.38.218.447.486.186 1.055l-.439.964zm1.24-4.926.48.218c.304.143.338.402.135.838a19.36 19.36 0 0 1-.287.603c-.27.486-.53.544-.843.394l-.329-.168c.254-.628.549-1.256.844-1.885z" fill="#263238"/>
    <path d="M67.738 340.951a182.538 182.538 0 0 1-42.478-15.814 158.158 158.158 0 0 0 12.917-25.597 524.536 524.536 0 0 1 37.672 15.37 151.247 151.247 0 0 0-8.111 26.041z" fill="#BFBFBF"/>
    <path fill-rule="evenodd" clip-rule="evenodd" d="M24.627 325.321a179.985 179.985 0 0 0 43.423 16.141 147.89 147.89 0 0 1 8.288-26.82 491.32 491.32 0 0 0-38.372-15.68 153.652 153.652 0 0 1-13.339 26.359zm42.807 15.111a184.74 184.74 0 0 1-41.542-15.488 161.586 161.586 0 0 0 12.496-24.91 560.315 560.315 0 0 1 36.964 15.077 155.502 155.502 0 0 0-7.918 25.321z" fill="#263238"/>
    <path d="M41.372 306.693a4456.093 4456.093 0 0 1 32.555 13.075 151.091 151.091 0 0 0-6.19 21.183 182.417 182.417 0 0 1-36.786-12.933 228.992 228.992 0 0 0 10.421-21.325z" fill="#fff"/>
    <path fill-rule="evenodd" clip-rule="evenodd" d="M30.335 328.203a180.166 180.166 0 0 0 37.715 13.259 148.433 148.433 0 0 1 6.357-21.92 2400.02 2400.02 0 0 0-33.229-13.402 220.99 220.99 0 0 1-10.843 22.063zm37.082 12.229a185.525 185.525 0 0 1-35.86-12.665 235.68 235.68 0 0 0 9.992-20.513 8067.708 8067.708 0 0 1 31.872 12.765 156.248 156.248 0 0 0-6.004 20.413z" fill="#263238"/>
    <path d="m31.339 328.169-.76-.368a222.003 222.003 0 0 0 12.58-26.46l.709.268a233.078 233.078 0 0 1-12.53 26.56zM38.202 331.26l-.776-.335c4.357-8.934 8.381-18 12.074-27.197l.709.276a457.914 457.914 0 0 1-12.007 27.256zM45.183 334.058l-.792-.302a1842.295 1842.295 0 0 0 11.349-27.515l.708.285c-3.71 9.18-7.465 18.357-11.265 27.532zM52.283 336.57l-.843-.268a706.743 706.743 0 0 1 10.505-27.482l.7.293a668.418 668.418 0 0 0-10.362 27.457zM59.5 338.799l-.843-.235a285.404 285.404 0 0 1 9.528-27.08l.7.302a266.539 266.539 0 0 0-9.385 27.013z" fill="#263238"/>
    <path d="M73.775 320.162a7010.399 7010.399 0 0 0-37.883-15.161c.118-.268.236-.536.345-.837a2484.31 2484.31 0 0 1 37.833 15.185c-.118.294-.194.545-.295.813zM71.937 325.422a635.973 635.973 0 0 1-38.499-15.077l.38-.796a746.06 746.06 0 0 0 38.389 15.077c-.093.26-.177.528-.27.796zM70.293 330.757a314.47 314.47 0 0 1-39.51-15.202c.134-.26.277-.519.412-.787a339.494 339.494 0 0 0 39.334 15.185c-.076.268-.152.578-.236.804zM68.842 336.177a220.73 220.73 0 0 1-40.926-15.462c.151-.26.303-.52.446-.779a230.5 230.5 0 0 0 40.691 15.42c-.067.276-.16.544-.21.821z" fill="#263238"/>
    <path d="M74.196 114.932a.417.417 0 0 0-.086-.312.425.425 0 0 0-.285-.158 269.454 269.454 0 0 0-57.63-4.188.38.38 0 0 0-.362.469 208.333 208.333 0 0 1 4.266 52.77.41.41 0 0 0 .363.46c16.449.565 32.91-.642 49.097-3.601a.454.454 0 0 0 .371-.453 176.734 176.734 0 0 1 4.266-44.987z" fill="#fff"/>
    <path fill-rule="evenodd" clip-rule="evenodd" d="M20.462 163.906c16.449.565 32.91-.642 49.097-3.601a.453.453 0 0 0 .371-.52 176.743 176.743 0 0 1 4.266-44.92.417.417 0 0 0-.37-.469 269.325 269.325 0 0 0-57.63-4.188.376.376 0 0 0-.363.469 208.325 208.325 0 0 1 4.266 52.769.41.41 0 0 0 .363.46zm48.684-4.313a236.39 236.39 0 0 1-48.254 3.417 215.077 215.077 0 0 0-4.064-51.881 274.858 274.858 0 0 1 56.382 4.012 184.628 184.628 0 0 0-4.064 44.452z" fill="#263238"/>
    <path d="M71.422 127.487a505.21 505.21 0 0 0-52.587-1.868 223.7 223.7 0 0 0-2.53-14.926 272.066 272.066 0 0 1 57.453 4.188 167.021 167.021 0 0 0-2.336 12.606z" fill="#3087DF"/>
    <path fill-rule="evenodd" clip-rule="evenodd" d="M18.472 126.08a521.156 521.156 0 0 1 53.296 1.826 180.015 180.015 0 0 1 2.546-13.377 268.774 268.774 0 0 0-58.54-4.288 231.238 231.238 0 0 1 2.698 15.839zm52.554.98a491.452 491.452 0 0 0-51.88-1.901 197.004 197.004 0 0 0-2.343-14.022 274.928 274.928 0 0 1 56.382 4.012 182.929 182.929 0 0 0-2.159 11.911z" fill="#263238"/>
    <path d="M30.622 117.009c.157 1.675.303 3.35.438 5.026h-.952a391.463 391.463 0 0 0-.65-6.994h1.324c.49 1.401.961 2.797 1.417 4.188a246.31 246.31 0 0 0-.346-4.188h.944c.194 2.328.363 4.657.523 6.977h-1.012a204.827 204.827 0 0 0-1.686-5.009z" fill="#263238"/>
    <path fill-rule="evenodd" clip-rule="evenodd" d="M35.108 115.141c-1.037-.067-1.56.561-1.476 1.675.037.488.07.989.103 1.487.05.741.098 1.473.158 2.14.102 1.114.692 1.734 1.687 1.784.995.05 1.517-.469 1.458-1.675a486.888 486.888 0 0 0-.185-3.611 1.667 1.667 0 0 0-.467-1.288 1.692 1.692 0 0 0-1.278-.512zm.379 6.089c-.32-.008-.573-.201-.573-.695a560.449 560.449 0 0 0-.236-3.761c-.034-.503.16-.679.497-.67.337.008.59.201.59.695.076 1.248.152 2.505.22 3.761.025.494-.178.678-.498.67z" fill="#263238"/>
    <path d="M39.205 120.97c.186-1.876.377-3.746.574-5.611l.978.05c-.279 2.278-.54 4.565-.843 6.851h-1.51a378.44 378.44 0 0 0-1.349-6.968l1.071.041c.405 1.865.765 3.744 1.08 5.637zM42.392 118.383l1.425.067v.98l-1.425-.067v2.01l1.771.075v.972l-2.774-.109c-.059-2.287-.11-4.582-.177-6.885l2.892.159v.98l-1.821-.101c.084.637.093 1.315.11 1.919zM47.013 120.585c.247-1.591.5-3.18.759-4.766l1.475.109-.151 6.701-.962-.05.076-4.85c-.261 1.6-.514 3.208-.759 4.808l-.96-.042-.743-4.85v4.808h-.843v-6.827l1.476.093c.185 1.625.396 3.247.632 4.866z" fill="#263238"/>
    <path fill-rule="evenodd" clip-rule="evenodd" d="M53.126 117.779v.235c0 .686-.261 1.097-.734 1.281.533.283.82.876.709 1.466v.544c.056.438-.105.875-.431 1.173-.327.298-.78.42-1.214.327l-1.602-.092c.051-2.234.11-4.468.178-6.701l1.602.134a1.41 1.41 0 0 1 1.147.455c.292.319.419.753.345 1.178zm-2.066-.754c0 .595 0 1.181-.059 1.776h.405c.388 0 .632-.126.65-.653v-.377c0-.469-.136-.696-.507-.729l-.489-.017zm-.16 4.783c.067-.687.067-1.374.067-2.052l.447.017c.464 0 .633.217.633.837v.578c-.026.494-.211.62-.557.62h-.59z" fill="#263238"/>
    <path d="m54.837 119.195 1.434.117c0 .318 0 .628-.06.938l-1.424-.117c0 .645-.076 1.281-.11 1.926l1.77.134c0 .31 0 .62-.058.93l-2.774-.193c.101-2.2.21-4.403.329-6.608.96.084 1.93.176 2.892.276 0 .31 0 .62-.068.93l-1.82-.168c-.035.612-.077 1.257-.11 1.835z" fill="#263238"/>
    <path fill-rule="evenodd" clip-rule="evenodd" d="M59.154 122.537a1.93 1.93 0 0 0 0 .796l1.03.125a1.722 1.722 0 0 1-.043-.787c.01-.118.023-.237.036-.356.024-.211.048-.424.048-.633.06-.661-.067-1.155-.565-1.415.52-.182.86-.677.844-1.223l.05-.503c.101-1.013-.329-1.557-1.425-1.675l-1.602-.167a427.322 427.322 0 0 0-.472 6.5l1.02.083c.06-.879.127-1.759.194-2.638h.363c.472.042.657.285.607.879-.01.121-.023.242-.036.363a5.825 5.825 0 0 0-.049.651zm-.766-3.802c.029-.345.057-.691.084-1.04l.514.026c.37.033.472.259.472.712a5.627 5.627 0 0 1-.027.248 3.13 3.13 0 0 0-.032.388c-.042.519-.295.662-.683.62h-.405c.025-.318.05-.636.077-.954z" fill="#263238"/>
    <path d="M65.723 156.887a272.209 272.209 0 0 1-41.315 2.513 247.69 247.69 0 0 0-1.063-29.316 759.712 759.712 0 0 1 43.617 1.005 225.58 225.58 0 0 0-1.24 25.798z" fill="#BFBFBF"/>
    <path fill-rule="evenodd" clip-rule="evenodd" d="M23.953 159.86c14.1.233 28.197-.643 42.157-2.621a221.23 221.23 0 0 1 1.24-26.527 714.824 714.824 0 0 0-44.519-1.089c1 10.046 1.374 20.145 1.122 30.237zm41.415-3.317a278.541 278.541 0 0 1-40.572 2.421h-.034a250.951 250.951 0 0 0-.978-28.437 793.023 793.023 0 0 1 42.723.939 230.686 230.686 0 0 0-1.139 25.077z" fill="#263238"/>
    <path d="M29.745 135.746c12.192 0 24.432.103 36.72.31a230.073 230.073 0 0 0-.742 20.831 273.333 273.333 0 0 1-35.565 2.555 343.923 343.923 0 0 0-.413-23.696z" fill="#fff"/>
    <path fill-rule="evenodd" clip-rule="evenodd" d="M29.77 159.894a269.583 269.583 0 0 0 36.34-2.655c-.09-7.204.172-14.396.785-21.577a1919.92 1919.92 0 0 0-37.572-.369c.45 8.226.6 16.426.447 24.601zm35.565-3.35a279.598 279.598 0 0 1-34.78 2.437 358.49 358.49 0 0 0-.388-22.775c11.91 0 23.864.079 35.86.235a230.95 230.95 0 0 0-.692 20.103z" fill="#263238"/>
    <path d="M30.546 159.434h-.767a335.834 335.834 0 0 0-.784-29.384h.843c.635 9.839.871 19.634.708 29.384zM37.41 159.299h-.776c.112-9.71-.026-19.449-.413-29.216h.843a659.09 659.09 0 0 1 .345 29.216zM44.273 158.981l-.776.05c.062-9.582.062-19.184 0-28.805h.843c0 9.616-.022 19.201-.067 28.755zM51.136 158.495l-.767.067c0-9.364.112-18.748.337-28.152h.843a957.876 957.876 0 0 0-.413 28.085zM58.008 157.842l-.768.075c-.05-9.079.189-18.162.717-27.247h.843a391.97 391.97 0 0 0-.792 27.172z" fill="#263238"/>
    <path d="M66.43 136.458a3619.603 3619.603 0 0 0-42.62-.252c0-.301 0-.611-.06-.913 14.182 0 28.429.121 42.74.361-.017.268-.042.552-.06.804zM66.068 141.726c-14.024.369-27.992.531-41.905.486v-.904c13.94.033 27.937-.093 41.99-.377-.05.301-.068.527-.085.795zM65.832 147.003a569.934 569.934 0 0 1-41.458 1.215v-.913a626.33 626.33 0 0 0 41.509-1.097l-.05.795zM65.714 152.289a357.17 357.17 0 0 1-41.314 1.918v-.905a379.19 379.19 0 0 0 41.314-1.809c.009.268.009.536 0 .796z" fill="#263238"/>
    <path opacity=".3" d="M145.022 310.303c-1.543 4.523-3.618 11.467-4.216 17.347-.767 7.539-14.823 18.922-20.91 23.528a138.835 138.835 0 0 0-9.688-19.985.314.314 0 0 1-.02-.293.32.32 0 0 1 .23-.184c13.339-3.644 23.229-13.327 34.604-20.413zM302.793 329.979c-3.608 7.739-12.259 24.14-22.461 28.16-12.732 5.026-16.206 1.558-18.912-8.301a136.335 136.335 0 0 0 9.485-23.495.33.33 0 0 1 .464-.217c9.468 4.406 20.961 2.73 31.424 3.853zM304.53 81.41s1.687 1.441-.354 5.219a162.792 162.792 0 0 1-15.59-5.026.393.393 0 0 1-.211-.553 130.057 130.057 0 0 0 7.091-17.212c.312-.168.633-.319.961-.47 4.646-2.102 5.43 3.35 5.43 3.35s3.913-.058 5.118 1.726c1.973 2.907-1.399 5.545-1.399 5.545s4.502 3.166-1.046 7.421z" fill="#000" fill-opacity=".7"/>
    <path d="M123.707 339.265c-2.861 4.976-19.544-3.182-19.236-13.541.309-10.358 17.209-7.862 17.209-7.862l2.027 21.403z" fill="#263238" stroke="#263238" stroke-width=".929" stroke-linecap="round" stroke-linejoin="round"/>
    <path d="M113.914 317.905s-4.947 9.038-7.366 10.485l5.714 19.312 13.755-20.987-12.103-8.81z" fill="#fff" stroke="#263238" stroke-width=".929" stroke-linecap="round" stroke-linejoin="round"/>
    <path d="M265.744 322.559c1.944 1.82-10.843 19.761-14.447 16.706-3.603-3.055 2.753-15.563 5.939-17.679 3.187-2.116 8.508.973 8.508.973z" fill="#263238" stroke="#263238" stroke-width=".929" stroke-linecap="round" stroke-linejoin="round"/>
    <path d="M258.888 317.905s4.955 9.055 7.374 10.485l-5.723 19.312-13.746-20.987 12.095-8.81z" fill="#fff" stroke="#263238" stroke-width=".929" stroke-linecap="round" stroke-linejoin="round"/>
    <path d="M148.339 200.433c2.202 6.355 30.029-1.972 42.132 0 12.104 1.971 24.808-7.922 21.254-17.205-3.553-9.284-36.21-19.668-36.21-19.668l-21.779 7.033-5.397 29.84z" fill="#263238" stroke="#263238" stroke-width=".929" stroke-linecap="round" stroke-linejoin="round"/>
    <path d="M204.335 192.689s-1.877-12.051 0-19.084c1.877-7.032-38.371-13.65-38.371-13.65l-12.228 17.331s1.668 7.414 0 22.452l50.599-7.049z" fill="#fff"/>
    <path opacity=".3" d="M204.335 173.605c-1.06 3.969-.926 9.529-.609 13.625-17.148-2.701-34.691.658-49.69 9.513 1.126-13.025-.3-19.465-.3-19.465l12.203-17.332s40.264 6.627 38.396 13.659z" fill="#000" fill-opacity=".7"/>
    <path clip-rule="evenodd" d="M204.335 192.689s-1.877-12.051 0-19.084c1.877-7.032-38.371-13.65-38.371-13.65l-12.228 17.331s1.668 7.414 0 22.452l50.599-7.049z" stroke="#263238" stroke-width=".929" stroke-linecap="round" stroke-linejoin="round"/>
    <path d="M153.185 193.036s29.921-4.096 52.359-1.777l2.636 15.529s27.277 59.24 32.123 70.123c4.846 10.883 25.441 45.648 25.441 45.648s-10.702-1.752-14.447 16.706c0 0-41.799-55.855-45.319-62.354-3.52-6.5-24.799-38.811-24.799-38.811h-5.997s-21.955 39.615-23.715 42.873c-1.76 3.258-21.171 45.987-27.76 58.292 0 0-8.183-24.187-19.236-13.541 0 0 9.109-24.364 10.01-24.711.901-.347 4.755-19.084 7.215-22.215 2.461-3.131 28.845-72.01 28.845-72.01l2.644-13.752z" fill="#757575"/>
    <path opacity=".3" d="M251.831 336.954a43.098 43.098 0 0 0-.534 2.311s-41.799-55.855-45.319-62.354c-3.52-6.5-24.799-38.811-24.799-38.811h-5.997s-21.955 39.615-23.715 42.873c-1.76 3.258-21.171 45.987-27.76 58.292a46.342 46.342 0 0 0-1.869-4.511s9.509-16.79 10.227-22.807c.717-6.017-8.342-.516-9.76-4.274-1.418-3.757 19.244-11.501 24.432-24.872 0 0-5.271.491-6.314-8.277-1.043-8.767 30.763-41.764 38.621-46.037-.442.135-10.16 3.207-8.926.846 1.235-2.361 8.492-7.896 8.492-7.896s6.306 6.55 14.556 6.516c8.249-.033-7.274 4.655-7.274 4.655s19.819 23.425 29.061 25.439c9.243 2.014-12.512 1.058-12.512 1.058s25.617 42.509 39.705 50.861c14.089 8.353 7.566 12.898 7.032 17.155-.292 2.031 1.118 6.118 2.653 9.833z" fill="#000" fill-opacity=".7"/>
    <path clip-rule="evenodd" d="M153.185 193.036s29.921-4.096 52.359-1.777l2.636 15.529s27.277 59.24 32.123 70.123c4.846 10.883 25.441 45.648 25.441 45.648s-10.702-1.752-14.447 16.706c0 0-41.799-55.855-45.319-62.354-3.52-6.5-24.799-38.811-24.799-38.811h-5.997s-21.955 39.615-23.715 42.873c-1.76 3.258-21.171 45.987-27.76 58.292 0 0-8.183-24.187-19.236-13.541 0 0 9.109-24.364 10.01-24.711.901-.347 4.755-19.084 7.215-22.215 2.461-3.131 28.845-72.01 28.845-72.01l2.644-13.752z" stroke="#263238" stroke-width=".929" stroke-linecap="round" stroke-linejoin="round"/>
    <path d="M78.938 78.153S94.97 88.207 104.471 92l-7.724 10.857s-18.935-14.75-24.674-17.772" fill="#fff"/>
    <path d="M78.938 78.153S94.97 88.207 104.471 92l-7.724 10.857s-18.935-14.75-24.674-17.772" stroke="#263238" stroke-width=".929" stroke-linecap="round" stroke-linejoin="round"/>
    <path d="M78.413 79.846c.976-1.447.534-3.571.283-4.587-.24-.956-.61-1.873-1.1-2.725a14.554 14.554 0 0 1-1.11-2.395 24.923 24.923 0 0 1-.55-1.692 32.98 32.98 0 0 1-.785-3.386s-1.735-.617-1.977 1.134c-.053.483-.036.97.05 1.448.134.846.384 1.692.543 2.335.132.387.152.804.058 1.202-.063.15-.148.29-.25.415a.287.287 0 0 0 0 .05l-.109.144a2.13 2.13 0 0 1-.834.61 1.303 1.303 0 0 1-.434.101.256.256 0 0 1-.116 0 2.402 2.402 0 0 1-.334-.042 5.97 5.97 0 0 1-1.668-.643 18.835 18.835 0 0 1-2.21-1.464c-.26-.203-.518-.406-.76-.618a23.476 23.476 0 0 1-1.802-1.633c-.4-.415-.834-.847-1.293-1.27a21.025 21.025 0 0 0-1.318-1.134c-1.267-.981-2.41-1.48-2.819-.49-.409.99.067 1.294 1.084 2.259.35.338.776.745 1.26 1.26.845.907 1.62 1.878 2.319 2.904l.275.397-.375.525c.067.102-.159 0-.584-.178a29.209 29.209 0 0 1-3.212-1.836c-.475-.322-.959-.669-1.443-1.033-.483-.364-.834-.66-1.267-1.007-2.06-1.692-2.553.246-2.21 1.109a6.873 6.873 0 0 0 2.026 1.93c.476.355.968.727 1.435 1.091.233.178.45.356.659.533.834.728 1.752 1.464 2.377 1.98l.242.195-.217.847-.384-.094a19.703 19.703 0 0 1-3.228-1.159c-.709-.338-1.243-.643-1.668-.846-.834-.432-1.243-.576-1.76-.093-.517.482 0 1.404.834 2.183a8.803 8.803 0 0 0 2.352 1.464c.152.063.308.113.468.153.804.269 1.57.644 2.277 1.117l.433.27.15.669-.708-.085a18.943 18.943 0 0 1-2.228-.423c-.59-.169-1.189-.307-1.793-.414a.96.96 0 0 0-1.01.355c-.35.525.193 1.117 1.018 1.591.5.285 1.029.515 1.577.685.405.135.826.217 1.251.246.793.11 1.571.312 2.319.6l.926.34c1.101.414 2.119.846 2.502.998l.134.06c.734.481 1.368.845 1.935 1.2a10.184 10.184 0 0 0 4.388 1.473c.834.093 1.81-.55 2.802-1.48" fill="#fff"/>
    <path d="M78.413 79.846c.976-1.447.534-3.571.283-4.587-.24-.956-.61-1.873-1.1-2.725a14.554 14.554 0 0 1-1.11-2.395 24.979 24.979 0 0 1-.55-1.692 32.98 32.98 0 0 1-.785-3.386s-1.735-.617-1.977 1.134c-.053.483-.036.97.05 1.448.134.846.384 1.692.543 2.335.132.387.152.804.058 1.202-.063.15-.148.29-.25.415a.287.287 0 0 0 0 .05l-.109.144a2.13 2.13 0 0 1-.834.61 1.303 1.303 0 0 1-.434.101.256.256 0 0 1-.116 0 2.402 2.402 0 0 1-.334-.042 5.97 5.97 0 0 1-1.668-.643v0a18.835 18.835 0 0 1-2.21-1.464v0c-.26-.203-.518-.406-.76-.618a23.476 23.476 0 0 1-1.802-1.633c-.4-.415-.834-.847-1.293-1.27a21.025 21.025 0 0 0-1.318-1.134c-1.267-.981-2.41-1.48-2.819-.49-.409.99.067 1.294 1.084 2.259.35.338.776.745 1.26 1.26.845.907 1.62 1.878 2.319 2.904v0l.275.397-.375.525c.067.102-.159 0-.584-.178v0a29.209 29.209 0 0 1-3.212-1.836c-.475-.322-.959-.669-1.443-1.033-.483-.364-.834-.66-1.267-1.007-2.06-1.692-2.553.246-2.21 1.109a6.873 6.873 0 0 0 2.026 1.93c.476.355.968.727 1.435 1.091.233.178.45.356.659.533.834.728 1.752 1.464 2.377 1.98l.242.195-.217.847-.384-.094v0a19.703 19.703 0 0 1-3.228-1.159c-.709-.338-1.243-.643-1.668-.846-.834-.432-1.243-.576-1.76-.093-.517.482 0 1.404.834 2.183a8.803 8.803 0 0 0 2.352 1.464v0c.152.063.308.113.468.153.804.269 1.57.644 2.277 1.117l.433.27.15.669-.708-.085v0a18.943 18.943 0 0 1-2.228-.423v0c-.59-.169-1.189-.307-1.793-.414a.96.96 0 0 0-1.01.355c-.35.525.193 1.117 1.018 1.591.5.285 1.029.515 1.577.685.405.135.826.217 1.251.246.793.11 1.571.312 2.319.6l.926.34c1.101.414 2.119.846 2.502.998l.134.06c.734.481 1.368.845 1.935 1.2a10.184 10.184 0 0 0 4.388 1.473c.834.093 1.81-.55 2.802-1.48" stroke="#263238" stroke-width=".929" stroke-linecap="round" stroke-linejoin="round"/>
    <path d="M72.073 72.593s-2.419 2.962-.45 5.84" stroke="#263238" stroke-width=".929" stroke-linecap="round" stroke-linejoin="round"/>
    <path d="M275.078 77.527s-16.032 10.054-25.499 13.845l7.724 10.866s18.935-14.759 24.674-17.772" fill="#fff"/>
    <path d="M275.078 77.527s-16.032 10.054-25.499 13.845l7.724 10.866s18.935-14.759 24.674-17.772" stroke="#263238" stroke-width=".929" stroke-linecap="round" stroke-linejoin="round"/>
    <path d="M275.604 79.254c-.976-1.448-.534-3.572-.284-4.587.24-.954.611-1.868 1.101-2.717.44-.766.811-1.57 1.11-2.403.208-.559.383-1.126.55-1.693.322-1.113.584-2.243.784-3.385 0 0 1.735-.61 1.977 1.143.054.48.037.964-.05 1.438-.133.847-.383 1.693-.542 2.336-.132.39-.153.81-.058 1.21.065.149.149.288.25.415l.108.144c.225.269.512.478.835.61.137.058.284.092.433.1.039.01.079.01.117 0 .111.008.223.008.334 0a5.98 5.98 0 0 0 1.668-.642 16.924 16.924 0 0 0 2.21-1.465l.76-.617a23.381 23.381 0 0 0 1.801-1.642 31.59 31.59 0 0 1 1.293-1.27c.459-.423.884-.795 1.318-1.134 1.268-.973 2.411-1.472 2.82-.482.408.99-.067 1.295-1.085 2.26-.35.338-.776.736-1.259 1.252a25.121 25.121 0 0 0-2.319 2.903l-.276.406.376.516c-.067.102.158 0 .584-.178a29.485 29.485 0 0 0 3.194-1.937c.476-.314.96-.66 1.444-1.024.483-.364.834-.669 1.267-1.016 2.061-1.692 2.553.245 2.211 1.109a6.866 6.866 0 0 1-2.027 1.938c-.476.355-.968.719-1.435 1.083l-.659.533a88.244 88.244 0 0 1-2.377 1.98l-.242.203.217.847.384-.102a18.959 18.959 0 0 0 3.228-1.16c.709-.33 1.243-.642 1.668-.846.834-.431 1.243-.584 1.76-.093.517.491 0 1.405-.834 2.175a8.836 8.836 0 0 1-2.352 1.473 5.25 5.25 0 0 1-.467.16 9.175 9.175 0 0 0-2.278 1.11l-.433.27-.151.669c.251 0 .484-.051.709-.077.75-.102 1.493-.247 2.228-.431a14.05 14.05 0 0 1 1.793-.415.943.943 0 0 1 1.009.356c.351.516-.192 1.108-1.017 1.59a7.477 7.477 0 0 1-1.577.678 5.53 5.53 0 0 1-1.251.254 9.962 9.962 0 0 0-2.319.6l-.926.339c-1.101.406-2.119.846-2.461.99l-.133.06c-.734.49-1.368.846-1.935 1.201a10.203 10.203 0 0 1-4.388 1.481c-.834.093-1.81-.55-2.803-1.49" fill="#fff"/>
    <path d="M275.604 79.254c-.976-1.448-.534-3.572-.284-4.587.24-.954.611-1.868 1.101-2.717.44-.766.811-1.57 1.11-2.403.208-.559.383-1.126.55-1.693.322-1.113.584-2.243.784-3.385 0 0 1.735-.61 1.977 1.143.054.48.037.964-.05 1.438-.133.847-.383 1.693-.542 2.336-.132.39-.153.81-.058 1.21.065.149.149.288.25.415l.108.144c.225.269.512.478.835.61.137.058.284.092.433.1.039.01.079.01.117 0 .111.008.223.008.334 0a5.98 5.98 0 0 0 1.668-.642v0a16.924 16.924 0 0 0 2.21-1.465v0l.76-.617a23.381 23.381 0 0 0 1.801-1.642 31.59 31.59 0 0 1 1.293-1.27c.459-.423.884-.795 1.318-1.134 1.268-.973 2.411-1.472 2.82-.482.408.99-.067 1.295-1.085 2.26-.35.338-.776.736-1.259 1.252a25.121 25.121 0 0 0-2.319 2.903v0l-.276.406.376.516c-.067.102.158 0 .584-.178v0a29.485 29.485 0 0 0 3.194-1.937c.476-.314.96-.66 1.444-1.024.483-.364.834-.669 1.267-1.016 2.061-1.692 2.553.245 2.211 1.109a6.866 6.866 0 0 1-2.027 1.938c-.476.355-.968.719-1.435 1.083l-.659.533a88.244 88.244 0 0 1-2.377 1.98l-.242.203.217.847.384-.102v0a18.959 18.959 0 0 0 3.228-1.16c.709-.33 1.243-.642 1.668-.846.834-.431 1.243-.584 1.76-.093.517.491 0 1.405-.834 2.175a8.836 8.836 0 0 1-2.352 1.473v0a5.25 5.25 0 0 1-.467.16 9.175 9.175 0 0 0-2.278 1.11l-.433.27-.151.669c.251 0 .484-.051.709-.077v0c.75-.102 1.493-.247 2.228-.431v0a14.05 14.05 0 0 1 1.793-.415.943.943 0 0 1 1.009.356c.351.516-.192 1.108-1.017 1.59a7.477 7.477 0 0 1-1.577.678 5.53 5.53 0 0 1-1.251.254 9.962 9.962 0 0 0-2.319.6l-.926.339c-1.101.406-2.119.846-2.461.99l-.133.06c-.734.49-1.368.846-1.935 1.201a10.203 10.203 0 0 1-4.388 1.481c-.834.093-1.81-.55-2.803-1.49" stroke="#263238" stroke-width=".929" stroke-linecap="round" stroke-linejoin="round"/>
    <path d="M281.943 71.967s2.419 2.97.451 5.84" stroke="#263238" stroke-width=".929" stroke-linecap="round" stroke-linejoin="round"/>
    <path d="M182.263 71.79s-1.126-4.935-4.604-6.864c-4.955-2.742-12.512-1.752-12.512-1.752s2.894 1.506 3.72 3.258c0 0-1.735-.998-4.788 0a5.472 5.472 0 0 1-5.113-.753s-.584 3.952 1.234 4.993c1.819 1.041-.083.364-.083.364s-1.568 2.099-2.97 1.76c0 0 .084 4.35 1.318 5.924 0 0-1.401 2.048-1.318 3.495a1.943 1.943 0 0 1-1.318 1.905s.409 2.826 1.485 3.57c0 0-.834 5.265.834 8.024a71.811 71.811 0 0 0 4.171 6.025s-.409 1.896-1.401 2.04c0 0 1.401 3.063 7.924 1.142 0 0 8.834 2.539 11.678.973a13.292 13.292 0 0 0 5.681.948s-.484-3.385.592-4.764a58.076 58.076 0 0 0 5.355-6.364c1.485-2.345.742-8.793.742-8.793s1.41-1.693 1.16-2.801c0 0-1.235.38-1.819-.457 0 0 1.16-2.54 2.228-3.013 0 0-.242-2.683-2.144-3.385 0 0 1.318-2.344 2.561-2.674 0 0-4.488-1.93-6.907 0a7.014 7.014 0 0 1 3.278-5.078s-3.812.169-5.046 3.385c0 0-2.461-7.033-1.969-9.707a15.554 15.554 0 0 0-1.969 8.598z" fill="#263238"/>
    <path d="M167.04 107.892s3.337 10.714-1.101 17.408c0 0 10.344 3.8 19.186 0a24.576 24.576 0 0 1-2.82-17.408s-6.464-4.46-15.265 0z" fill="#fff" stroke="#263238" stroke-width=".929" stroke-linecap="round" stroke-linejoin="round"/>
    <path d="M153.736 197.877a120.947 120.947 0 0 1 14.355-1.337v-3.851s-10.401.338-14.355 1.693v3.495zM168.834 108.247a10.112 10.112 0 0 0 6.306 3.554c4.004.5 5.997-3.554 5.997-3.554h-12.303z" fill="#263238"/>
    <path d="M187.235 91.135s1.476-1.582 2.302 0c.826 1.583-.759 9.453-3.336 8.616" fill="#fff"/>
    <path d="M187.235 91.135s1.476-1.582 2.302 0c.826 1.583-.759 9.453-3.336 8.616" stroke="#263238" stroke-width=".929" stroke-linecap="round" stroke-linejoin="round"/>
    <path d="M162.052 91.135s-1.468-1.582-2.294 0c-.826 1.583.759 9.453 3.337 8.616" fill="#fff"/>
    <path d="M162.052 91.135s-1.468-1.582-2.294 0c-.826 1.583.759 9.453 3.337 8.616" stroke="#263238" stroke-width=".929" stroke-linecap="round" stroke-linejoin="round"/>
    <path d="M174.506 76.309c7.257 0 11.219 4.857 11.553 6.194a64.522 64.522 0 0 1 1.151 11.552 29.44 29.44 0 0 1-4.121 12.974c-1.726 2.885-13.73 2.733-16.341.084-2.394-2.429-5.113-10.84-4.946-12.948.167-2.107.767-10.155 1.151-11.602.792-2.903 4.805-6.254 11.553-6.254z" fill="#fff" stroke="#263238" stroke-width=".929" stroke-linecap="round" stroke-linejoin="round"/>
    <path d="M171.72 82.842a5.61 5.61 0 0 0-5.781 2.674M177.659 82.757s3.478-1.845 5.781 1.38M170.235 88.03s-2.144 1.167-3.47.846M178.677 87.36c1.163.419 2.386.644 3.62.67M172.379 91.542s1.151-2.725 2.144-2.615c.992.11 2.302 2.615 2.302 2.615M168.5 96.34s9.076 1.565 13.28-.61" stroke="#263238" stroke-width=".929" stroke-linecap="round" stroke-linejoin="round"/>
    <path d="M169.551 96.517c1.039 2.072 3.175 3.336 5.464 3.233 4.129 0 6.122-3.732 6.122-3.732" stroke="#263238" stroke-width=".929" stroke-linecap="round" stroke-linejoin="round"/>
    <path d="M145.703 114.349s5.255-1.405 17.358 3.072c0 0 17.326-3.03 24.191 0a40.41 40.41 0 0 1 15.656-4.232s22.881-12.093 29.479-14.463c6.598-2.37 16.725-8.59 19.803-10.84 3.078-2.252 11.878-4.926 11.878-4.926a12.314 12.314 0 0 1 4.396-3.072s10.126 9.809 9.242 15.597l-3.52 1.092s-63.812 44.201-66.006 45.631c-1.101.728 1.293 5.019.659 16.334-.692 12.44 5.447 22.57 3.495 29.222 0 0-6.031-9.834-24.34-8.912-15.015.753-39.655 21.58-39.655 21.58a72.409 72.409 0 0 1 .15-18.897c1.835-13.177.292-32.446.292-35.197 0-4.46-58.957-41.375-58.957-41.375l-3.078-.778-7.924-6.44s5.28-17.307 14.08-15.462l7.507 5.366 9.459 5.153s25.717 17.231 35.835 21.547z" fill="#3087DF"/>
    <path opacity=".3" d="M277.748 94.918c0 .195 0 .372-.05.559l-3.52 1.091s-63.395 43.922-65.973 45.623v-3.698s29.512-19.524 35.134-26.649c5.622-7.126 6.023-1.803 6.023-1.803s19.694-11.07 20.745-20.59c3.213.6 6.005 2.598 7.641 5.467zM148.706 146.025c-2.319-5.645-58.882-41.061-58.882-41.061l-3.078-.779-4.922-3.994c1.352-8.523 7.825-10.308 7.825-10.308s.066 9.309 2.377 12.973c2.31 3.665 39.93 26.235 39.93 26.235s-2.31-10.502 3.462-2.116c5.772 8.387 11.444 9.453 11.444 9.453a62.576 62.576 0 0 1 1.844 9.597zM158.023 176.245c.047 2.609 1.876 4.833 4.396 5.349 3.337.702 5.672 4.138-14.439 15.284a75.54 75.54 0 0 1 .509-15.343c1.193-8.556.959-19.685.651-27.191 5.747 5.382 15.073 11.704 25.491 9.216 17.217-4.105 4.513 13.405-16.608 12.685z" fill="#000" fill-opacity=".7"/>
    <path clip-rule="evenodd" d="M145.703 114.349s5.255-1.405 17.358 3.072c0 0 17.326-3.03 24.191 0a40.41 40.41 0 0 1 15.656-4.232s22.881-12.093 29.479-14.463c6.598-2.37 16.725-8.59 19.803-10.84 3.078-2.252 11.878-4.926 11.878-4.926a12.314 12.314 0 0 1 4.396-3.072s10.126 9.809 9.242 15.597l-3.52 1.092s-63.812 44.201-66.006 45.631c-1.101.728 1.293 5.019.659 16.334-.692 12.44 5.447 22.57 3.495 29.222 0 0-6.031-9.834-24.34-8.912-15.015.753-39.655 21.58-39.655 21.58a72.409 72.409 0 0 1 .15-18.897c1.835-13.177.292-32.446.292-35.197 0-4.46-58.957-41.375-58.957-41.375l-3.078-.778-7.924-6.44s5.28-17.307 14.08-15.462l7.507 5.366 9.459 5.153s25.717 17.231 35.835 21.547z" stroke="#263238" stroke-width=".929" stroke-linecap="round" stroke-linejoin="round"/>
    <path d="M170.118 192.689v3.385s11.553-.787 17.826 0v-4.13s-13.53-.482-17.826.745zM190.471 191.826l.442 4.231s10.669-.338 14.181.669l-.768-4.02a42.197 42.197 0 0 0-13.855-.88z" fill="#263238"/>
    <path d="M174.631 193.019v2.463c0 .678.542 1.227 1.21 1.227h5.722c.668 0 1.209-.549 1.209-1.227v-2.632a1.243 1.243 0 0 0-.368-.877 1.208 1.208 0 0 0-.875-.35l-5.722.169a1.227 1.227 0 0 0-1.176 1.227z" fill="#fff" stroke="#263238" stroke-width=".929" stroke-linecap="round" stroke-linejoin="round"/>
    <path d="M178.677 196.04s.717 23.095-.409 37.829M181.454 195.702s.768 6.474 0 10.045c0 0 2.369 9.597-2.394 10.604" stroke="#263238" stroke-width=".929" stroke-linecap="round" stroke-linejoin="round"/>
    <path d="M168.8 235.316a54.163 54.163 0 0 1 14.64-1.447M201.032 198.384s2.861 7.778 7.148 8.404M156.155 198.943s-1.668 5.992-5.614 7.845M169.685 225.279s-22.522 18.745-28.928 19.194M176.124 235.316s7.316 0 16.683 10.942c6.515 7.617 27.61 13.499 27.61 13.499M175.14 238.101s-8.65 2.488-12.721 6.397M114.448 301.055s12.762.55 20.678-9.266M225.564 288.666s20.019 20.082 31.697 23.882" stroke="#263238" stroke-width=".929" stroke-linecap="round" stroke-linejoin="round"/>
    <path d="M284.212 319.8s-.233-6.127-6.356-6.271c-6.122-.143-9.576 9.716-9.576 9.716s-5.172.846-6.79 6.025c-1.618 5.179-1.326 7.921-1.326 7.921s-2.06 1.007-2.653 4.528c-.875 5.196 1.06 7.16 1.06 7.16 2.677 8.632 8.608 10.079 10.568 8.632 5.639-4.173 15.073-37.711 15.073-37.711z" fill="#263238"/>
    <path d="M263.175 350.656c.793-3.072 2.369-5.865 3.337-8.903 1.334-4.232 1.418-8.768 2.185-13.152.768-4.383 3.337-9.266 6.456-11.907 4.296-3.622 9.226-.795 9.351 5.349.142 6.77-2.844 15.157-5.213 21.368-2.202 5.747-9.635 19.253-15.849 12.026-.792-.914-.759-2.454-.5-3.774.066-.347.15-.686.233-1.007z" fill="#fff" stroke="#263238" stroke-width=".929" stroke-linecap="round" stroke-linejoin="round"/>
    <path d="m269.932 324.345 14.464.474M267.529 328.322l16.325.39M266.895 332.131l16.099.203M266.854 335.194l15.106.669M266.253 338.808l14.564.44M265.603 342.658l13.679.745M263.859 346.204l13.855.711M263.175 350.647l11.92.753M262.091 353.482l10.343 1.244M271.383 319.47l12.729.906" stroke="#263238" stroke-width=".929" stroke-linecap="round" stroke-linejoin="round"/>
    <path d="M88.59 319.8s.233-6.127 6.347-6.271c6.114-.143 9.576 9.716 9.576 9.716s5.172.846 6.79 6.025c1.618 5.179 1.326 7.921 1.326 7.921s2.061 1.007 2.653 4.528c.884 5.196-1.06 7.16-1.06 7.16-2.677 8.632-8.608 10.079-10.56 8.632-5.639-4.173-15.073-37.711-15.073-37.711z" fill="#263238"/>
    <path d="M109.626 350.656c-.792-3.072-2.369-5.865-3.336-8.903-1.335-4.232-1.41-8.768-2.186-13.152-.775-4.383-3.336-9.266-6.456-11.907-4.287-3.622-9.217-.795-9.35 5.349-.142 6.77 2.844 15.157 5.221 21.368 2.194 5.747 9.626 19.253 15.849 12.026.784-.914.75-2.454.5-3.774-.075-.347-.15-.686-.242-1.007z" fill="#fff" stroke="#263238" stroke-width=".929" stroke-linecap="round" stroke-linejoin="round"/>
    <path d="m102.87 324.345-14.464.474M105.272 328.322l-16.316.39M105.906 332.131l-16.09.203M105.948 335.194l-15.106.669M106.557 338.808l-14.573.44M107.199 342.658l-13.672.745M108.951 346.204l-13.855.711M109.626 350.647l-11.92.753M110.719 353.482l-10.352 1.244M101.418 319.47l-12.729.906M208.18 142.208s.676-19.71-3.787-25.761" stroke="#263238" stroke-width=".929" stroke-linecap="round" stroke-linejoin="round"/>
    <path d="M212.334 119.088s.134 11.924-4.17 17.357M148.781 146.338s-3.912-16.249-2.636-24.178M145.703 114.349s-6.048 5.458-4.946 12.643M264.059 82.952a32.648 32.648 0 0 1 7.349 8.615M84.352 102.239s1.401-10.156 7.674-14.531M204.393 155.859s-28.594 21.453-43.092 20.607M158.023 136.445s12.095 13.803 29.971 16.147" stroke="#263238" stroke-width=".929" stroke-linecap="round" stroke-linejoin="round"/>
    <path opacity=".3" d="m17.947 274.726.32 21.391s2.084-2.939 17.49-1.769l-1.009 3.428s24.785 4.287 35.181-.758l.303-4.312-2.244-1.39s2.782-34.647 2.244-48.138c0 0-31.618 12.818-43.342 9.323-11.725-3.495-8.943 22.225-8.943 22.225zM238.918 252.054l-4.463 54.455s6.665-8.278 19.028-6.552l1.992 3.891s23.532 7.807 31.592 8.152c0 0-4.202-35.801-10.556-44.551-6.354-8.75-37.593-15.395-37.593-15.395zM269.838 192.462l44.653-34.655s25.567 37.274 35.509 39.927c0 0-10.682 25.695-50.192 37.258-.016 0-20.658-35.793-29.97-42.53zM197.627 53.52s17.54 7.116 30.575 19.025c0 0 26.844-18.309 35.568-19.025 0 0-15.128-27.792-27.306-38.395 0 0-30.929 25.114-38.837 38.395zM95.622 36.6S105.707 63.76 105 74.769a40.014 40.014 0 0 0 23.6-6.805 26.605 26.605 0 0 1 22.768-3.705s-4.203-27.05 0-34.9c0 0-2.724-3.52-17.65-3.26-14.926.262-32.777 10.292-38.097 10.503zM38.337 60.24c.748-.218 29.104 21.544 40.013 23.843 0 0-25.574 35.001-45.661 48.736 0 0-15.868-29.703-31.752-35.413 0 0 13.581-30.428 37.4-37.165z" fill="#000" fill-opacity=".7"/>
    <path d="M152.251 52.274a213.836 213.836 0 0 1-7.816-41.081.844.844 0 0 0-.462-.556c-20.348-8.952-31.366 15.9-50.881 10.594-.278-.067-.429 0-.328.253a252.002 252.002 0 0 1 16.389 46.219.968.968 0 0 0 .504.59c17.372 6.998 25.768-19.489 42.308-15.766.21.067.345-.06.286-.253z" fill="#fff"/>
    <path fill-rule="evenodd" clip-rule="evenodd" d="M132.086 60.85c6.012-5.031 12.028-10.065 19.879-8.298.21.042.345-.084.286-.278a213.839 213.839 0 0 1-7.816-41.081.844.844 0 0 0-.462-.556c-10.743-4.727-18.885-.03-27.051 4.68-7.3 4.21-14.618 8.432-23.83 5.94-.278-.068-.429.042-.328.252a252 252 0 0 1 16.389 46.219.968.968 0 0 0 .504.59c9.126 3.662 15.775-1.901 22.429-7.468zm-.27-.75c-6.537 5.456-13.072 10.91-21.966 7.569a260.313 260.313 0 0 0-15.918-45.545c8.939 2.274 16.082-1.878 23.22-6.028 7.983-4.64 15.959-9.277 26.434-4.92a223.077 223.077 0 0 0 7.766 40.626c-7.687-1.589-13.613 3.356-19.536 8.299z" fill="#263238"/>
    <path d="M145.418 22.78c-18.683-7.529-28.348 17.686-46.62 11.69-1.72-4.3-3.563-8.576-5.53-12.826 19.482 5.305 30.45-19.556 50.738-10.645.364 3.952.835 7.88 1.412 11.782z" fill="#3087DF"/>
    <path fill-rule="evenodd" clip-rule="evenodd" d="M121.606 28.742c7.283-4.79 14.555-9.573 24.274-5.448a200.541 200.541 0 0 1-1.445-12.464c-9.506-4.64-18.591-.817-26.315 3.706-.963.54-1.906 1.09-2.841 1.634-6.818 3.973-13.124 7.647-22.675 4.943a257.689 257.689 0 0 1 5.884 13.593c9.156 3.218 16.142-1.377 23.118-5.964zm-.329-.705c-6.753 4.417-13.498 8.828-22.176 6.206v-.034a266.485 266.485 0 0 0-5.152-12.051c8.939 2.274 16.082-1.879 23.22-6.028 7.982-4.64 15.958-9.278 26.434-4.92a188.21 188.21 0 0 0 1.353 11.09c-9.42-3.588-16.554 1.077-23.679 5.737z" fill="#263238"/>
    <path d="m110.859 29.846.294-.117c.261-.118.437-.329.286-.843a161.942 161.942 0 0 0-1.589-4.64c.286-.135.572-.261.841-.404.513 1.541 1.025 3.074 1.529 4.615.404 1.23-.058 1.827-.689 2.105-.13.063-.265.117-.403.16-.076-.294-.177-.59-.269-.876z" fill="#263238"/>
    <path fill-rule="evenodd" clip-rule="evenodd" d="m115.095 28.685.84-.48a219.92 219.92 0 0 0-2.79-5.643 29.2 29.2 0 0 1-1.235.665c.392 2.196.776 4.388 1.151 6.578l.756-.396-.109-.594c-.036-.198-.071-.396-.109-.594l1.008-.564c.105.227.214.454.322.679l.166.349zm-.841-1.76-.79.437-.596-3.326c.47.96.933 1.928 1.386 2.888z" fill="#263238"/>
    <path d="M115.734 23.084c.453 1.474.907 2.956 1.353 4.43l-.723.454c-.63-2.046-1.261-4.084-1.9-6.13l1.051-.624a296.747 296.747 0 0 1 1.941 3.15c-.361-1.221-.731-2.442-1.101-3.663l.757-.464c.597 2.038 1.202 4.076 1.79 6.115l-.84.53c-.79-1.263-1.566-2.53-2.328-3.798zM118.473 19.37c.454 1.578.902 3.147 1.345 4.708.126.438.336.488.597.32a.7.7 0 0 0 .26-.842 377.977 377.977 0 0 1-1.319-4.691l.84-.488c.429 1.54.841 3.09 1.269 4.631a1.93 1.93 0 0 1-.798 2.308c-.79.522-1.37.227-1.681-.75-.454-1.55-.899-3.099-1.353-4.648l.84-.548z" fill="#263238"/>
    <path fill-rule="evenodd" clip-rule="evenodd" d="M125.096 22.469a2223.4 2223.4 0 0 0-2.412-5.558l-1.277.715c.246 2.196.504 4.391.773 6.586l.765-.471-.152-1.188 1.026-.615.437 1.02c.269-.169.554-.329.84-.489zm-1.58-1.28-.84.48a63.012 63.012 0 0 1-.362-3.31c.404.943.807 1.887 1.202 2.83zM127.021 20.617c.037.248.126.486.26.699l.908-.438a1.68 1.68 0 0 1-.261-.683c-.037-.151-.073-.305-.109-.458-.036-.154-.071-.308-.109-.46-.143-.623-.395-1.002-.883-1.002.359-.397.478-.956.311-1.465-.012-.058-.03-.115-.047-.172-.031-.1-.062-.198-.062-.3-.227-.918-.739-1.212-1.681-.774-.454.21-.899.43-1.344.657.495 2.012.991 4.017 1.496 6.03l.84-.455-.139-.562c-.155-.623-.309-1.241-.458-1.889l.303-.152c.395-.193.622-.075.756.48.067.32.143.632.219.944zm-1.488-2.131a153.82 153.82 0 0 1-.445-1.844l.428-.211c.32-.152.496-.025.597.404.05.194.101.396.143.59a.691.691 0 0 1-.378.892l-.345.169z" fill="#263238"/>
    <path d="M128.945 18.401a315.362 315.362 0 0 0-2.042-3.528c.319-.135.647-.261.967-.38l1.311 2.46c0-.985.075-1.97.126-2.948l.907-.27a144.806 144.806 0 0 0-.353 4.338l.429 1.962-.891.346c-.159-.666-.302-1.323-.454-1.98z" fill="#263238"/>
    <path d="M147.301 48.72c-13.195-.245-21.238 18.426-34.862 16.574a289.88 289.88 0 0 0-7.984-26.023c13.993 1.482 22.894-16.355 37.635-13.939a272.349 272.349 0 0 0 5.211 23.388z" fill="#BFBFBF"/>
    <path fill-rule="evenodd" clip-rule="evenodd" d="M130.826 57.443c5.233-4.313 10.467-8.628 16.945-8.37a267.136 267.136 0 0 1-5.345-24.052c-7.8-1.467-13.979 2.74-20.1 6.906-5.758 3.92-11.464 7.803-18.418 6.897a291.44 291.44 0 0 1 8.254 26.806c7.285 1.194 12.974-3.496 18.664-8.187zm-.28-.742c-5.47 4.495-10.937 8.987-17.83 8.239a309.766 309.766 0 0 0-7.715-25.248c6.582.53 12.042-3.217 17.552-6.997 5.873-4.03 11.803-8.098 19.209-7.068a276.624 276.624 0 0 0 5.085 22.739c-6.188.024-11.246 4.18-16.301 8.334z" fill="#263238"/>
    <path d="M111.792 43.91c10.531-2.804 18.96-15.689 31.147-14.03a273.08 273.08 0 0 0 4.362 18.84c-11.338-.11-18.894 13.474-29.416 16.296a419.955 419.955 0 0 0-6.093-21.105z" fill="#fff"/>
    <path fill-rule="evenodd" clip-rule="evenodd" d="M130.713 57.508c5.27-4.318 10.542-8.637 17.058-8.434a275.782 275.782 0 0 1-4.53-19.488c-7.46-1.21-13.521 3.063-19.493 7.272-4.052 2.857-8.064 5.684-12.444 6.75a403.385 403.385 0 0 1 6.329 21.896c4.766-1.184 8.923-4.59 13.08-7.996zm-.246-.753c-3.942 3.22-7.884 6.44-12.355 7.764a422.243 422.243 0 0 0-5.833-20.296c4.099-1.183 7.882-3.872 11.705-6.59 5.734-4.074 11.556-8.212 18.661-7.424a264.529 264.529 0 0 0 4.202 18.157c-6.215.086-11.297 4.237-16.38 8.389z" fill="#263238"/>
    <path d="M118.255 64.923a9.24 9.24 0 0 1-.689.177 366.362 366.362 0 0 0-7.724-26.107c.244-.06.479-.11.714-.177a459.774 459.774 0 0 1 7.699 26.107zM124.012 62.17l-.622.404a634.177 634.177 0 0 0-7.497-26.04l.656-.37a758.584 758.584 0 0 1 7.463 26.005zM129.433 58.068l-.597.488a2524.759 2524.759 0 0 0-7.177-25.737l.647-.446a3354.88 3354.88 0 0 1 7.127 25.695zM134.795 53.764l-.605.463a1437.287 1437.287 0 0 1-6.673-25.265l.68-.396a1253.267 1253.267 0 0 0 6.598 25.198zM140.409 50.353l-.647.312a517.585 517.585 0 0 1-6.009-24.566c.243-.084.487-.152.731-.22a483.43 483.43 0 0 0 5.925 24.474z" fill="#263238"/>
    <path d="M143.006 30.242c-14.288-1.97-22.902 16.002-36.685 14.41-.085-.27-.177-.53-.269-.842 13.808 1.583 22.448-16.38 36.82-14.317.042.27.092.505.134.75zM143.998 35.043c-13.935-1.533-22.306 16.607-35.946 14.915l-.261-.843c13.666 1.685 22.062-16.43 36.047-14.83.059.278.109.522.16.758zM145.065 39.826c-13.615-1.095-21.851 17.223-35.391 15.454-.076-.27-.16-.539-.235-.842 13.581 1.76 21.801-16.524 35.466-15.361.051.27.11.513.16.75zM146.225 44.593c-13.363-.64-21.457 17.854-35.03 16.001-.067-.27-.143-.539-.218-.842 13.564 1.904 21.666-16.624 35.072-15.883l.176.724z" fill="#263238"/>
    <path d="M264.543 48.358v-.05c-.067-.262-.143-.506-.21-.767l-.218-.842c-.076-.287-.194-.657-.295-.986-.1-.328-.159-.539-.243-.842l-.328-.901-.277-.792c-.11-.311-.236-.623-.353-.926l-.303-.783c-.118-.304-.252-.598-.378-.893l-.328-.767-.403-.892c-.118-.244-.227-.497-.353-.741-.126-.245-.286-.581-.429-.843-.143-.26-.244-.488-.37-.724s-.294-.564-.445-.842c-.151-.278-.261-.48-.387-.716l-.47-.842-.404-.707-.487-.843-.429-.698c-.16-.262-.328-.523-.496-.784-.168-.26-.294-.463-.437-.69-.143-.228-.353-.522-.521-.784a24.068 24.068 0 0 0-.445-.673l-.538-.775-.454-.665-.538-.758-.437-.632-.563-.775-.462-.631-.656-.902-1.017-1.364-.395-.514-.84-1.078-.236-.311-1.059-1.39-.193-.26c-.286-.371-.571-.742-.84-1.12-.143-.186-.286-.363-.421-.548l-.63-.842-.471-.64-.571-.758c-.16-.211-.319-.43-.471-.649-.151-.219-.378-.505-.554-.758l-.479-.657-.538-.75-.471-.681c-.176-.253-.353-.497-.521-.75l-.471-.7-.496-.74c-.159-.236-.319-.48-.47-.724l-.479-.742c-.152-.244-.303-.48-.446-.724-.143-.244-.319-.505-.47-.766-.152-.261-.295-.489-.437-.733l-.454-.775-.42-.758a71.834 71.834 0 0 1-.429-.783l-.395-.766c-.143-.261-.277-.53-.412-.8l-.378-.784c-.16-.345-.328-.682-.488-1.027a365.312 365.312 0 0 1-3.059 2.998l-.21.202a184.18 184.18 0 0 1-2.673 2.527l-.84.766a228.64 228.64 0 0 1-2.084 1.92l-.992.91-1.925 1.802a225.04 225.04 0 0 1-31.693 23.766.465.465 0 0 0-.202.598c8.27 14.983 24.499 24.221 35.425 37.056a.387.387 0 0 0 .547.059 166.859 166.859 0 0 1 26.322-18.528l.79-.455a163.05 163.05 0 0 1 4.11-2.223l.546-.287c1.34-.69 2.681-1.364 4.026-2.02l.631-.312-.11-.421z" fill="#fff"/>
    <path fill-rule="evenodd" clip-rule="evenodd" d="M213.175 58.523c5.109 4.482 10.202 8.95 14.481 13.963a.386.386 0 0 0 .538-.034 167.296 167.296 0 0 1 36.139-23.58.564.564 0 0 0 .21-.624c-2.834-11.501-9.383-20.097-15.916-28.672C244 13.503 239.38 7.44 236.094.362c-.101-.227-.344-.252-.538-.059-13.708 13.618-27.777 25.089-43.123 34.53a.463.463 0 0 0-.202.597c5.031 9.135 13.008 16.132 20.944 23.093zm.554-.63c-7.742-6.832-15.52-13.698-20.531-22.555h.016c15.053-9.365 28.87-20.617 42.367-33.805 3.289 6.873 7.828 12.797 12.375 18.732 6.423 8.383 12.861 16.787 15.814 27.916a176.338 176.338 0 0 0-35.786 23.505c-4.226-4.94-9.233-9.36-14.255-13.792z" fill="#263238"/>
    <path d="M253.626 54.076c-6.724-16.616-21.499-27.042-29.584-42.378A318.761 318.761 0 0 0 235.741.75c7.934 17.003 23.533 28.153 28.474 47.7a191.168 191.168 0 0 0-10.589 5.626z" fill="#3087DF"/>
    <path fill-rule="evenodd" clip-rule="evenodd" d="M237.338 30.744c6.194 7.317 12.408 14.658 16.128 23.93a165.84 165.84 0 0 1 11.187-5.904c-2.77-11.76-9.409-20.469-16.031-29.156-4.713-6.183-9.418-12.354-12.713-19.606-4.11 4.076-8.219 7.967-12.422 11.656 3.669 7.053 8.753 13.058 13.851 19.08zm-12.737-18.998-.013-.023v.034l.013-.011zm0 0c3.607 6.724 8.478 12.513 13.363 18.318 6.045 7.184 12.109 14.39 15.822 23.422 3.3-1.914 6.628-3.7 9.984-5.356-2.953-11.13-9.391-19.533-15.814-27.916-4.547-5.934-9.086-11.859-12.375-18.732a280.909 280.909 0 0 1-10.98 10.264z" fill="#263238"/>
    <path d="m237.145 17.989.781 1.036-.781.648-.782-1.036c-.756.632-1.504 1.255-2.261 1.87l-.605-.783a464.426 464.426 0 0 0 5.471-4.598c.53.732 1.068 1.456 1.606 2.172l-.782.649-1-1.34-1.647 1.382zM239.187 20.389c.277.37.563.733.84 1.095l-.748.59a35.007 35.007 0 0 1-.84-1.079l-1.681 1.33 1.076 1.348-.782.624-1.681-2.123a605.275 605.275 0 0 0 5.472-4.48l1.681 2.215-.782.631-1.076-1.39-1.479 1.239z" fill="#263238"/>
    <path fill-rule="evenodd" clip-rule="evenodd" d="m243.582 23.8-.193.151a1.4 1.4 0 0 1-1.504.346c.151.564-.118 1.044-.706 1.49l-.446.346a1.46 1.46 0 0 1-2.26-.16l-.992-1.213c1.84-1.44 3.664-2.897 5.488-4.363l.958 1.222a1.348 1.348 0 0 1-.345 2.181zm-.781-1.962-1.446 1.145.244.303c.235.295.521.37.958 0l.311-.244c.387-.303.462-.564.235-.842l-.302-.362zm-3.917 3.09 1.681-1.33.252.37c.286.354.253.623-.26 1.028l-.479.37c-.378.295-.622.261-.841 0l-.353-.438zM241.733 28.634c-.241.154-.452.35-.621.581l.672.775c.157-.235.36-.435.597-.59l.84-.631c.572-.43.874-.86.74-1.39.524.201 1.117.08 1.521-.311l.429-.329a1.314 1.314 0 0 0 .336-2.139l-.984-1.221-5.496 4.21.63.767 2.244-1.684c.046.063.096.123.148.184l.071.085c.285.354.218.657-.286 1.045-.269.21-.555.43-.84.648h-.001zm1.749-2.56 1.681-1.289.31.346c.227.294.152.547-.243.842l-.538.413c-.446.362-.731.294-.967 0a4.226 4.226 0 0 0-.243-.312z" fill="#263238"/>
    <path d="m248.188 27.126-4.202 3.125c-.387.286-.404.547-.21.842.193.295.47.295.84 0l4.202-3.082c.202.252.395.513.589.766l-4.202 3.023a1.537 1.537 0 0 1-2.312-.16c-.613-.758-.437-1.524.446-2.172l4.202-3.116.647.774z" fill="#263238"/>
    <path fill-rule="evenodd" clip-rule="evenodd" d="m245.726 34.916.613.843 4.85-4.691c-.292-.41-.586-.814-.883-1.213a380.623 380.623 0 0 0-6.11 3.108l.572.715 1.092-.572.748.968-.882.842zm1.546-1.423-.588-.766c1-.548 2.034-1.061 3.067-1.567l-2.479 2.333zM248.465 37.274a1.997 1.997 0 0 0-.613.53c.179.24.351.486.499.697l.056.079c.16-.216.363-.397.596-.53l.841-.565c.563-.38.874-.783.765-1.322a1.3 1.3 0 0 0 1.462-.186l.429-.286a1.308 1.308 0 0 0 .403-2.097c-.252-.438-.546-.859-.84-1.28a622.157 622.157 0 0 0-5.455 3.773c.202.303.395.573.597.842.731-.514 1.471-1.019 2.21-1.524l.202.286c.269.37.193.665-.311 1.002l-.841.581zm1.74-2.4 1.681-1.145.277.37c.202.337.118.582-.268.843l-.538.362c-.429.294-.706.202-.916-.11l-.236-.32z" fill="#263238"/>
    <path d="m251.046 38.58 2.908-3.461c.196.292.389.595.58.91l-2.051 2.256c.95-.32 1.908-.631 2.857-.935l.505.843a121.1 121.1 0 0 0-4.27 1.212l-1.782 1.196-.563-.842 1.816-1.179z" fill="#263238"/>
    <path d="M228.152 67.07c-9.464-10.577-22.045-18.999-29.92-30.823a266.492 266.492 0 0 0 24.238-18.064c7.606 12.144 19.179 21.433 26.222 34.209a216.345 216.345 0 0 0-20.54 14.679z" fill="#BFBFBF"/>
    <path fill-rule="evenodd" clip-rule="evenodd" d="M215.715 55.557c4.308 3.904 8.609 7.801 12.395 12.053a213.2 213.2 0 0 1 21.103-15.058c-3.819-7.108-9.052-13.136-14.271-19.148-4.416-5.086-8.822-10.161-12.354-15.87a260.957 260.957 0 0 1-24.961 18.638c4.809 7.351 11.457 13.375 18.088 19.385zm.58-.628c-6.353-5.801-12.719-11.613-17.45-18.606a273.52 273.52 0 0 0 23.449-17.542c3.484 5.457 7.756 10.344 12.038 15.24 5.014 5.735 10.041 11.485 13.831 18.185a225.96 225.96 0 0 0-19.969 14.317c-3.661-4.072-7.778-7.83-11.899-11.594z" fill="#263238"/>
    <path d="M221.319 26.756c7.379 9.634 16.859 17.803 23.297 28.28a215.475 215.475 0 0 0-16.464 12.035c-8.136-9.096-18.582-16.591-26.348-26.032a354.68 354.68 0 0 0 19.515-14.283z" fill="#fff"/>
    <path fill-rule="evenodd" clip-rule="evenodd" d="M215.748 55.6c4.296 3.886 8.587 7.767 12.362 12.01a207.584 207.584 0 0 1 17.036-12.448c-3.876-6.466-8.924-12.038-13.959-17.595-3.372-3.722-6.738-7.437-9.742-11.41a349.927 349.927 0 0 1-20.28 14.831c4.283 5.297 9.436 9.958 14.583 14.612zm.551-.666c-4.859-4.437-9.726-8.881-13.865-13.853a378.192 378.192 0 0 0 18.759-13.719c2.923 3.78 6.164 7.333 9.408 10.892 4.824 5.29 9.659 10.592 13.477 16.664a226.193 226.193 0 0 0-15.884 11.605c-3.66-4.07-7.775-7.826-11.895-11.589z" fill="#263238"/>
    <path d="m202.056 41.342-.504-.614a349.192 349.192 0 0 0 24.07-17.914l.479.649a376.216 376.216 0 0 1-24.045 17.88zM206.847 46.606l-.564-.581a561.223 561.223 0 0 0 23.751-17.61l.522.615a694.573 694.573 0 0 1-23.709 17.576zM212.015 51.55l-.596-.548c7.799-5.648 15.57-11.36 23.314-17.138l.529.606a2073.23 2073.23 0 0 1-23.247 17.08zM217.327 56.451l-.597-.547c7.48-5.615 15.044-11.15 22.692-16.608.177.202.345.413.513.615a1053.996 1053.996 0 0 0-22.608 16.54zM222.588 61.344l-.58-.556A433.914 433.914 0 0 1 243.86 44.93c.16.21.311.43.47.649a419.824 419.824 0 0 0-21.742 15.765z" fill="#263238"/>
    <path d="M244.322 55.247c-7.564-12.12-19.154-21.164-26.793-33.047l.731-.59c7.639 11.917 19.229 20.987 26.684 33.207l-.622.43zM240.036 58.152c-8.01-11.597-19.734-20.414-27.399-32.137l.748-.573c7.657 11.79 19.33 20.591 27.29 32.264l-.639.446zM235.834 61.158c-8.497-11.15-20.432-19.79-28.147-31.463l.756-.547c7.699 11.672 19.6 20.338 28.021 31.547l-.63.463zM231.715 64.275c-9.009-10.805-21.255-19.311-29.037-31.017l.765-.53c7.774 11.697 19.96 20.211 28.894 31.067l-.622.48z" fill="#263238"/>
    <path d="M347.462 205.869c-11.531-13.272-19.549-28.482-24.886-45.174a.37.37 0 0 0-.529-.236c-16.633 8.422-32.139 16.844-48.746 24.651a.396.396 0 0 0-.202.539 131.273 131.273 0 0 1 15.229 43.793.496.496 0 0 0 .546.362 106.014 106.014 0 0 0 58.487-23.295.463.463 0 0 0 .101-.64z" fill="#fff"/>
    <path fill-rule="evenodd" clip-rule="evenodd" d="M288.866 229.787a106.004 106.004 0 0 0 58.495-23.278.457.457 0 0 0 .184-.308.457.457 0 0 0-.092-.348c-11.53-13.273-19.548-28.483-24.885-45.175a.372.372 0 0 0-.53-.235c-5.54 2.804-10.953 5.609-16.321 8.392-10.77 5.582-21.358 11.07-32.425 16.258a.394.394 0 0 0-.201.539 131.28 131.28 0 0 1 15.229 43.793.496.496 0 0 0 .546.362zm57.537-23.656a106.246 106.246 0 0 1-57.151 22.78v.026a136.402 136.402 0 0 0-15.111-43.322c12.018-5.549 23.474-11.501 35.172-17.579 4.174-2.168 8.378-4.353 12.65-6.541 5.379 16.397 13.279 31.405 24.44 44.636z" fill="#263238"/>
    <path d="M327.375 174.65c-15.346 9.02-31.206 16.843-48.023 22.587a147.394 147.394 0 0 0-5.833-11.79c16.582-7.706 32.089-16.136 48.662-24.575a145.724 145.724 0 0 0 5.194 13.778z" fill="#3087DF"/>
    <path fill-rule="evenodd" clip-rule="evenodd" d="M279.108 197.734c17.12-5.718 33.248-13.685 48.813-22.89a142.162 142.162 0 0 1-5.513-14.578c-5.679 2.872-11.223 5.748-16.721 8.599-10.882 5.645-21.584 11.196-32.79 16.438a137.822 137.822 0 0 1 6.211 12.431zm.512-1.005-.033.011.034-.008-.001-.003zm47.209-22.273c-15.118 8.804-30.698 16.556-47.209 22.273a149.265 149.265 0 0 0-5.512-11.089c12.017-5.549 23.473-11.501 35.172-17.579 4.173-2.168 8.377-4.353 12.649-6.541a145.8 145.8 0 0 0 4.9 12.936z" fill="#263238"/>
    <path d="M298.59 183.627c-.46-1.589-.925-3.189-1.395-4.8l1.269-.632 2.84 6.418-.84.412c-.672-1.524-1.353-3.048-2.025-4.564l1.411 4.851-.84.404c-.885-1.387-1.771-2.771-2.656-4.152.673 1.482 1.337 2.97 1.992 4.464l-.798.37a955.562 955.562 0 0 0-2.824-6.291l1.269-.623c.823 1.356 1.714 2.754 2.597 4.143z" fill="#263238"/>
    <path fill-rule="evenodd" clip-rule="evenodd" d="m303.985 183.265.917-.446-3.757-5.98-1.328.674a1950 1950 0 0 0 1.066 3.85c.278 1.002.557 2.004.833 3.005l.841-.404-.353-1.238 1.109-.547.672 1.086zm-1.21-1.895-.84.43-1.017-3.462c.36.581.718 1.168 1.076 1.755l.781 1.277z" fill="#263238"/>
    <path d="m304.834 180.25-3.025-3.73.949-.489 1.967 2.602c-.202-1.103-.403-2.198-.597-3.301l.841-.446c.235 1.639.479 3.279.731 4.918l.933 2.139-.899.455c-.286-.724-.606-1.44-.9-2.148z" fill="#263238"/>
    <path d="M340.595 205.844a107.571 107.571 0 0 1-47.863 19.286 160.703 160.703 0 0 0-7.968-25.518 201.402 201.402 0 0 0 40.93-18.882 154.829 154.829 0 0 0 14.901 25.114z" fill="#BFBFBF"/>
    <path fill-rule="evenodd" clip-rule="evenodd" d="M292.345 225.602a107.22 107.22 0 0 0 48.914-19.682 151.251 151.251 0 0 1-15.413-25.804 206.76 206.76 0 0 1-41.636 19.252 157.087 157.087 0 0 1 8.135 26.234zm47.544-19.842a107.74 107.74 0 0 1-46.821 18.89 164.486 164.486 0 0 0-7.782-24.785 197.475 197.475 0 0 0 40.198-18.528 159.38 159.38 0 0 0 14.405 24.423z" fill="#263238"/>
    <path d="M292.723 202.509a163.717 163.717 0 0 0 35.467-16.734c3.613 7 7.76 13.71 12.405 20.069a107.167 107.167 0 0 1-40.803 18.031 229.998 229.998 0 0 0-7.069-21.366z" fill="#fff"/>
    <path fill-rule="evenodd" clip-rule="evenodd" d="M299.422 224.389a106.874 106.874 0 0 0 41.837-18.469 149.85 149.85 0 0 1-12.892-20.768 166.588 166.588 0 0 1-36.207 17.088 223.515 223.515 0 0 1 7.262 22.149zm40.501-18.638a107.412 107.412 0 0 1-39.795 17.602 239.352 239.352 0 0 0-6.85-20.591 161.086 161.086 0 0 0 34.761-16.381 157.202 157.202 0 0 0 11.884 19.37z" fill="#263238"/>
    <path d="m300.245 223.782-.932.194a225.423 225.423 0 0 0-8.968-26.301l.79-.286a234.31 234.31 0 0 1 9.11 26.393zM308.549 221.669l-.933.269a399.06 399.06 0 0 0-10.278-26.95l.781-.32a443.96 443.96 0 0 1 10.43 27.001zM316.718 218.856l-.916.345a1766.108 1766.108 0 0 0-11.573-27.169l.765-.353a3156.725 3156.725 0 0 1 11.724 27.177zM324.677 215.36l-.882.43a676.424 676.424 0 0 1-12.8-26.95l.748-.379c4.101 9.034 8.413 18 12.934 26.899zM332.367 211.209l-.84.497a290.243 290.243 0 0 1-13.884-26.394l.739-.404a271.938 271.938 0 0 0 13.985 26.301z" fill="#263238"/>
    <path d="M328.367 186.179a161.173 161.173 0 0 1-41.602 18.646 26.942 26.942 0 0 1-.286-.775 165.977 165.977 0 0 0 41.51-18.637l.378.766zM331.258 191.417a137.04 137.04 0 0 1-42.703 18.528l-.261-.783a139.91 139.91 0 0 0 42.519-18.528c.142.261.294.522.445.783zM334.317 196.547a121.972 121.972 0 0 1-44.14 18.62c-.084-.261-.16-.53-.235-.792a123.573 123.573 0 0 0 43.896-18.595l.479.767zM337.612 201.566a112.377 112.377 0 0 1-45.964 18.898l-.202-.842a113.673 113.673 0 0 0 45.662-18.839l.504.783z" fill="#263238"/>
    <path d="M284.529 242.672c-.05-.253-.244-.311-.429-.143-15.909 12.473-32.172-5.39-48.653 4.034a1.02 1.02 0 0 0-.496.606 273.548 273.548 0 0 0-5.085 44.189c0 .211.194.261.446.126 19.792-10.417 39.324 12.313 59.05 5.601a.777.777 0 0 0 .479-.657 291.547 291.547 0 0 0-5.312-53.756z" fill="#fff"/>
    <path fill-rule="evenodd" clip-rule="evenodd" d="M261.593 293.538c9.245 3.36 18.485 6.718 27.769 3.547a.777.777 0 0 0 .479-.657 291.634 291.634 0 0 0-5.312-53.756c-.05-.253-.244-.311-.429-.143-8.338 6.542-16.792 4.725-25.329 2.891-7.716-1.659-15.499-3.331-23.324 1.143a1.02 1.02 0 0 0-.496.606 273.548 273.548 0 0 0-5.085 44.189c-.008.211.194.261.446.126 10.477-5.505 20.882-1.724 31.281 2.054zm-.03-.828c-10.228-3.68-20.458-7.36-30.764-2.219a283.381 283.381 0 0 1 4.917-43.381c7.727-4.213 15.418-2.544 23.062-.885 8.443 1.832 16.827 3.652 25.138-2.483a297.985 297.985 0 0 1 4.967 52.585c-9.14 2.925-18.23-.346-27.32-3.617z" fill="#263238"/>
    <path d="M286.605 257.932c-17.717 11.041-35.492-8.177-53.36 1.424a306.482 306.482 0 0 1 2.126-12.414c16.532-9.432 32.837 8.472 48.814-3.958.913 4.963 1.72 9.946 2.42 14.948z" fill="#3087DF"/>
    <path fill-rule="evenodd" clip-rule="evenodd" d="M259.348 259.428c9.265 2.333 18.507 4.66 27.719-1.327a329.936 329.936 0 0 0-2.622-15.884c-8.453 6.923-17.017 5.077-25.678 3.209-7.838-1.69-15.755-3.397-23.74 1.364a291.18 291.18 0 0 0-2.278 13.18c8.881-5.003 17.75-2.77 26.599-.542zm-.02-.807c-8.516-2.123-17.042-4.249-25.587.137v-.034a372.128 372.128 0 0 1 1.975-11.614c7.727-4.213 15.419-2.544 23.062-.885 8.443 1.832 16.827 3.652 25.138-2.483a320.794 320.794 0 0 1 2.227 14.005c-8.931 5.333-17.867 3.105-26.815.874z" fill="#263238"/>
    <path d="m253.567 253.798.336.075c.311.059.563 0 .58-.454.051-1.525.109-3.041.168-4.565l.941.194c-.042 1.499-.092 3.006-.134 4.505 0 1.205-.714 1.356-1.454 1.205a3.734 3.734 0 0 1-.479-.11 2.893 2.893 0 0 1 .042-.85zM257.097 249.376l-.076 4.657a.624.624 0 0 0 .496.708c.319.067.513 0 .521-.472l.051-4.674.899.202v4.632c0 .968-.513 1.406-1.488 1.171a1.684 1.684 0 0 1-1.445-1.853c0-1.525.075-3.049.117-4.573l.925.202zM260.518 251.818v4.43l-.9-.21v-6.098l1.202.262c.336 1.296.681 2.593 1.025 3.89l-.05-3.688.84.176.127 6.19-1.034-.235c-.387-1.575-.799-3.15-1.21-4.717zM264.417 253.545l1.353.244v.901l-1.361-.261c0 .615.042 1.221.059 1.828l1.731.336v.893a75.923 75.923 0 0 1-2.748-.556l-.152-6.198c.841.168 1.757.337 2.639.472 0 .303 0 .597.042.901l-1.68-.295c.084.573.1 1.154.117 1.735z" fill="#263238"/>
    <path d="M284.756 293.632c-16.557 2.367-33.13-12.565-49.822-7.807.353-8.144 1.059-16.287 2.051-24.423 15.246-4.665 30.609 8.211 46.149 3.091a319.488 319.488 0 0 1 1.622 29.139z" fill="#BFBFBF"/>
    <path fill-rule="evenodd" clip-rule="evenodd" d="M261.543 289.805c7.906 2.739 15.799 5.474 23.692 4.198-.084-10.114-.689-20.12-1.723-30.125-8.044 2.857-16.03.795-23.976-1.256-7.678-1.983-15.318-3.955-22.938-1.472-1.059 8.396-1.79 16.776-2.143 25.198 9.059-2.79 18.082.336 27.088 3.457zm-.025-.814c-8.68-2.978-17.375-5.962-26.096-3.662a297.96 297.96 0 0 1 1.941-23.682c7.391-2.098 14.814-.164 22.274 1.78 7.664 1.996 15.367 4.003 23.11 1.656.908 9.331 1.446 18.721 1.538 28.17-7.583.948-15.169-1.655-22.767-4.262z" fill="#263238"/>
    <path d="M243.061 265.133c13.288-.396 27.021 8.977 40.586 4.943a313.875 313.875 0 0 1 1.109 23.581c-14.288 2.097-28.432-8.8-42.821-8.716.219-6.614.594-13.217 1.126-19.808z" fill="#fff"/>
    <path fill-rule="evenodd" clip-rule="evenodd" d="M261.642 289.828c7.863 2.743 15.706 5.48 23.593 4.175a312.55 312.55 0 0 0-1.185-24.516c-8.019 2.594-16.105.38-24.125-1.816-5.808-1.59-11.58-3.17-17.267-2.909a413.877 413.877 0 0 0-1.202 20.533c6.77-.148 13.486 2.195 20.186 4.533zm-.023-.814c-6.378-2.203-12.77-4.412-19.205-4.477.208-6.339.561-12.683 1.059-19.033 5.451-.074 10.976 1.45 16.533 2.984 7.723 2.131 15.509 4.279 23.246 2.178.61 7.495.955 15.024 1.033 22.587-7.566.978-15.106-1.627-22.666-4.239z" fill="#263238"/>
    <path d="M242.397 284.915h-.932a409.16 409.16 0 0 1 1.58-24.507h.84a455.525 455.525 0 0 0-1.488 24.507zM250.701 286.061l-.933-.21c.14-8.276.42-16.572.841-24.887l.84.152a952.866 952.866 0 0 0-.748 24.945zM258.988 288.504l-.925-.312c.034-8.5.084-17.012.152-25.535l.84.219c-.011 8.557-.033 17.099-.067 25.628zM267.25 291.299l-.925-.303c0-8.809-.14-17.624-.42-26.444l.84.185c.303 8.86.471 17.714.505 26.562zM275.477 293.439l-.899-.186c0-9.213-.353-18.401-.899-27.564h.84c.589 9.264.9 18.494.958 27.75z" fill="#263238"/>
    <path d="M283.689 270.515c-15.91 4.581-31.652-8.709-47.284-4.043l.076-.758c15.59-4.665 31.273 8.565 47.132 3.899l.076.902zM284.126 276.477c-16.196 4.042-32.24-9.668-48.217-4.994 0-.253.042-.505.067-.758 15.969-4.674 31.937 8.978 48.091 4.851.017.303.042.598.059.901zM284.453 282.44c-16.397 3.478-32.685-10.654-48.964-5.963 0-.244.042-.497.059-.749 16.229-4.691 32.492 9.373 48.863 5.811.017.303.026.598.042.901zM284.664 288.419c-16.515 2.897-32.988-11.664-49.503-6.939v-.758c16.481-4.717 32.929 9.777 49.435 6.796.068.303.068.606.068.901z" fill="#263238"/>
    <path d="M58.894 237.367c-.042-.253-.235-.303-.429-.135-15.91 12.473-32.163-5.39-48.653 4.026-.236.13-.41.348-.488.606a274.47 274.47 0 0 0-5.093 44.197c0 .211.202.261.454.126 19.784-10.426 39.325 12.305 59.05 5.593a.785.785 0 0 0 .48-.657 292.431 292.431 0 0 0-5.32-53.756z" fill="#fff"/>
    <path fill-rule="evenodd" clip-rule="evenodd" d="M35.966 288.234c9.245 3.359 18.487 6.716 27.769 3.545a.783.783 0 0 0 .48-.64 292.44 292.44 0 0 0-5.32-53.756c-.043-.252-.236-.303-.43-.134-8.338 6.537-16.79 4.721-25.325 2.886-7.716-1.658-15.5-3.331-23.328 1.139-.236.13-.41.348-.488.606a274.479 274.479 0 0 0-5.093 44.181c0 .21.202.261.454.126 10.474-5.511 20.88-1.731 31.28 2.047zm-.018-.825c-10.235-3.681-20.478-7.365-30.784-2.224a282.42 282.42 0 0 1 4.925-43.372c7.723-4.214 15.414-2.544 23.058-.886 8.443 1.833 16.828 3.653 25.134-2.483a297.877 297.877 0 0 1 4.975 52.577c-9.123 2.929-18.213-.341-27.308-3.612z" fill="#263238"/>
    <path d="M60.978 252.627c-17.725 11.049-35.492-8.169-53.36 1.432.622-4.144 1.331-8.285 2.127-12.422 16.523-9.424 32.87 8.48 48.838-3.967.902 4.974 1.7 9.96 2.395 14.957z" fill="#3087DF"/>
    <path fill-rule="evenodd" clip-rule="evenodd" d="M33.714 254.154c9.266 2.334 18.51 4.663 27.727-1.325a316.122 316.122 0 0 0-2.631-15.892c-8.454 6.928-17.019 5.08-25.68 3.211-7.838-1.691-15.754-3.399-23.738 1.362a307.27 307.27 0 0 0-2.278 13.18c8.884-4.998 17.752-2.764 26.6-.536zm.03-.83c-8.516-2.123-17.043-4.249-25.588.136.56-3.885 1.219-7.767 1.975-11.647 7.724-4.214 15.415-2.544 23.058-.885 8.443 1.832 16.828 3.652 25.133-2.483a326.166 326.166 0 0 1 2.236 14.005c-8.931 5.333-17.867 3.105-26.815.874z" fill="#263238"/>
    <path fill-rule="evenodd" clip-rule="evenodd" d="M23.225 243.018a1.308 1.308 0 0 0-.445 1.061l-.252 3.04a1.399 1.399 0 0 0 1.378 1.634 1.23 1.23 0 0 0 1.572-1.272c.03-.53.063-1.06.095-1.589l.09-1.485a1.42 1.42 0 0 0-1.328-1.684 1.301 1.301 0 0 0-1.11.295zm.74 4.901c-.31-.034-.47-.219-.47-.64.075-1.053.16-2.114.243-3.175.025-.413.227-.556.53-.522.302.034.453.219.453.64-.075 1.061-.15 2.122-.218 3.183-.025.421-.227.548-.538.514z" fill="#263238"/>
    <path d="M28.957 247.33v.791a1.129 1.129 0 0 1-1.52 1.205 1.55 1.55 0 0 1-1.388-1.752l.177-3.083c.05-.943.563-1.414 1.487-1.246a1.56 1.56 0 0 1 1.353 1.769v.581l-.907-.177v-.64c0-.43-.168-.623-.47-.682-.303-.059-.497.075-.522.497L27 247.776a.557.557 0 0 0 .48.674c.31.059.512-.051.529-.48v-.843l.95.203zM29.386 243.641c.975.193 1.958.404 2.933.623v.842l-1-.227a1587.32 1587.32 0 0 0-.092 5.171l-.992-.228c.045-1.684.09-3.399.134-5.146l-1-.21.017-.825z" fill="#263238"/>
    <path fill-rule="evenodd" clip-rule="evenodd" d="M34.11 244.592c-.942-.21-1.463.236-1.463 1.205a98.449 98.449 0 0 1-.067 3.149 1.81 1.81 0 0 0 1.496 1.887c.983.236 1.504-.127 1.504-1.188v-3.192a1.776 1.776 0 0 0-1.47-1.861zm0 5.365a.64.64 0 0 1-.513-.716c.004-.548.006-1.097.008-1.646.002-.548.004-1.096.008-1.647.009-.429.202-.556.505-.488.302.067.504.278.504.715v3.302c.008.48-.193.556-.513.48zM39.118 247.119a1.818 1.818 0 0 0 0 .219c0 .648-.16 1.01-.596 1.128.513.309.813.876.781 1.474v.505c0 .969-.479 1.382-1.479 1.163l-1.58-.354c0-1.31-.024-2.62-.048-3.927-.013-.744-.027-1.487-.036-2.229l1.454.294a1.612 1.612 0 0 1 1.504 1.727zm-1.958-.927v1.643l.378.076c.37.075.589-.043.572-.539v-.346c0-.438-.168-.665-.513-.732l-.437-.102zm.059 4.43v-1.903l.42.143c.454.051.656.261.656.842v.539c.017.506-.168.573-.496.506l-.58-.127z" fill="#263238"/>
    <path d="M40.833 248.618c.454.076.9.143 1.353.202l.05.91-1.37-.211c0 .615.06 1.23.084 1.844.572.101 1.152.194 1.732.27l.05.909a59.526 59.526 0 0 1-2.756-.471 711.738 711.738 0 0 0-.236-6.258c.84.144 1.765.278 2.648.379l.05.91a53.349 53.349 0 0 1-1.68-.236l.075 1.752z" fill="#263238"/>
    <path fill-rule="evenodd" clip-rule="evenodd" d="M45.32 252.029c-.004.273.044.545.144.8l1 .109a2.105 2.105 0 0 1-.168-.791c-.068-.337-.068-.666-.068-.994a1.5 1.5 0 0 0-.764-1.407c.428-.185.605-.606.554-1.271v-.506a1.475 1.475 0 0 0-1.563-1.549 42.39 42.39 0 0 1-1.462-.127c.123 2.123.243 4.245.361 6.367l1.009.127-.012-.208c-.047-.809-.094-1.627-.148-2.403h.345c.453 0 .706.244.706.842.067.337.067.674.067 1.011zm-1.167-2.822-.127-1.97.471.008c.345.017.538.227.538.691l.05.631c.034.514-.176.64-.546.64h-.386z" fill="#263238"/>
    <path d="M59.13 288.335c-16.566 2.366-33.14-12.565-49.822-7.807a303.211 303.211 0 0 1 2.05-24.423c15.238-4.657 30.61 8.211 46.14 3.099a319.167 319.167 0 0 1 1.631 29.131z" fill="#BFBFBF"/>
    <path fill-rule="evenodd" clip-rule="evenodd" d="M35.9 284.5c7.908 2.74 15.807 5.477 23.7 4.206-.084-10.115-.68-20.154-1.723-30.133-8.046 2.861-16.03.798-23.977-1.255-7.675-1.983-15.314-3.957-22.937-1.474-1.05 8.397-1.781 16.776-2.134 25.198 9.04-2.79 18.061.336 27.07 3.458zm-.014-.809c-8.68-2.978-17.375-5.963-26.1-3.668.345-7.891 1.018-15.782 1.95-23.674 7.389-2.097 14.808-.164 22.264 1.777 7.666 1.997 15.37 4.003 23.12 1.651.908 9.34 1.438 18.73 1.539 28.179-7.584.948-15.172-1.656-22.773-4.265z" fill="#263238"/>
    <path d="M17.401 259.827c13.28-.387 27.02 8.986 40.585 4.952a323.177 323.177 0 0 1 1.11 23.581c-14.288 2.097-28.441-8.801-42.863-8.725.263-6.603.653-13.205 1.168-19.808z" fill="#fff"/>
    <path fill-rule="evenodd" clip-rule="evenodd" d="M36.013 284.527c7.863 2.745 15.706 5.483 23.587 4.178a311.289 311.289 0 0 0-1.185-24.524c-8.02 2.599-16.106.386-24.125-1.809-5.804-1.589-11.574-3.169-17.259-2.907-.577 6.85-.98 13.691-1.21 20.524 6.771-.147 13.49 2.198 20.192 4.538zm-.024-.812c-6.38-2.203-12.774-4.41-19.21-4.476a452.15 452.15 0 0 1 1.06-19.033c5.44-.074 10.957 1.447 16.51 2.978 7.724 2.13 15.517 4.278 23.268 2.176.605 7.496.966 15.016 1.042 22.596-7.57.973-15.111-1.631-22.67-4.241z" fill="#263238"/>
    <path d="M16.77 279.618h-.932c.274-8.163.798-16.335 1.572-24.515h.84a461.217 461.217 0 0 0-1.48 24.515zM25.066 280.764l-.941-.219c.151-8.282.431-16.574.84-24.878.286.042.572.093.84.152-.352 8.331-.599 16.647-.739 24.945zM33.37 283.206l-.933-.311c.033-8.495.087-17.009.16-25.543l.84.227a4894.57 4894.57 0 0 0-.067 25.627zM41.623 286.002l-.933-.328c0-8.809-.137-17.624-.412-26.445l.84.186c.303 8.871.471 17.733.505 26.587zM49.85 288.141l-.924-.168a491.06 491.06 0 0 0-.907-27.573l.84.042c.614 9.23.95 18.444.992 27.699z" fill="#263238"/>
    <path d="M58.054 265.226c-15.902 4.589-31.643-8.709-47.284-4.043 0-.253.059-.505.084-.758 15.582-4.657 31.273 8.574 47.124 3.908l.076.893zM58.49 271.18c-16.186 4.042-32.23-9.677-48.216-4.994 0-.253.05-.506.067-.758 15.969-4.674 31.937 8.977 48.09 4.851.026.294.043.598.06.901zM58.818 277.142c-16.397 3.478-32.685-10.653-48.98-5.962l.05-.75c16.237-4.699 32.491 9.374 48.863 5.811.042.303.059.598.067.901zM59.037 283.147c-16.523 2.889-32.996-11.664-49.51-6.939v-.758c16.489-4.725 32.936 9.777 49.443 6.796l.067.901z" fill="#263238"/>
    <path d="M72.736 82.323a318.908 318.908 0 0 1-39.694-32.685.47.47 0 0 0-.597-.06A226.903 226.903 0 0 0 .088 78.214a.447.447 0 0 0 .05.59A345.887 345.887 0 0 1 34.37 122.78a.394.394 0 0 0 .605.059 286.58 286.58 0 0 0 37.82-39.911.413.413 0 0 0-.059-.606z" fill="#fff"/>
    <path fill-rule="evenodd" clip-rule="evenodd" d="M.138 78.802a345.887 345.887 0 0 1 34.232 43.979c.136.164.378.19.546.059a286.574 286.574 0 0 0 37.82-39.911.413.413 0 0 0 0-.606 318.908 318.908 0 0 1-39.694-32.685.47.47 0 0 0-.597-.06A226.903 226.903 0 0 0 .088 78.214a.447.447 0 0 0 .05.59zm34.702 42.985A359.953 359.953 0 0 0 .937 78.583a235.368 235.368 0 0 1 31.785-28.22A331.984 331.984 0 0 0 71.82 82.827a293.402 293.402 0 0 1-36.98 38.959z" fill="#263238"/>
    <path d="M62.584 94.618a831.22 831.22 0 0 1-39.569-37.24 234.344 234.344 0 0 1 9.724-7.513A325.657 325.657 0 0 0 72.442 82.71a283.141 283.141 0 0 1-9.858 11.908z" fill="#3087DF"/>
    <path fill-rule="evenodd" clip-rule="evenodd" d="M22.444 57.31A851.83 851.83 0 0 0 62.6 95.267a307.193 307.193 0 0 0 10.506-12.709A318.937 318.937 0 0 1 32.765 49.36a246.901 246.901 0 0 0-10.321 7.95zm40.123 36.677a811.611 811.611 0 0 1-38.963-36.542c2.97-2.426 6.009-4.787 9.118-7.083a331.983 331.983 0 0 0 39.09 32.466 289.363 289.363 0 0 1-9.245 11.159z" fill="#263238"/>
    <path fill-rule="evenodd" clip-rule="evenodd" d="m39.488 61.31-1.151-1.07c-1.488 1.264-2.959 2.544-4.43 3.824l1.169 1.12a1.444 1.444 0 0 0 2.185.076l2.227-1.988a1.154 1.154 0 0 0 0-1.962zm-4.21 2.872 3.134-2.72.463.362c.235.219.26.446-.05.724l-2.295 2.03a.52.52 0 0 1-.84 0l-.412-.396z" fill="#263238"/>
    <path d="m39.934 65.075 1 .934-.63.573-1.018-.943-1.285 1.17 1.285 1.196-.63.582-2.009-1.879c1.463-1.319 2.93-2.633 4.404-3.94l2.017 1.818-.63.573-1.277-1.154-1.227 1.07zM42.934 69.488l-.58.547a1.46 1.46 0 0 1-2.219 0 1.255 1.255 0 0 1 0-2.055l2.278-2.113a1.503 1.503 0 0 1 2.21 0 1.222 1.222 0 0 1 0 2.03l-.42.403-.706-.64.47-.438c.312-.294.278-.538 0-.757a.546.546 0 0 0-.84.058c-.84.733-1.588 1.474-2.37 2.207-.32.295-.277.539 0 .758a.529.529 0 0 0 .84 0l.623-.59.714.59zM45.044 69.715l1.033.918c-.21.202-.42.404-.622.615l-1.033-.935-1.286 1.238 1.302 1.188-.63.606c-.69-.623-1.37-1.255-2.05-1.887l4.386-4.21c.681.597 1.362 1.195 2.051 1.785l-.63.615-1.294-1.146-1.227 1.213zM47.136 73.96c1.21-.888 2.42-1.78 3.63-2.679l1.06.901-4.396 4.472-.722-.648c1.05-1.061 2.11-2.122 3.151-3.183-1.218.91-2.446 1.819-3.664 2.711l-.715-.648c.84-1.196 1.681-2.383 2.522-3.57L44.9 74.38l-.664-.607 4.395-4.303 1.05.91-2.546 3.579z" fill="#263238"/>
    <path fill-rule="evenodd" clip-rule="evenodd" d="m53.675 75.644-.151.16a1.31 1.31 0 0 1-1.379.505c.246.52.09 1.14-.37 1.483l-.352.379a1.428 1.428 0 0 1-2.21.05l-1.203-1.07c1.474-1.498 2.942-3 4.404-4.505.378.328.765.648 1.152.969a1.196 1.196 0 0 1 .109 2.03zm-1.143-1.684-1.16 1.17.294.253c.286.244.58.278.933-.093l.244-.252c.31-.329.328-.573.059-.842l-.37-.236zm-3.143 3.242 1.353-1.39.31.295c.387.303.404.556 0 .986l-.386.395c-.336.346-.588.329-.84.102l-.437-.388z" fill="#263238"/>
    <path d="m54.137 77.657 1.06.893-.631.682-1.026-.918-1.294 1.381 1.294 1.162-.638.674-2.093-1.853c1.48-1.55 2.953-3.102 4.42-4.657l2.11 1.735-.63.682-1.336-1.103-1.236 1.322z" fill="#263238"/>
    <path fill-rule="evenodd" clip-rule="evenodd" d="M55.465 82.71c-.2.186-.362.41-.479.657l.807.682a1.86 1.86 0 0 1 .462-.674l.69-.758c.428-.514.672-.994.428-1.482.54.105 1.09-.12 1.403-.573l.353-.395a1.24 1.24 0 0 0-.142-2.072l-1.169-.952a602.23 602.23 0 0 1-4.446 4.809l.773.674 1.816-1.963.269.228c.353.294.353.598-.059 1.052l-.706.767zm1.135-2.746 1.361-1.49.378.294c.27.236.253.489-.058.843l-.446.48c-.353.396-.647.37-.933.126l-.302-.253z" fill="#263238"/>
    <path d="M35.454 116.077a419.027 419.027 0 0 0-29.82-36.854 286.94 286.94 0 0 1 17.524-16.515 1449.199 1449.199 0 0 0 33.299 32.491 326.47 326.47 0 0 1-21.003 20.878z" fill="#BFBFBF"/>
    <path fill-rule="evenodd" clip-rule="evenodd" d="M5.047 79.156a412.997 412.997 0 0 1 30.331 37.594 318.171 318.171 0 0 0 21.667-21.585A1380.572 1380.572 0 0 1 23.1 62.152 268.554 268.554 0 0 0 5.047 79.156zm30.525 36.255A431.212 431.212 0 0 0 6.156 79.282a278.732 278.732 0 0 1 17.027-16.085 1532.755 1532.755 0 0 0 32.652 32.002 326.226 326.226 0 0 1-20.263 20.212z" fill="#263238"/>
    <path d="M24.209 70.481a9026.66 9026.66 0 0 0 28.323 28.895 330.973 330.973 0 0 1-17.078 16.701 421.592 421.592 0 0 0-25.44-31.919 394.315 394.315 0 0 1 14.195-13.677z" fill="#fff"/>
    <path fill-rule="evenodd" clip-rule="evenodd" d="M9.459 84.091a412.561 412.561 0 0 1 25.92 32.66 324.51 324.51 0 0 0 17.775-17.357 9439.666 9439.666 0 0 1-28.97-29.477A377.8 377.8 0 0 0 9.458 84.091zm26.079 31.287a436.463 436.463 0 0 0-24.97-31.16 427.389 427.389 0 0 1 13.666-13.18 25113.82 25113.82 0 0 0 27.667 28.339 331.297 331.297 0 0 1-16.363 16.001z" fill="#263238"/>
    <path d="M10.308 84.487a21.916 21.916 0 0 1-.589-.665 350.838 350.838 0 0 1 17.683-16.819c.21.203.412.405.614.615a406.09 406.09 0 0 0-17.708 16.869zM15.426 90.433l-.571-.674a834.686 834.686 0 0 1 18.019-17.323l.613.606a945.897 945.897 0 0 0-18.06 17.39zM20.452 96.488l-.563-.682 18.49-17.955.622.606c-6.18 6.03-12.363 12.04-18.549 18.03zM25.369 102.652c-.185-.235-.37-.463-.547-.699A882.324 882.324 0 0 0 43.917 83.24l.622.598a786.886 786.886 0 0 1-19.17 18.814zM30.184 108.918l-.538-.707A463.789 463.789 0 0 0 49.49 88.605l.63.606a452.598 452.598 0 0 1-19.935 19.707z" fill="#263238"/>
    <path d="M52.212 99.705a16366.293 16366.293 0 0 1-32.87-33.687l.58-.489a7072.111 7072.111 0 0 0 32.946 33.519l-.656.657zM48.002 104.051a1538.777 1538.777 0 0 0-32.307-34.698l.546-.505a2139.97 2139.97 0 0 1 32.4 34.529l-.64.674zM43.707 108.312a853.027 853.027 0 0 0-31.592-35.573l.538-.523a917.923 917.923 0 0 1 31.71 35.456l-.656.64zM39.328 112.497A552.507 552.507 0 0 0 8.602 76.174l.53-.522A586.533 586.533 0 0 1 40 111.866l-.673.631z" fill="#263238"/>
</svg>
