<svg width="441" height="389" fill="none" xmlns="http://www.w3.org/2000/svg">
    <path d="M349.193 97.36S312.297 61.912 257.8 71.712c-54.497 9.8-81.61 51.92-115.375 79.677-17.681 14.502-41.783 18.376-62.026 28.993-64.728 33.853-65.894 122.195-23.165 159.136 36.956 31.97 86.906 39.161 154.715 23.525 67.809-15.637 116.113-24.392 163.62-81.431 47.506-57.039 18.667-136.587-26.376-184.254z" fill="#D0E1F5"/>
    <path d="M90.205 182.605a5.252 5.252 0 0 1 4.765-3.763c.463-.004.922.091 1.345.28a6.234 6.234 0 0 1 4.779-2.58 3.336 3.336 0 0 1 2.578.988 3.355 3.355 0 0 1 .956 2.595c2.024.136 3.204 1.842 2.661 3.935a5.467 5.467 0 0 1-4.965 3.948H89.79a2.084 2.084 0 0 1-1.777-.849 2.096 2.096 0 0 1-.283-1.953 3.945 3.945 0 0 1 2.475-2.601z" fill="#fff"/>
    <path d="M407.497 129.934c.714-2.444 2.878-4.167 5.397-4.299a3.626 3.626 0 0 1 1.524.32 7.046 7.046 0 0 1 5.414-2.948 3.763 3.763 0 0 1 2.921 1.129 3.848 3.848 0 0 1 1.082 2.965c2.294.156 3.631 2.105 3.015 4.496-.732 2.561-2.99 4.372-5.624 4.512h-14.2a2.36 2.36 0 0 1-2.014-.971 2.416 2.416 0 0 1-.32-2.231 4.495 4.495 0 0 1 2.805-2.973z" fill="#D0E1F5"/>
    <path d="M374.848 198.656c1.42-4.886 5.715-8.329 10.718-8.592a7.145 7.145 0 0 1 3.025.638c2.511-3.529 6.47-5.699 10.75-5.891a7.448 7.448 0 0 1 5.801 2.257 7.717 7.717 0 0 1 2.149 5.925c4.554.311 7.209 4.206 5.986 8.985-1.453 5.118-5.936 8.738-11.168 9.017h-28.194a4.67 4.67 0 0 1-3.999-1.94 4.844 4.844 0 0 1-.636-4.459c.811-2.774 2.882-4.984 5.568-5.94z" fill="#fff"/>
    <path d="M337.277 375.728c6.731-11.864 20.761-39.09 22.825-46.33 8.886-31.16 3.864-59.683 0-73.636-3.863-13.952-14.498-36.615-31.854-65.463-17.355-28.848-31.365-68.83-37.618-80.866-6.253-12.036-66.606-44.758-80.118-52.464L197 49.273" stroke="#263238" stroke-width="1.161" stroke-linecap="round" stroke-linejoin="round"/>
    <path d="M426.541 28.818S399.696 56.281 385.32 74.59c-14.376 18.309-52.235 95.399-52.235 95.399s23.008 36.616 32.589 56.833c9.581 20.216 20.131 48.166 20.131 73.223 0 25.058.474 49.141.474 61.177 0 5.247 1.726 10.768 3.675 15.325M349.481 32.498l-1.722 86.938-1.416 2.219-21.82 34.8s-4.431-6.922-13.009-25.477c-9.901-21.433-24.815-56.749-24.326-61.076.489-4.327 39.8-44.265 42.225-47.63" stroke="#263238" stroke-width="1.161" stroke-linecap="round" stroke-linejoin="round"/>
    <path d="M203.558 48.36s70.906 40.015 75.723 40.992c4.816.977-25.556-58.08-25.556-58.08M260.943 29.898s18.36 25.834 20.818 28.268c2.458 2.433 40.667-37.53 40.667-37.53M386.371 6.727 392.666 55 429 19.276M353.579 26.387l5.82 73.613 26.972-41.745L382.615 1M375.794 379s-.857-6.226 3.027-20.767c3.883-14.541 6.466-40.709 4.307-60.233M379.629 308.636c.489 8.747.001 17.513-1.456 26.182M374.894 329.909a93.1 93.1 0 0 1-3.161 21.74c-3.149 11.7-5.857 16.715-5.857 16.715M374.894 254.636s5.331 18.97 6.558 27.818M375.714 284.909s1.227 12.185 1.639 15.546M363.417 224.364l-18.035-32.728M348.661 205.545l-15.576-25.363" stroke="#263238" stroke-width=".774" stroke-linecap="round" stroke-linejoin="round"/>
    <path d="M211.098 174.456c.744 1.929 2.341 3.335 4.258 3.749 3.155.572 7.237-1.708 7.237-1.708a20.187 20.187 0 0 0-6.387-3.812c-1.878-.441-3.832.237-5.108 1.771zM243.941 86.594s-4.149-3.781-9.75-2.335c-5.601 1.446-10.777 7.487-10.777 7.487s7.697 1.89 13.349.945c5.653-.945 7.178-6.097 7.178-6.097zM314.554 234.3s-4.147-3.781-9.745-2.335c-5.598 1.446-10.782 7.487-10.782 7.487s7.703 1.89 13.342.945c5.64-.945 7.185-6.097 7.185-6.097zM205.687 76.544s-4.978 1.888-5.921 7.532c-.943 5.644 2.517 12.983 2.517 12.983s4.714-5.938 6.072-11.36c1.358-5.42-2.668-9.155-2.668-9.155zM234.459 271.844s-4.995 1.898-5.951 7.532c-.955 5.634 2.488 12.983 2.488 12.983s4.731-5.938 6.093-11.359c1.363-5.42-2.63-9.156-2.63-9.156zM303.059 76.806c.743 1.929 2.339 3.335 4.254 3.749 3.152.572 7.241-1.708 7.241-1.708a20.273 20.273 0 0 0-6.392-3.812c-1.876-.44-3.829.237-5.103 1.77zM258.721 67.779c.741 1.927 2.334 3.333 4.248 3.75 3.164.572 7.247-1.709 7.247-1.709a20.205 20.205 0 0 0-6.397-3.812c-1.875-.44-3.826.238-5.098 1.77zM167.581 271.29c.742 1.925 2.335 3.33 4.248 3.747 3.165.562 7.247-1.707 7.247-1.707s-3.35-2.977-6.397-3.82c-1.876-.432-3.825.249-5.098 1.78zM321.123 49.745s1.586 5.425 7.209 6.777c5.624 1.351 13.318-1.906 13.318-1.906s-5.706-5.376-11.103-7.16c-5.397-1.786-9.424 2.289-9.424 2.289zM237.373 37.462s1.586 5.405 7.209 6.752c5.624 1.346 13.318-1.89 13.318-1.89s-5.717-5.404-11.072-7.182c-5.356-1.779-9.455 2.32-9.455 2.32zM359.739 25.576s-.599 5.73 3.932 9.152c4.532 3.422 12.464 3.247 12.464 3.247s-3.047-7.215-7.156-10.987c-4.109-3.772-9.24-1.412-9.24-1.412zM170.044 130.144s-1.161-5.365-6.582-7.069c-5.421-1.703-13.124.901-13.124.901s5.179 5.61 10.318 7.714c5.138 2.105 9.388-1.546 9.388-1.546zM339.186 22.648s-1.151-5.37-6.575-7.072-13.131.91-13.131.91 5.172 5.605 10.323 7.708c5.151 2.103 9.383-1.546 9.383-1.546zM168.402 85.001s-1.161-5.359-6.582-7.06c-5.421-1.702-13.124.91-13.124.91s5.179 5.593 10.317 7.705c5.139 2.112 9.389-1.555 9.389-1.555z" fill="#4788D8"/>
    <path opacity=".3" d="M168.402 85.001s-1.161-5.359-6.582-7.06c-5.421-1.702-13.124.91-13.124.91s5.179 5.593 10.317 7.705c5.139 2.112 9.389-1.555 9.389-1.555z" fill="#000"/>
    <path d="M300.596 156.392s-1.152-5.359-6.576-7.06c-5.424-1.702-13.13.909-13.13.909s5.171 5.594 10.322 7.706c5.152 2.113 9.384-1.555 9.384-1.555z" fill="#4788D8"/>
    <path opacity=".3" d="M300.596 156.392s-1.152-5.359-6.576-7.06c-5.424-1.702-13.13.909-13.13.909s5.171 5.594 10.322 7.706c5.152 2.113 9.384-1.555 9.384-1.555z" fill="#000"/>
    <path d="M241.477 122.671s-5.218-2.479-10.132.389c-4.915 2.868-7.931 10.105-7.931 10.105s8.014-.285 13.138-2.707c5.123-2.422 4.925-7.787 4.925-7.787z" fill="#4788D8"/>
    <path opacity=".3" d="M241.477 122.671s-5.218-2.479-10.132.389c-4.915 2.868-7.931 10.105-7.931 10.105s8.014-.285 13.138-2.707c5.123-2.422 4.925-7.787 4.925-7.787z" fill="#000"/>
    <path d="M403.23 214.45s4.76 3.109 9.961.644c5.201-2.465 8.924-9.652 8.924-9.652s-7.868-.535-13.15 1.455c-5.283 1.99-5.735 7.553-5.735 7.553z" fill="#4788D8"/>
    <path opacity=".3" d="M403.23 214.45s4.76 3.109 9.961.644c5.201-2.465 8.924-9.652 8.924-9.652s-7.868-.535-13.15 1.455c-5.283 1.99-5.735 7.553-5.735 7.553z" fill="#000"/>
    <path d="M422.115 67.565s4.76 3.108 9.961.643c5.2-2.465 8.924-9.651 8.924-9.651s-7.868-.535-13.151 1.455c-5.282 1.99-5.734 7.553-5.734 7.553z" fill="#4788D8"/>
    <path opacity=".3" d="M422.115 67.565s4.76 3.108 9.961.643c5.2-2.465 8.924-9.651 8.924-9.651s-7.868-.535-13.151 1.455c-5.282 1.99-5.734 7.553-5.734 7.553z" fill="#000"/>
    <path d="M281.71 24.205s-5.165-2.489-10.143.39c-4.977 2.879-7.92 10.1-7.92 10.1s8.004-.286 13.127-2.708c5.124-2.423 4.936-7.782 4.936-7.782z" fill="#4788D8"/>
    <path opacity=".3" d="M281.71 24.205s-5.165-2.489-10.143.39c-4.977 2.879-7.92 10.1-7.92 10.1s8.004-.286 13.127-2.708c5.124-2.423 4.936-7.782 4.936-7.782z" fill="#000"/>
    <path d="M247.224 52.105s-5.165-2.489-10.132.39-7.93 10.1-7.93 10.1 8.014-.286 13.137-2.709c5.124-2.422 4.925-7.78 4.925-7.78z" fill="#4788D8"/>
    <path opacity=".3" d="M247.224 52.105s-5.165-2.489-10.132.39-7.93 10.1-7.93 10.1 8.014-.286 13.137-2.709c5.124-2.422 4.925-7.78 4.925-7.78z" fill="#000"/>
    <path d="M223.612 42.9s-3.927 4.093-2.24 9.51c1.688 5.419 8.418 10.184 8.418 10.184s1.79-7.504.614-12.932c-1.177-5.428-6.792-6.762-6.792-6.762z" fill="#4788D8"/>
    <path opacity=".3" d="M223.612 42.9s-3.927 4.093-2.24 9.51c1.688 5.419 8.418 10.184 8.418 10.184s1.79-7.504.614-12.932c-1.177-5.428-6.792-6.762-6.792-6.762z" fill="#000"/>
    <path d="M163.475 35.016s.053 5.67 5.246 8.464c5.194 2.794 13.639 1.65 13.639 1.65s-4.196-6.692-8.97-9.79c-4.774-3.098-9.915-.324-9.915-.324z" fill="#4788D8"/>
    <path opacity=".3" d="M163.475 35.016s.053 5.67 5.246 8.464c5.194 2.794 13.639 1.65 13.639 1.65s-4.196-6.692-8.97-9.79c-4.774-3.098-9.915-.324-9.915-.324z" fill="#000"/>
    <path d="M168.653 60.703s5.47 1.428 9.473-2.549c4.004-3.977 5.055-11.972 5.055-11.972s-7.501 1.984-11.758 5.555c-4.256 3.57-2.77 8.966-2.77 8.966z" fill="#4788D8"/>
    <path opacity=".3" d="M168.653 60.703s5.47 1.428 9.473-2.549c4.004-3.977 5.055-11.972 5.055-11.972s-7.501 1.984-11.758 5.555c-4.256 3.57-2.77 8.966-2.77 8.966z" fill="#000"/>
    <path d="M386.752 86.391s4.804-2.724 4.978-8.588c.175-5.864-4.386-12.747-4.386-12.747s-3.951 6.768-4.581 12.476c-.631 5.709 3.989 8.859 3.989 8.859z" fill="#4788D8"/>
    <path opacity=".3" d="M386.752 86.391s4.804-2.724 4.978-8.588c.175-5.864-4.386-12.747-4.386-12.747s-3.951 6.768-4.581 12.476c-.631 5.709 3.989 8.859 3.989 8.859z" fill="#000"/>
    <path d="M407.336 70.963s-1.217-5.38-6.636-7.022c-5.419-1.642-13.07 1.082-13.07 1.082s5.228 5.566 10.376 7.621c5.147 2.056 9.33-1.681 9.33-1.681z" fill="#4788D8"/>
    <path opacity=".3" d="M407.336 70.963s-1.217-5.38-6.636-7.022c-5.419-1.642-13.07 1.082-13.07 1.082s5.228 5.566 10.376 7.621c5.147 2.056 9.33-1.681 9.33-1.681z" fill="#000"/>
    <path d="M359.713 38.358s.063 5.64 5.246 8.41c5.183 2.771 13.639 1.653 13.639 1.653s-4.102-6.669-8.907-9.802c-4.805-3.132-9.978-.261-9.978-.261z" fill="#4788D8"/>
    <path opacity=".3" d="M359.713 38.358s.063 5.64 5.246 8.41c5.183 2.771 13.639 1.653 13.639 1.653s-4.102-6.669-8.907-9.802c-4.805-3.132-9.978-.261-9.978-.261z" fill="#000"/>
    <path d="M364.087 63.162s5.779 1.439 10.001-2.55c4.222-3.99 5.331-11.968 5.331-11.968s-7.911 1.985-12.411 5.547c-4.499 3.563-2.921 8.97-2.921 8.97z" fill="#4788D8"/>
    <path opacity=".3" d="M364.087 63.162s5.779 1.439 10.001-2.55c4.222-3.99 5.331-11.968 5.331-11.968s-7.911 1.985-12.411 5.547c-4.499 3.563-2.921 8.97-2.921 8.97z" fill="#000"/>
    <path d="M258.721 73.643s.052 5.641 5.245 8.412c5.194 2.77 13.639 1.651 13.639 1.651s-4.102-6.668-8.907-9.8c-4.805-3.134-9.977-.263-9.977-.263z" fill="#4788D8"/>
    <path opacity=".3" d="M258.721 73.643s.052 5.641 5.245 8.412c5.194 2.77 13.639 1.651 13.639 1.651s-4.102-6.668-8.907-9.8c-4.805-3.134-9.977-.263-9.977-.263z" fill="#000"/>
    <path d="M263.073 97.63s5.468 1.429 9.48-2.551c4.012-3.98 5.052-11.97 5.052-11.97s-7.498 1.985-11.753 5.548c-4.254 3.563-2.779 8.973-2.779 8.973z" fill="#4788D8"/>
    <path opacity=".3" d="M263.073 97.63s5.468 1.429 9.48-2.551c4.012-3.98 5.052-11.97 5.052-11.97s-7.498 1.985-11.753 5.548c-4.254 3.563-2.779 8.973-2.779 8.973z" fill="#000"/>
    <path d="M311.27 85.246s-1.623-5.438-7.271-6.754c-5.647-1.316-13.256 2.025-13.256 2.025s5.719 5.357 11.11 7.088c5.391 1.731 9.417-2.36 9.417-2.36z" fill="#4788D8"/>
    <path opacity=".3" d="M311.27 85.246s-1.623-5.438-7.271-6.754c-5.647-1.316-13.256 2.025-13.256 2.025s5.719 5.357 11.11 7.088c5.391 1.731 9.417-2.36 9.417-2.36z" fill="#000"/>
    <path d="M300.994 61.773s-5.682.095-8.442 5.243c-2.759 5.148-1.542 13.631-1.542 13.631s6.677-4.194 9.792-8.986c3.114-4.792.192-9.888.192-9.888z" fill="#4788D8"/>
    <path opacity=".3" d="M300.994 61.773s-5.682.095-8.442 5.243c-2.759 5.148-1.542 13.631-1.542 13.631s6.677-4.194 9.792-8.986c3.114-4.792.192-9.888.192-9.888z" fill="#000"/>
    <path d="M292.385 54.073s-1.623-5.447-7.26-6.763c-5.638-1.316-13.267 2.025-13.267 2.025s5.719 5.356 11.121 7.087c5.401 1.731 9.406-2.349 9.406-2.349z" fill="#4788D8"/>
    <path opacity=".3" d="M292.385 54.073s-1.623-5.447-7.26-6.763c-5.638-1.316-13.267 2.025-13.267 2.025s5.719 5.356 11.121 7.087c5.401 1.731 9.406-2.349 9.406-2.349z" fill="#000"/>
    <path d="M282.109 29.77s-5.686.105-8.438 5.243c-2.752 5.138-1.554 13.631-1.554 13.631s6.682-4.194 9.799-8.975c3.117-4.782.193-9.898.193-9.898z" fill="#4788D8"/>
    <path opacity=".3" d="M282.109 29.77s-5.686.105-8.438 5.243c-2.752 5.138-1.554 13.631-1.554 13.631s6.682-4.194 9.799-8.975c3.117-4.782.193-9.898.193-9.898z" fill="#000"/>
    <path d="M328.512 104.825s.053 5.641 5.246 8.412c5.193 2.77 13.639 1.652 13.639 1.652s-4.102-6.669-8.907-9.802-9.978-.262-9.978-.262z" fill="#4788D8"/>
    <path opacity=".3" d="M328.512 104.825s.053 5.641 5.246 8.412c5.193 2.77 13.639 1.652 13.639 1.652s-4.102-6.669-8.907-9.802-9.978-.262-9.978-.262z" fill="#000"/>
    <path d="M333.686 129.633s5.467 1.429 9.479-2.551c4.012-3.98 5.053-11.97 5.053-11.97s-7.498 1.985-11.753 5.548c-4.254 3.563-2.779 8.973-2.779 8.973z" fill="#4788D8"/>
    <path opacity=".3" d="M333.686 129.633s5.467 1.429 9.479-2.551c4.012-3.98 5.053-11.97 5.053-11.97s-7.498 1.985-11.753 5.548c-4.254 3.563-2.779 8.973-2.779 8.973z" fill="#000"/>
    <path d="M404.05 153.033s-5.165-2.479-10.132.389c-4.967 2.868-7.93 10.104-7.93 10.104s8.014-.285 13.137-2.706c5.124-2.422 4.925-7.787 4.925-7.787z" fill="#4788D8"/>
    <path opacity=".3" d="M404.05 153.033s-5.165-2.479-10.132.389c-4.967 2.868-7.93 10.104-7.93 10.104s8.014-.285 13.137-2.706c5.124-2.422 4.925-7.787 4.925-7.787z" fill="#000"/>
    <path d="M380.437 143.833s-3.926 4.093-2.239 9.51c1.687 5.418 8.414 10.184 8.414 10.184s1.799-7.505.613-12.942c-1.186-5.438-6.788-6.752-6.788-6.752z" fill="#4788D8"/>
    <path opacity=".3" d="M380.437 143.833s-3.926 4.093-2.239 9.51c1.687 5.418 8.414 10.184 8.414 10.184s1.799-7.505.613-12.942c-1.186-5.438-6.788-6.752-6.788-6.752z" fill="#000"/>
    <path fill-rule="evenodd" clip-rule="evenodd" d="M344.934 88.998s-1.197-7.869-4.324-12.617c-3.117-4.748-8.729-3.877-8.729-3.877s-2.031 5.422 1.549 9.963c3.58 4.54 11.504 6.53 11.504 6.53zm0 0s-7.673-.902-12.942.943c-5.269 1.846-5.943 7.651-5.943 7.651s4.525 3.462 9.714 1.11c5.189-2.354 9.171-9.704 9.171-9.704zM352.415 61.773s4.826 2.864 4.244 8.203c-.572 5.387-4.555 11.726-4.555 11.726s-4.796-6.368-4.706-11.843c.091-5.474 5.017-8.086 5.017-8.086zm-.321 19.967s7.414 2.03 12.892 1.146c5.478-.883 7.043-6.144 7.043-6.144s-3.862-3.893-9.391-2.534c-5.528 1.359-10.544 7.532-10.544 7.532zM297.172 44.541s6.283-4.745 8.959-9.836c2.675-5.08-.689-9.858-.689-9.858s-5.645.638-7.926 6.042c-2.28 5.405-.344 13.652-.344 13.652zm0 0s-2.767-7.505-6.81-11.52c-4.054-4.013-9.395-1.944-9.395-1.944s-.912 5.781 3.537 9.492c4.449 3.711 12.668 3.972 12.668 3.972zM251.191 74.082s6.284-4.756 8.959-9.836c2.676-5.08-.689-9.858-.689-9.858s-5.645.617-7.925 6.032c-2.28 5.415-.345 13.662-.345 13.662zm0 0s-2.766-7.505-6.81-11.52c-4.054-4.013-9.395-1.944-9.395-1.944s-.912 5.77 3.537 9.482c4.449 3.71 12.668 3.982 12.668 3.982zM203.708 49.606s-1.196-7.871-4.324-12.62c-3.127-4.75-8.738-3.869-8.738-3.869s-2.041 5.414 1.548 9.956c3.59 4.542 11.514 6.533 11.514 6.533zm0 0s-7.672-.902-12.941.944c-5.27 1.845-5.943 7.653-5.943 7.653s4.515 3.463 9.713 1.11c5.199-2.355 9.171-9.707 9.171-9.707zM385.167 103.134s-2.573 5.096-8.14 4.954c-5.587-.152-12.45-3.654-12.45-3.654s6.18-5.37 11.847-5.716c5.668-.345 8.743 4.416 8.743 4.416zm-20.62 1.3s-1.518 7.644-.171 13.106c1.336 5.451 6.893 6.598 6.893 6.598s3.718-4.263 1.879-9.684c-1.839-5.422-8.601-10.02-8.601-10.02zM214.842 23.206s3.577 4.348 1.368 9.346c-2.209 5.047-7.907 10.005-7.907 10.005s-2.454-7.636-.645-12.994c1.808-5.357 7.184-6.357 7.184-6.357zm-6.539 19.401s6.236 4.278 11.583 5.118c5.356.83 8.455-3.838 8.455-3.838s-2.405-5.018-7.908-5.388c-5.503-.37-12.13 4.108-12.13 4.108zM125.463 138.66c-.208-.036-7.722-1.339-13.045.113-5.397 1.472-6.418 7.107-6.418 7.107s4.326 3.675 9.683 1.695c5.164-1.908 9.463-8.419 9.767-8.887-.257.554-3.319 7.254-3.348 12.613 0 5.625 5.114 8.123 5.114 8.123s4.67-3.219 4.205-8.925c-.465-5.705-5.954-11.848-5.954-11.848l-.004.009zm0 0a.506.506 0 0 1-.013.028.446.446 0 0 0 .017-.027l-.004-.001zM410.404 36.075s3.408-7.1 3.499-12.791c.101-5.69-5.012-8.284-5.012-8.284s-4.689 3.21-4.286 9.004c.403 5.794 5.799 12.07 5.799 12.07zm-20.311-4.106s3.802-4.332 9.157-2.727c5.355 1.595 11.154 6.833 11.154 6.833s-7.372 3.643-12.949 2.5c-5.577-1.142-7.362-6.606-7.362-6.606z" fill="#4788D8"/>
    <path d="M144.547 179.118c-2.072.22-3.899 1.492-4.865 3.388-1.497 3.154-.534 8.1-.534 8.1s3.816-2.664 5.571-5.612a5.95 5.95 0 0 0-.172-5.876z" fill="#4788D8"/>
    <path opacity=".3" d="M144.547 179.118c-2.072.22-3.899 1.492-4.865 3.388-1.497 3.154-.534 8.1-.534 8.1s3.816-2.664 5.571-5.612a5.95 5.95 0 0 0-.172-5.876z" fill="#000"/>
    <path d="M316.976 200.453c-2.073.215-3.903 1.485-4.872 3.382-1.487 3.156-.534 8.106-.534 8.106s3.814-2.666 5.577-5.616a5.955 5.955 0 0 0-.171-5.872z" fill="#4788D8"/>
    <path opacity=".3" d="M316.976 200.453c-2.073.215-3.903 1.485-4.872 3.382-1.487 3.156-.534 8.106-.534 8.106s3.814-2.666 5.577-5.616a5.955 5.955 0 0 0-.171-5.872z" fill="#000"/>
    <path d="M116.638 282.512c-2.075.22-3.905 1.492-4.871 3.388-1.5 3.154-.535 8.1-.535 8.1s3.821-2.664 5.578-5.612a6.003 6.003 0 0 0-.172-5.876z" fill="#4788D8"/>
    <path opacity=".3" d="M116.638 282.512c-2.075.22-3.905 1.492-4.871 3.388-1.5 3.154-.535 8.1-.535 8.1s3.821-2.664 5.578-5.612a6.003 6.003 0 0 0-.172-5.876z" fill="#000"/>
    <path d="M326.87 109.245c-1.912-1.022-4.161-.917-5.988.279-2.917 2.059-4.686 7.229-4.686 7.229s4.734-.204 7.777-1.941c1.807-1.141 2.915-3.27 2.897-5.567z" fill="#4788D8"/>
    <path opacity=".3" d="M326.87 109.245c-1.912-1.022-4.161-.917-5.988.279-2.917 2.059-4.686 7.229-4.686 7.229s4.734-.204 7.777-1.941c1.807-1.141 2.915-3.27 2.897-5.567z" fill="#000"/>
    <path fill="#EBEBEB" d="M0 366.95h28v.1H0zM77 363.95h28v.1H77zM20 370.95h44v.1H20zM292 370.95h34v.1h-34zM262 365.95h19v.1h-19zM118 368.95h77v.1h-77z"/>
    <path d="M32.188 220.878c.76-2.427 3.07-4.136 5.758-4.261a4.175 4.175 0 0 1 1.63.312c1.349-1.755 3.48-2.831 5.782-2.922 1.163-.067 2.3.341 3.119 1.121.819.78 1.239 1.854 1.152 2.946 2.444.157 3.868 2.097 3.211 4.462-.787 2.536-3.196 4.326-6.003 4.461H31.65c-.844.04-1.653-.32-2.155-.958a2.255 2.255 0 0 1-.345-2.217c.451-1.383 1.581-2.478 3.038-2.944z" fill="#fff"/>
    <path d="M97.188 59.878c.76-2.427 3.07-4.136 5.758-4.26a4.17 4.17 0 0 1 1.629.311c1.35-1.755 3.481-2.831 5.782-2.922a4.18 4.18 0 0 1 3.12 1.121c.818.78 1.239 1.854 1.152 2.946 2.444.157 3.868 2.097 3.211 4.462-.787 2.536-3.196 4.326-6.003 4.461H96.65c-.844.04-1.653-.32-2.155-.958a2.255 2.255 0 0 1-.345-2.217c.451-1.383 1.581-2.478 3.038-2.944zM23.013 133.365c1.53-5.622 7.326-10.154 13.007-10.154a9.025 9.025 0 0 1 3.671.738c3.11-4.097 8.12-6.949 13.048-6.949 5.962 0 9.865 4.146 9.642 9.694 5.515.353 8.74 4.974 7.26 10.653C68.094 143.231 62.025 148 56.088 148h-34.2c-4.208 0-6.73-3.376-5.63-7.547a10.692 10.692 0 0 1 6.755-7.088z" fill="#D0E1F5"/>
    <path d="m120.26 134.954 5.408 1.551-5.408-1.551zM131.192 138.086l19.117 5.48-19.117-5.48zM109.332 129.189 94 97l49.801 6.095 42.506 48.163" fill="#4788D8"/>
    <g opacity=".3" fill="#fff">
        <path d="M179.036 147.747a.808.808 0 0 1-.378-.1l-80.755-47.475a.755.755 0 0 1-.263-1.036.742.742 0 0 1 1.029-.273l80.754 47.468a.755.755 0 0 1-.387 1.408v.008z"/>
        <path d="M111.934 128.013a.75.75 0 0 1-.601-.307.765.765 0 0 1 .149-1.06l29.322-22.193a.75.75 0 0 1 1.054.149.76.76 0 0 1-.148 1.06l-29.323 22.21a.74.74 0 0 1-.453.141z"/>
    </g>
    <path d="M262.73 224c-4.281 0-8.036-1.292-10.647-3.685-2.865-2.617-4.224-6.368-5.541-9.995-1.112-3.064-2.257-6.228-4.307-8.712a5.714 5.714 0 0 0-3.359-2.269c-1.367-.215-2.652.348-4.011.952a10.06 10.06 0 0 1-3.442 1.052c-4.166.207-6.587-4.538-7.246-6.004-.28-.646-.543-1.308-.823-1.954-.947-2.377-1.919-4.828-3.87-6.402a3.181 3.181 0 0 0-1.861-.828c-1.285 0-2.158 1.019-3.088 2.137-.931 1.118-1.795 2.178-3.129 2.385-2.569.397-4.118-2.725-4.636-4.083a96.897 96.897 0 0 1-3.566-11.834c-1.202-4.695-2.47-9.556-4.504-14.003l-.132-.29c-1.161-2.484-2.363-5.101-4.611-6.501a13.403 13.403 0 0 0-4.232-1.424 14.553 14.553 0 0 1-3.788-1.184.224.224 0 0 1-.058-.298.213.213 0 0 1 .288-.091c1.173.548 2.414.935 3.689 1.151 1.526.244 3.001.742 4.365 1.474 2.355 1.465 3.639 4.24 4.767 6.691l.14.29c2.075 4.48 3.294 9.357 4.529 14.078.933 4 2.119 7.936 3.549 11.784.502 1.259 1.902 4.14 4.167 3.809 1.169-.182 2.034-1.225 2.865-2.227.947-1.16 1.96-2.344 3.426-2.303.79.066 1.537.392 2.124.928 2.034 1.656 3.039 4.14 4.002 6.575.255.646.519 1.309.824 1.938.617 1.408 2.956 5.954 6.826 5.747a9.84 9.84 0 0 0 3.294-1.01c1.358-.605 2.758-1.218 4.249-.986a6.188 6.188 0 0 1 3.623 2.418c2.099 2.543 3.293 5.747 4.389 8.845 1.292 3.577 2.635 7.279 5.418 9.829 2.783 2.551 6.752 3.743 11.322 3.536a.224.224 0 1 1 0 .439l-1.005.025z" fill="#263238" stroke="#233238" stroke-width=".774"/>
    <path d="m221.152 243.227.882-.14 1.088-.189c.741-.157 1.5-.296 2.249-.494a64.93 64.93 0 0 0 4.525-1.308 59.744 59.744 0 0 0 8.785-3.809c2.274-1.127 4.739-3.348 7.104-5.676 2.365-2.328 4.73-4.936 7.062-7.403l4.467 2.764a58.13 58.13 0 0 1-5.324 9.781 45.527 45.527 0 0 1-3.519 4.549 33.525 33.525 0 0 1-2.142 2.188c-.396.362-.824.716-1.253 1.061-.429.346-.964.724-1.327.954a48.164 48.164 0 0 1-4.945 3.02 46.541 46.541 0 0 1-5.266 2.467 44.567 44.567 0 0 1-5.579 1.827c-.956.246-1.928.46-2.925.633-.503.091-.998.173-1.525.239l-.824.082-.429.041h-.519l-.585-10.587z" fill="#FFB573"/>
    <path d="M220.32 257.022c7.483 4.763 19.35-5.841 19.35-5.841l-2.959-13.351s-14.405-.238-22.638 2.468c-8.052 2.624.107 12.808 6.247 16.724z" fill="#4788D8"/>
    <path d="m250.688 226.601 2.407-5.224 6.551 4.237s-2.044 4.023-6.337 4.245l-2.621-3.258z" fill="#FFB573"/>
    <path d="m259.902 220.217.354.436a3.377 3.377 0 0 1 0 4.229l-.601.732-6.56-4.237 2.043-1.645a3.37 3.37 0 0 1 4.764.485z" fill="#FFB573"/>
    <path fill-rule="evenodd" clip-rule="evenodd" d="M211.378 381.187c-.321.369-1.195.457-2.093.369a11.17 11.17 0 0 1-2.126-.396.164.164 0 0 1-.116-.149.169.169 0 0 1 .099-.176c.107-.08 2.67-1.329 3.799-.881a.848.848 0 0 1 .495.467.696.696 0 0 1-.058.766zm-.552-.898a1.128 1.128 0 0 0-.313-.071 6.982 6.982 0 0 0-2.794.74c1.286.29 3.049.449 3.412 0 .049-.062.099-.159 0-.396a.512.512 0 0 0-.305-.273z" fill="#4788D8"/>
    <path fill-rule="evenodd" clip-rule="evenodd" d="M207.266 381.059h-.074a.133.133 0 0 1-.091-.049.182.182 0 0 1-.058-.157c.017-.115.379-1.933 1.327-2.583.275-.193.618-.265.948-.197.445.082.568.329.568.518.058.823-1.747 2.172-2.62 2.468zm1.986-2.665h-.099a.861.861 0 0 0-.593.148 3.85 3.85 0 0 0-1.113 2.064c.898-.436 2.11-1.513 2.11-1.999 0-.032-.008-.156-.305-.213z" fill="#4788D8"/>
    <path d="m198.761 383.954 6.972.634 2.159-16.066-6.98-.634-2.151 16.066z" fill="#FFB573"/>
    <path d="m206.541 380.022-7.615-.691a.62.62 0 0 0-.643.428l-1.937 6.063a1.02 1.02 0 0 0 .89 1.332c2.753.198 5.167.263 8.629.576 4.038.362 2.967.749 7.697 1.25 2.86.297 3.675-2.903 2.472-3.167-5.48-1.201-5.909-2.92-7.862-5.1a2.471 2.471 0 0 0-1.631-.691z" fill="#263238"/>
    <path opacity=".2" d="m207.892 368.522-1.211 9.032-6.981-.625 1.212-9.033 6.98.626z" fill="#000"/>
    <path d="M221.976 293.457a188.844 188.844 0 0 1-.923 38.515c-2.794 22.014-10.952 41.675-10.952 41.675l-11.612-3.036s2.703-16.526 4.121-38.277c1.574-23.7-5.192-41.131-5.192-41.131l24.558 2.254z" fill="#263238"/>
    <path opacity=".3" d="M201.505 302.834c6.099 1.909 3.758 12.175 1.302 19.061a109.743 109.743 0 0 0-2.2-19.069l.898.008z" fill="#000"/>
    <path fill-rule="evenodd" clip-rule="evenodd" d="M156.855 362.212c-.495-.016-1.088-.658-1.591-1.407a11.71 11.71 0 0 1-1.079-1.9.18.18 0 0 1 .041-.189.164.164 0 0 1 .189 0c.108.049 2.638 1.283 3.033 2.418a.821.821 0 0 1 0 .659.635.635 0 0 1-.593.419zm.305-.971a1.153 1.153 0 0 0-.149-.279v.008a7.428 7.428 0 0 0-2.282-1.736c.585 1.177 1.59 2.641 2.142 2.641.074.008.182-.017.289-.23a.524.524 0 0 0 0-.404z" fill="#4788D8"/>
    <path fill-rule="evenodd" clip-rule="evenodd" d="m154.251 359.035-.05-.051a.184.184 0 0 1-.058-.102.181.181 0 0 1 .083-.144c.074-.043 1.739-.976 2.843-.645.323.09.595.314.75.619.256.416.14.662 0 .798-.577.568-2.744.025-3.568-.475zm3.296-.162-.049-.084h.041a.924.924 0 0 0-.577-.365 3.836 3.836 0 0 0-2.308.466c.915.433 2.539.713 2.893.374.058-.034.14-.119 0-.391z" fill="#4788D8"/>
    <path d="m146.628 354.299 3.947 5.774 13.787-8.555-3.947-5.775-13.787 8.556z" fill="#FFB573"/>
    <path d="m154.613 357.795-4.31-6.31a.61.61 0 0 0-.733-.222l-5.926 2.369a1.02 1.02 0 0 0-.461 1.53c1.599 2.246 3.98 5.446 5.933 8.301 2.291 3.348.61 1.283 3.297 5.207 1.648 2.369 4.475 1.39 4.013.247-2.101-5.191-1.747-6.581-1.31-9.428a2.41 2.41 0 0 0-.503-1.694z" fill="#263238"/>
    <path opacity=".2" d="m164.362 351.518-7.754 4.812-3.956-5.774 7.755-4.813 3.955 5.775z" fill="#000"/>
    <path d="M208.741 292.256s-5.134 20.566-14.884 38.565c-10.672 19.743-32.198 25.995-32.198 25.995l-6.691-10.127s14.125-10.538 21.13-22.655c6.453-22.754 8.595-33.95 8.595-33.95l24.048 2.172z" fill="#263238"/>
    <path d="M164.849 356.857c0 .049-4.558 1.974-4.558 1.974l-7.474-12.339 3.552-2.608 8.48 12.973zM212.351 371.557c.057 0-1.377 4.772-1.377 4.772l-14.282-2.082.248-4.401 15.411 1.711zM226.838 248.311c.388 6.581 1.368 22.211-3.502 47.178l-41.115-3.028c.239-5.281 7.145-23.132 5.472-46.89a6.42 6.42 0 0 1 1.614-4.766 6.443 6.443 0 0 1 4.559-2.144 77.523 77.523 0 0 1 5.867 0c5.305.16 10.596.621 15.848 1.382 2.019.37 3.98.864 5.662 1.341a7.644 7.644 0 0 1 5.595 6.927z" fill="#4788D8"/>
    <path opacity=".3" d="M187.907 255.352c-.09 4.014-.379 7.799-.824 11.319 4.417-4.409 4.945-11.319 4.945-11.319h-4.121z" fill="#000"/>
    <path opacity=".3" fill-rule="evenodd" clip-rule="evenodd" d="m238.392 245.431-.708 6.91-8.785-.691.824-8.399 8.299.65-.141-.641-8.092-.626.478-4.68h-.66l-.478 4.59-8.785-.691.322-3.06c-.128 0-.258.025-.388.05-.08.015-.16.031-.239.04h-.049l-.297 2.912-8.785-.682.173-1.703-.651-.066-.173 1.711-8.793-.683.173-1.645h-.659l-.165 1.645-8.785-.683.066-.748v-.14a4.407 4.407 0 0 0-.668.066l-.041.329-.041.436-.668-.05a6.128 6.128 0 0 0-.824.56l1.401.115-.791 8.391-2.645-.206v.634l2.546.197-.824 8.407-1.722-.14v.634l1.648.132-.824 8.399-1.525-.116c0 .176-.03.357-.059.534l-.015.092 1.533.123-.824 8.399-1.986-.156-.124.625 2.044.148-.824 8.407-2.992-.23-.148.617 3.074.239-.758 7.346.659.049.758-7.338 8.777.683-.75 7.297.643.049.75-7.305 8.785.683-.742 7.264.651.057.742-7.255 8.785.682-.734 7.223.651.05.734-7.223 8.793.691-.198 1.999c.104-.598.201-1.191.298-1.778l.057-.345a278.47 278.47 0 0 0 1.376-9.912c.214-1.851.387-3.628.536-5.323.031-.316.056-.628.081-.937.014-.174.027-.347.042-.519l.012-.143c.045-.575.09-1.137.12-1.691.066-1.004.124-1.983.173-2.929.083-1.546.14-3.011.165-4.401l-.808 7.297-8.785-.683.874-8.366 8.703.674v-.633l-8.645-.675.857-8.415 8.785.683-.577 5.668.478-.107.198-.066.552-5.446 8.612.675c.234-.17.456-.339.662-.497l.244-.186.495-4.804-.454-2.049zm-36.953-4.393 8.802.65-.824 8.408-8.785-.691.807-8.367zm15.452 28.48-8.793-.683-.873 8.424 8.785.691.881-8.432zm-10.301 7.667-8.785-.691.824-8.399 8.785.691-.824 8.399zm-7.887-9.691 8.81.642.841-8.358-8.785-.683-.866 8.399zm.948-9.073.824-8.399 8.793.682-.865 8.4-8.752-.683zm1.129-17.481-8.785-.691-.832 8.399 8.793.691.824-8.399zm-9.708 8.358 8.785.691-.824 8.399-8.777-.683.816-8.407zm7.862 9.731-8.793-.682-.824 8.399 8.793.691.824-8.408zm-9.708 8.367 8.785.691-.865 8.399-8.785-.683.865-8.407zm-1.788 17.407 8.785.691.832-8.432-8.793-.659-.824 8.4zm18.229 1.431-8.793-.691.824-8.407 8.793.691-.824 8.407zm.651.049 8.785.683.865-8.391-8.785-.691-.865 8.399zm18.229 1.415-8.785-.683.824-8.399 8.785.683-.824 8.399zm.956-9.016.824-8.399-8.752-.699-.865 8.415 8.793.683zm-8.546-9.773-8.785-.683.824-8.407 8.785.691-.824 8.399zm-7.87-9.74 8.793.691.816-8.407-8.785-.683-.824 8.399zm9.716-8.358-8.785-.691.824-8.407 8.794.699-.833 8.399zm.651.05 8.794.683.824-8.4-8.794-.691-.824 8.408z" fill="#fff"/>
    <path d="M204.011 226.757c0 4.936-.825 10.53-3.824 12.718 0 0 3.436 6.861 13.4 6.869 7.244 0 3.387-5.059 3.387-5.059-4.706-2.558-4.384-6.153-2.901-9.987l-7.022-6.169c-1.162-1.16-3.04-.173-3.04 1.628z" fill="#FFB573"/>
    <path opacity=".2" d="M204.011 226.757c0-1.801 1.87-2.788 3.04-1.645l7.022 6.162a10.381 10.381 0 0 0-.89 5.347 10.185 10.185 0 0 1-4.78-.996 10.613 10.613 0 0 1-4.681-4.113c.198-1.577.294-3.165.289-4.755z" fill="#000"/>
    <path d="M195.893 220.76c2.472 6.524 3.56 10.481 8.389 12.751 7.261 3.414 15.601-2.468 15.37-9.625-.206-6.474-4.722-16.584-12.872-17.012-8.151-.427-13.376 7.371-10.887 13.886z" fill="#FFB573"/>
    <path d="M191.451 219.477c.404 3.357 5.645 6.145 5.645 6.145l5.2-.46s-3.395-3.291-2.472-7.618-7.862-3.825-8.373 1.933z" fill="#263238"/>
    <path d="M193.511 205.953c-5.859 4.483-3.461 10.102-4.854 14.478 4.005 1.267 10.574-2.254 13.507-3.8.528-.272 1.064-.51 1.558-.823.766-.469.635-3.529.635-3.529s.997 2.04.923 2.698c4.458-2.385 8.323-4.656 9.279-6.474-1.203-5.273-11.035-10.217-21.048-2.55zM214.164 223.459a5.59 5.59 0 0 1-5.118.206.207.207 0 0 1-.083-.272.199.199 0 0 1 .264-.074 5.256 5.256 0 0 0 4.747-.206.198.198 0 0 1 .19.346zM208.716 218.202c.297.543.824.823 1.17.634.347-.19.404-.823.116-1.325-.289-.502-.824-.822-1.179-.633-.354.189-.404.781-.107 1.324zM214.798 215.471c.297.543.824.823 1.17.634.346-.19.404-.823.108-1.333-.297-.51-.825-.823-1.171-.625-.346.197-.404.781-.107 1.324zM206.12 218.827a.361.361 0 0 0 .149-.353 2.89 2.89 0 0 1 .75-2.468.362.362 0 0 0 0-.51.355.355 0 0 0-.511 0 3.598 3.598 0 0 0-.981 3.15.37.37 0 0 0 .412.305.386.386 0 0 0 .181-.124zM217.056 211.753a.29.29 0 0 0 .165-.148.355.355 0 0 0-.115-.494 3.59 3.59 0 0 0-3.297-.304.36.36 0 0 0-.085.65.364.364 0 0 0 .39 0 2.894 2.894 0 0 1 2.604.271.365.365 0 0 0 .338.025z" fill="#263238"/>
    <path d="M213.587 216.631a18.615 18.615 0 0 0 4.186 3.035 3.046 3.046 0 0 1-2.093 1.456l-2.093-4.491z" fill="#ED893E"/>
    <path d="M196.305 227.523a5.676 5.676 0 0 0 3.931 1.39c1.78-.124 1.788-2.016.552-3.505-1.104-1.34-3.362-2.895-4.796-2.031-1.434.863-1.113 2.936.313 4.146zM193.487 251.56l-1.698 1.941-1.739 2.041c-1.162 1.365-2.299 2.755-3.436 4.113a226.572 226.572 0 0 0-6.593 8.588l-.198.272-.05.065v-.041c.034-.096.059-.195.075-.296a1.73 1.73 0 0 0-.042-.897c-.197-.469-.247-.164.066.198.402.493.855.943 1.352 1.341.617.5 1.261.967 1.928 1.398a93.462 93.462 0 0 0 9.329 5.092l-1.426 5.051a46.842 46.842 0 0 1-5.834-1.135 43.454 43.454 0 0 1-5.769-1.9 27.327 27.327 0 0 1-2.926-1.423 15.957 15.957 0 0 1-3.032-2.164 10.798 10.798 0 0 1-1.541-1.76 8.348 8.348 0 0 1-1.27-2.773 7.625 7.625 0 0 1 .058-3.677 8.403 8.403 0 0 1 .626-1.588l.33-.6.181-.321a94.46 94.46 0 0 1 3.033-4.985 119.567 119.567 0 0 1 3.297-4.804 95.757 95.757 0 0 1 3.576-4.615 67.861 67.861 0 0 1 1.904-2.229 76.774 76.774 0 0 1 2.068-2.23l7.731 7.338z" fill="#FFB573"/>
    <path d="m188.163 275.079 5.694-.897.099 7.799s-4.491.526-7.054-2.921l1.261-3.981zM198.646 278.123l-1.27 2.796a2.085 2.085 0 0 1-2.159 1.21l-1.261-.148-.099-7.799 3.495 1.078a2.1 2.1 0 0 1 1.294 2.863z" fill="#FFB573"/>
    <path d="M192.638 238.768c-8.876 0-17.414 14.133-17.414 14.133l8.761 14.133s5.727-6.285 11.216-12.973c5.365-6.548 4.722-15.293-2.563-15.293z" fill="#4788D8"/>
    <path opacity=".3" fill-rule="evenodd" clip-rule="evenodd" d="M197.97 249.232a4.711 4.711 0 0 1-.239.617l-6.708-.502-.825 8.407 1.805.14-.503.592-1.376-.107-.198 1.942c-.247.263-.502.543-.741.822l.288-2.846-8.785-.683-.362 3.529-.561-.896.272-2.682-2.035-.165-.083-.131-.338-.527 2.514.206.824-8.416-2.472-.197c.039-.043.075-.09.107-.14l.074-.082c.099-.123.198-.247.305-.362l2.085.164.296-2.854.206-.214.528-.526-.371 3.644 8.785.683.915-8.416-3.42-.271a14.35 14.35 0 0 1 1.228-.535l2.25.181.082-.765c.099-.05.206-.05.305-.05h.33l-.091.889 4.557.354c.259.197.491.427.692.682l-5.315-.419-.865 8.399 6.84.535zm-17.199 7.757 8.785.691.824-8.407-8.785-.683-.824 8.399z" fill="#fff"/>
    <path d="M111.643 224.475c.215.698.761 1.15 1.216 1.01.456-.14.654-.821.447-1.503-.206-.682-.761-1.15-1.216-1.01-.456.14-.663.813-.447 1.503z" fill="#263238"/>
    <path d="M112.992 225.485a17.727 17.727 0 0 0 3.502 3.342 2.88 2.88 0 0 1-2.144 1.101l-1.358-4.443z" fill="#A02724"/>
    <path d="M108.331 222.865a.448.448 0 0 0 .224-.148 3.426 3.426 0 0 1 2.756-1.412.434.434 0 0 0 .478-.129.425.425 0 0 0-.411-.692 4.264 4.264 0 0 0-3.51 1.741.423.423 0 0 0 .082.599.425.425 0 0 0 .381.041z" fill="#263238"/>
    <path d="M101.585 235.734c-.058 4.566-.779 9.855-3.361 11.891 0 0 .72 4.928 9.172 5.847 9.288.994 4.967-4.336 4.967-4.336-3.941-2.332-3.626-5.683-2.343-9.272l-5.828-5.674c-1.001-1.076-2.591-.132-2.607 1.544z" fill="#B55B52"/>
    <path d="M97.007 248.545c-.406-1.642-.828-3.465.736-3.761 1.739-.329 10.762.517 13.709 2.143a3.453 3.453 0 0 1 1.523 4.542l-15.968-2.924z" fill="#263238"/>
    <path d="M94.498 256.084a9.751 9.751 0 0 0-.828.649l-.935.731a45.213 45.213 0 0 0-1.821 1.544c-1.2 1.059-2.335 2.176-3.419 3.285a40.966 40.966 0 0 0-3.005 3.613 33.096 33.096 0 0 0-2.425 3.893l.297-1.708c.039 1.251.158 2.499.357 3.736.21 1.289.486 2.566.827 3.827a52.415 52.415 0 0 0 1.167 3.844 82.48 82.48 0 0 0 1.424 3.769l.058.131a1.94 1.94 0 0 1-.816 2.372 1.975 1.975 0 0 1-2.495-.392 27.023 27.023 0 0 1-1.424-1.832 39.78 39.78 0 0 1-1.275-1.88 36.045 36.045 0 0 1-2.177-4 31.822 31.822 0 0 1-1.655-4.336 29.7 29.7 0 0 1-1.027-4.673 2.74 2.74 0 0 1 .19-1.47l.108-.238a31.83 31.83 0 0 1 2.674-5.166 36.924 36.924 0 0 1 3.402-4.59 42.563 42.563 0 0 1 3.949-4.049 51.32 51.32 0 0 1 2.16-1.823 23.55 23.55 0 0 1 1.126-.871c.39-.279.762-.542 1.259-.878a3.943 3.943 0 0 1 5.355 1.019 3.873 3.873 0 0 1-.844 5.345l-.207.148z" fill="#B55B52"/>
    <path d="m88.149 280.713-4.835-1.174-2.533 2.981c.969 3.884 5.05 5.042 5.05 5.042l1.705.895a1.882 1.882 0 0 0 2.31-.443l1.863-2.168a1.862 1.862 0 0 0-.232-2.636l-2.575-2.119a1.8 1.8 0 0 0-.753-.378zM105.997 296.76s-4.818 19.152-13.966 35.971C82.015 351.151 55.5 360.464 55.5 360.464l-2.633-4.303s21.217-14.947 28.593-25.032c1.946-17.082 4.14-36.274 4.14-36.274l20.397 1.905z" fill="#B55B52"/>
    <path fill-rule="evenodd" clip-rule="evenodd" d="M59.556 364.028c-.472.025-1.068-.534-1.598-1.183a12.178 12.178 0 0 1-1.068-1.724.164.164 0 0 1 0-.173.16.16 0 0 1 .174 0l.016.007c.23.093 2.556 1.035 2.998 2.038a.815.815 0 0 1 0 .608.594.594 0 0 1-.522.427zm.215-.928a.924.924 0 0 0-.157-.255l-.008.017a6.814 6.814 0 0 0-2.285-1.462c.629 1.051 1.68 2.308 2.202 2.308.066-.008.165-.033.248-.238a.45.45 0 0 0 0-.37z" fill="#4788D8"/>
    <path fill-rule="evenodd" clip-rule="evenodd" d="m56.907 361.362-.05-.046a.188.188 0 0 1-.008-.093c0-.063.027-.122.075-.157.057-.046 1.556-1.127 2.615-.877.308.065.577.269.745.563.207.406.116.665 0 .813-.505.619-2.599.24-3.377-.203zm3.088-.416-.05-.083a.82.82 0 0 0-.497-.333 3.379 3.379 0 0 0-2.127.656c.886.37 2.425.517 2.732.148l.002-.004c.027-.039.092-.134-.06-.384z" fill="#4788D8"/>
    <path d="m57.139 360.078-3.444-4.279a1.216 1.216 0 0 0-1.498-.312l-4.545 2.357a1.176 1.176 0 0 0-.372 1.815c1.431 1.708 3.195 3.687 5.132 6.085 2.376 2.949.654 1.15 3.444 4.607 1.655 2.086 4.288.978 3.774-.049-2.251-4.517-2.11-5.863-1.912-8.393a3.029 3.029 0 0 0-.58-1.831z" fill="#263238"/>
    <path d="M115.434 297.614a114.416 114.416 0 0 1 1.175 35.946c-2.615 20.531-13.344 46.449-13.344 46.449l-5.795-.755s6.01-22.174 7.36-42.434c-2.318-18.724-9.38-40.98-9.38-40.98l19.984 1.774z" fill="#B55B52"/>
    <path fill-rule="evenodd" clip-rule="evenodd" d="M108.48 379.809c-.314.369-1.142.454-1.97.369a11.06 11.06 0 0 1-1.995-.417c-.063-.02-.107-.086-.108-.16-.007-.074.03-.145.091-.171.1-.057 2.509-1.315 3.568-.861a.877.877 0 0 1 .464.464.76.76 0 0 1-.05.776zm-.521-.909a1.283 1.283 0 0 0-.298-.066 6.364 6.364 0 0 0-2.616.748c1.2.293 2.856.454 3.195 0 .05-.057.1-.171 0-.398a.497.497 0 0 0-.281-.284z" fill="#4788D8"/>
    <path fill-rule="evenodd" clip-rule="evenodd" d="M104.614 379.59h-.066a.119.119 0 0 1-.066-.033.155.155 0 0 1-.047-.162c.039-.186.378-1.814 1.247-2.392.254-.181.571-.249.878-.189.422.083.538.304.538.485 0 .739-1.656 2.004-2.484 2.291zm1.863-2.463h-.091v-.042a.837.837 0 0 0-.555.181 3.625 3.625 0 0 0-1.051 1.922c.853-.403 1.987-1.413 1.987-1.864 0-.033-.009-.148-.29-.197z" fill="#4788D8"/>
    <path d="m103.936 378.629-6.035-.542a.97.97 0 0 0-1.019.674l-1.655 5.346a.956.956 0 0 0 .118.815.97.97 0 0 0 .71.425c2.375.173 3.973.181 7.193.468 3.792.345 2.79.707 7.227 1.166 2.691.28 3.452-2.71 2.318-2.956-4.967-1.076-5.505-2.612-7.185-4.533a2.985 2.985 0 0 0-1.672-.863z" fill="#263238"/>
    <path d="M120.326 255.156c1.78 9.617 0 23.34-3.832 42.705l-32.17-3.129c2.36-11.177 6.549-19.71 5.265-42.705a5.166 5.166 0 0 1 1.42-3.851 5.25 5.25 0 0 1 3.796-1.626s11.366 1.043 18.965 2.258c3.326.514 5.958 3.063 6.556 6.348z" fill="#4788D8"/>
    <path fill-rule="evenodd" clip-rule="evenodd" d="M124.383 296.547c-1.06.139-2.558-.961-3.908-2.325a26.047 26.047 0 0 1-2.93-3.556.342.342 0 0 1 0-.402.356.356 0 0 1 .381-.131c.248.065 6.068 1.691 7.343 3.933.257.412.33.913.198 1.38a1.337 1.337 0 0 1-1.084 1.101zm.265-2.136a3.04 3.04 0 0 0-.423-.542c-1.233-1.24-4.014-2.266-5.505-2.775 1.681 2.266 4.371 4.919 5.555 4.73.149-.025.373-.107.505-.591a1.052 1.052 0 0 0-.132-.822z" fill="#4788D8"/>
    <path fill-rule="evenodd" clip-rule="evenodd" d="M117.702 290.806a.46.46 0 0 1-.124-.082.406.406 0 0 1-.132-.205.377.377 0 0 1 .124-.329c.016-.009.058-.04.122-.088.629-.466 3.42-2.532 5.673-2.301a2.668 2.668 0 0 1 1.829.969c.613.772.455 1.314.215 1.642-1.01 1.38-5.852 1.109-7.707.394zm6.929-1.568-.141-.156v-.017a1.873 1.873 0 0 0-1.192-.533c-1.622-.165-3.717 1.141-4.693 1.831 2.094.534 5.62.468 6.233-.353.05-.066.199-.271-.207-.772z" fill="#4788D8"/>
    <path opacity=".2" d="m120.922 260.33-7.135-4.147a70.04 70.04 0 0 0 7.028 13.082c.219-2.973.255-5.957.107-8.935z" fill="#000"/>
    <path d="M118.605 252.676a49.51 49.51 0 0 0 1.572 1.487c.547.501 1.126 1.01 1.714 1.502 1.184.978 2.359 1.963 3.601 2.867a61.202 61.202 0 0 0 7.674 4.976c.662.386 1.349.707 2.028 1.051l.48.239c.05 0 .066.057.124.074.144.065.298.106.456.123a8.408 8.408 0 0 0 3.46-.468 46.246 46.246 0 0 0 8.278-3.745l.116-.058a1.968 1.968 0 0 1 1.933-.291 1.932 1.932 0 0 1 .509 3.322 30.947 30.947 0 0 1-8.427 6.422c-1.87 1-3.945 1.562-6.068 1.642a8.484 8.484 0 0 1-3.022-.525l-.637-.255c-.828-.337-1.656-.649-2.425-1.026a57.284 57.284 0 0 1-9.057-5.199 60.835 60.835 0 0 1-4.139-3.17 65.67 65.67 0 0 1-1.954-1.733 35.729 35.729 0 0 1-1.945-1.93 3.864 3.864 0 0 1 .091-5.494 3.939 3.939 0 0 1 5.538.091l.1.098z" fill="#B55B52"/>
    <path d="m151.643 255.682-1.432.821a10.373 10.373 0 0 0-3.8 3.737l-1.341 2.258 2.144 3.285c4.032.205 6.325-3.334 6.325-3.334l1.713-1.339a1.911 1.911 0 0 0 .431-2.57l-1.441-2.209a1.953 1.953 0 0 0-2.599-.649zM94.35 229.55c2.3 6.093 3.31 9.781 7.599 11.974 6.44 3.285 13.651-1.98 13.319-8.648-.298-6.003-4.006-14.955-11.175-15.505-7.17-.55-12.045 6.093-9.744 12.179z" fill="#B55B52"/>
    <path d="M109.747 229.928s2.632 5.748-.414 8.992c-3.046 3.244-10.993 3.482-12.922 1.84-1.93-1.643-9.545-8.122-6.623-16.86 2.922-8.738 12.152-7.301 12.152-7.301-.24-2.644 6.83-1.716 9.297.756 2.467 2.472-3.096 4.623-3.096 4.623s5.546 2.612 1.606 7.95zM87.164 218.397c-2.31-3.49-6.275-4.344-10.762-2.315-4.917 2.2-6.498 2.069-10.844.821 5.728 7.867 12.251 10.939 17.607 10.224a5.618 5.618 0 0 0 4.504-3.236 5.54 5.54 0 0 0-.505-5.494z" fill="#263238"/>
    <path d="M87.454 221.338c-1.764-2.398-2.21-3.285 1.564-3.688 3.775-.402 3.593.821 2.566 3.228-1.026 2.406-3.054 1.938-4.13.46zM89.523 227.119c-.67 2.825-1.068 3.761-4.139 2.037-3.071-1.725-1.945-2.562.762-3.909s3.791.131 3.377 1.872z" fill="#4788D8"/>
    <path d="M88.207 225.739c-1.656-.049-1.118-1.774-.944-2.463.174-.69.249-1.717 1.929-1.643 1.68.074 1.888.862 1.854 1.552-.033.69.058 2.636-2.84 2.554z" fill="#4788D8"/>
    <path d="M105.79 229.106a7.246 7.246 0 0 0 3.311 3.22c1.904.87 2.889-.583 2.376-2.415-.455-1.642-2.003-4.106-3.932-4.196-1.929-.091-2.616 1.675-1.755 3.391z" fill="#B55B52"/>
    <path d="M85.856 288.474c-12.235 8.705-10.513 30.542-22.608 39.181-13.41 9.576 2.93 14.331 19.123 16.778 22.045 3.334 31.656 11.309 33.692 7.851 5.364-9.132 4.081-52.658 1.896-62.143-14.595-6.537-32.103-1.667-32.103-1.667z" fill="#4788D8"/>
    <path d="M119.184 300.251c-6.167.312-23.792-1.955-36.06-9.387a27.594 27.594 0 0 0-4.843 7.391c15.34 8.483 35.804 9.362 41.317 9.428a233.492 233.492 0 0 0-.414-7.432zM119.838 317.48c-6.623.484-31.358-2.341-44.901-10.676-1.051 3.063-2.07 6.143-3.311 9.033 18.261 8.328 42.301 9.034 48.146 9.108.074-2.464.083-4.977.066-7.465zM63.248 327.664a21.926 21.926 0 0 0-2.011 1.601c17.847 9.034 50.19 13.501 57.235 14.38.381-2.464.671-5.33.878-8.368-7.848-.247-32.923-4.747-50.779-13.37a20.734 20.734 0 0 1-5.323 5.757z" fill="#fff"/>
</svg>
