<?xml version="1.0" encoding="UTF-8"?>
<svg width="291px" height="257px" viewBox="0 0 291 257" version="1.1" xmlns="http://www.w3.org/2000/svg" xmlns:xlink="http://www.w3.org/1999/xlink">
    <title>D58946FC-4398-4640-AE31-AF8B7F546B91</title>
    <g id="Leaftech-webdesign-V2" stroke="none" stroke-width="1" fill="none" fill-rule="evenodd">
        <g id="Features/Services---UI---1024px" transform="translate(-127.000000, -3680.000000)">
            <g id="Group-31-Copy" transform="translate(127.000000, 3681.000000)">
                <g id="freepik--background-simple--inject-2" transform="translate(19.000000, 45.000000)" fill-rule="nonzero">
                    <g id="Group-30">
                        <path d="M211.538354,18.0880244 C211.538354,18.0880244 187.238441,-5.34668894 151.346813,1.13259117 C115.455185,7.61187128 97.5980328,35.4582895 75.3603286,53.8096652 C63.7160731,63.3968927 47.8423191,65.9583154 34.5102047,72.9775355 C-8.11972373,95.3587074 -8.88812638,153.764413 19.2537999,178.186822 C43.5931181,199.323498 76.4899462,204.077604 121.149246,193.739728 C165.808545,183.401852 197.621729,177.613958 228.909508,139.903758 C260.197288,102.193558 241.203951,49.6020839 211.538354,18.0880244 Z" id="Path" fill="#D0E1F5"></path>
                        <path d="M40.9685912,74.4461918 C41.3842368,73.0317906 42.6418281,72.0348583 44.1064758,71.9586918 C44.4114986,71.9556369 44.7136002,72.0186601 44.992245,72.1434775 C45.7274508,71.1216003 46.8865464,70.4934171 48.1395527,70.4377632 C48.7728364,70.3991969 49.3918516,70.6374087 49.837755,71.0912718 C50.2836585,71.5451349 50.513045,72.1704696 50.4670527,72.8068108 C51.8004181,72.8968346 52.5778219,74.0245013 52.219745,75.4080251 C51.7942263,76.8899487 50.481656,77.9379353 48.9499373,78.0187156 L40.6953219,78.0187156 C40.2362635,78.0399323 39.7969821,77.8292521 39.5244463,77.4571612 C39.2519104,77.0850704 39.1821103,76.6007062 39.3383988,76.1661203 C39.5758451,75.3629461 40.1822167,74.7231959 40.9685912,74.4461918 L40.9685912,74.4461918 Z" id="Path" fill="#FFFFFF"></path>
                    </g>
                </g>
                <g id="freepik--background-simple--inject-2-copy" transform="translate(244.000000, 81.000000)" fill-rule="nonzero">
                    <g id="Group-30">
                        <path d="M25.2218652,4.57041548 C25.6902946,2.95934169 27.10759,1.82378594 28.7582362,1.73702843 C29.1019945,1.73354876 29.4424605,1.80533539 29.7564911,1.94750861 C30.5850622,0.78353935 31.8913536,0.0680072328 33.3034818,0.0046146242 C34.0171874,-0.0393143356 34.7148127,0.232020789 35.2173423,0.748993634 C35.7198719,1.26596648 35.9783888,1.97825397 35.9265558,2.70307849 C37.4292479,2.80562012 38.3053759,4.09008892 37.9018261,5.66599181 C37.4222698,7.35397703 35.9430136,8.54768621 34.2167788,8.63969899 L24.9138929,8.63969899 C24.3965378,8.66386594 23.9014711,8.42389058 23.5943254,8.00006047 C23.2871796,7.57623035 23.2085155,7.02451528 23.3846514,6.52950025 C23.6522514,5.61464462 24.3356274,4.88593709 25.2218652,4.57041548 L25.2218652,4.57041548 Z" id="Path" fill="#D0E1F5"></path>
                        <path d="M3.83157512,49.8640185 C4.76170407,46.6442128 7.57593298,44.374752 10.8535111,44.2013631 C11.5360891,44.1944088 12.2121297,44.3378777 12.8356792,44.6220175 C14.4809176,42.295771 17.0747334,40.8657469 19.8787021,40.7390538 C21.2958598,40.6512597 22.6810877,41.1935356 23.6789272,42.2267298 C24.6767667,43.259924 25.1900864,44.6834635 25.0871651,46.1320589 C28.0709607,46.3369931 29.8106295,48.9040636 29.0093275,52.0535786 C28.0571047,55.4270953 25.1198443,57.8127784 21.692175,57.9966703 L3.22005517,57.9966703 C2.19277755,58.044969 1.20975674,57.5653671 0.599877884,56.718323 C-0.0100009704,55.8712789 -0.166198996,54.7686507 0.183542323,53.7793402 C0.714897774,51.9509589 2.07183189,50.4946031 3.83157512,49.8640185 L3.83157512,49.8640185 Z" id="Path-Copy-44" fill="#FFFFFF"></path>
                    </g>
                </g>
                <g id="freepik--Tree--inject-2" transform="translate(130.000000, 0.000000)" stroke="#263238" stroke-linecap="round" stroke-linejoin="round">
                    <path d="M92.5101904,246.844156 C96.948963,239.029179 106.201994,221.094809 107.563128,216.325669 C113.42338,195.799666 110.111064,177.010324 107.563128,167.819376 C105.015192,158.628429 98.0016629,143.699819 86.5560664,124.696735 C75.1104699,105.69365 65.8708495,79.3565095 61.7472163,71.4279817 C57.6235831,63.4994538 17.8221415,41.9448124 8.91107074,36.8684171 L0,31.7987013" id="Path" stroke-width="1.16068235"></path>
                    <path d="M151.378092,18.3246753 C151.378092,18.3246753 133.674641,36.4150977 124.193741,48.4753793 C114.712841,60.5356609 89.745583,111.317201 89.745583,111.317201 C89.745583,111.317201 104.919018,135.437765 111.237399,148.754883 C117.55578,162.072001 124.513322,180.483318 124.513322,196.989324 C124.513322,213.49533 124.826245,229.359547 124.826245,237.288314 C124.826245,240.744614 125.964752,244.381417 127.249734,247.383117" id="Path" stroke-width="1.16068235"></path>
                    <path d="M100.558304,20.7485143 L99.4229609,78.0171849 L98.489158,79.4791081 L84.0991891,102.402597 C84.0991891,102.402597 81.1768565,97.8432662 75.5202955,85.6205205 C68.9903936,71.5019474 59.1552328,48.2380102 59.4776971,45.3875938 C59.8001614,42.5371774 85.7249466,16.2292358 87.323832,14.012987" id="Path" stroke-width="1.16068235"></path>
                    <path d="M4.32508834,31.1975969 C4.32508834,31.1975969 51.086388,57.5565028 54.2627789,58.1998985 C57.4391699,58.8432942 37.4091434,19.9415584 37.4091434,19.9415584" id="Path" stroke-width="0.773788235"></path>
                    <path d="M42.1696113,19.0360546 C42.1696113,19.0360546 54.2774192,36.0538926 55.8985201,37.6569243 C57.519621,39.2599559 82.7173145,12.9350649 82.7173145,12.9350649" id="Path" stroke-width="0.773788235"></path>
                    <polyline id="Path" stroke-width="0.773788235" points="124.886926 3.77272727 129.038617 35.5714286 153 12.0389159"></polyline>
                    <polyline id="Path" stroke-width="0.773788235" points="103.261484 16.7231486 107.099354 65.2142857 124.886926 37.7153288 122.410003 0"></polyline>
                    <path d="M117.911671,249 C117.911671,249 117.346382,244.898702 119.90763,235.320058 C122.468879,225.741414 124.171725,208.503882 122.748034,195.642857" id="Path" stroke-width="0.773788235"></path>
                    <path d="M120.441001,202.649351 C120.762893,208.411046 120.44132,214.185601 119.480565,219.896104" id="Path" stroke-width="0.773788235"></path>
                    <path d="M117.318021,216.662338 C117.192743,221.492318 116.493738,226.294806 115.233657,230.982892 C113.156581,238.690322 111.371025,241.993506 111.371025,241.993506" id="Path" stroke-width="0.773788235"></path>
                    <path d="M117.318021,167.077922 C117.318021,167.077922 120.833814,179.573567 121.64311,185.402597" id="Path" stroke-width="0.773788235"></path>
                    <path d="M117.858657,187.019481 C117.858657,187.019481 118.667953,195.045997 118.939929,197.25974" id="Path" stroke-width="0.773788235"></path>
                    <line x1="109.749117" y1="147.136364" x2="97.8551237" y2="125.577922" id="Path" stroke-width="0.773788235"></line>
                    <line x1="100.017668" y1="134.74026" x2="89.745583" y2="118.032468" id="Path" stroke-width="0.773788235"></line>
                </g>
                <g id="freepik--Leaves--inject-2" transform="translate(70.000000, 9.000000)" fill-rule="nonzero">
                    <path d="M69.3333333,105.160772 C69.8238883,106.433064 70.8776423,107.36054 72.1424526,107.633256 C74.2235202,108.010997 76.9166667,106.506902 76.9166667,106.506902 C75.6648645,105.406457 74.2375804,104.555003 72.7029878,103.99321 C71.464266,103.702486 70.1749532,104.149224 69.3333333,105.160772 L69.3333333,105.160772 Z" id="Path" fill="#4788D8"></path>
                    <path d="M91,47.2160994 C91,47.2160994 88.2629274,44.7223904 84.5678794,45.6762341 C80.8728314,46.6300778 77.4583333,50.6137778 77.4583333,50.6137778 C77.4583333,50.6137778 82.535603,51.8606323 86.2648644,51.2372051 C89.9941258,50.6137778 91,47.2160994 91,47.2160994 Z" id="Path" fill="#4788D8"></path>
                    <path d="M137.583333,144.627864 C137.583333,144.627864 134.847643,142.134155 131.154461,143.087999 C127.461279,144.041842 124.041667,148.025543 124.041667,148.025543 C124.041667,148.025543 129.123211,149.272397 132.84375,148.64897 C136.564289,148.025543 137.583333,144.627864 137.583333,144.627864 Z" id="Path" fill="#4788D8"></path>
                    <path d="M65.7635479,40.5882353 C65.7635479,40.5882353 62.4793972,41.8333964 61.857399,45.5554909 C61.2354007,49.2775854 63.5181343,54.1176471 63.5181343,54.1176471 C63.5181343,54.1176471 66.6281255,50.2014146 67.5238029,46.6265972 C68.4194804,43.0517798 65.7635479,40.5882353 65.7635479,40.5882353 Z" id="Path" fill="#4788D8"></path>
                    <path d="M84.7446405,169.388235 C84.7446405,169.388235 81.4492281,170.640091 80.8188556,174.355491 C80.1884832,178.070891 82.4603205,182.917647 82.4603205,182.917647 C82.4603205,182.917647 85.5809762,179.001415 86.479725,175.426597 C87.3784739,171.85178 84.7446405,169.388235 84.7446405,169.388235 Z" id="Path" fill="#4788D8"></path>
                    <path d="M130,40.7607722 C130.490139,42.0330639 131.542998,42.9605396 132.806735,43.2332562 C134.886036,43.6109968 137.583333,42.1069023 137.583333,42.1069023 C136.32979,41.0071002 134.901724,40.1557579 133.366794,39.5932103 C132.129124,39.3024857 130.840905,39.7492236 130,40.7607722 Z" id="Path" fill="#4788D8"></path>
                    <path d="M100.75,34.8074577 C101.239321,36.0781794 102.290296,37.0054728 103.552676,37.280306 C105.640187,37.6581023 108.333333,36.1537862 108.333333,36.1537862 C107.079595,35.0524636 105.650075,34.2008523 104.113212,33.6397238 C102.876474,33.3501091 101.589583,33.7969279 100.75,34.8074577 Z" id="Path" fill="#4788D8"></path>
                    <path d="M40.625,169.022733 C41.1143209,170.292599 42.1652964,171.219269 43.4276763,171.493917 C45.5151869,171.864594 48.2083333,170.368155 48.2083333,170.368155 C48.2083333,170.368155 45.998407,168.404937 43.9882116,167.84892 C42.7504296,167.564171 41.464733,168.012899 40.625,169.022733 Z" id="Path" fill="#4788D8"></path>
                    <path d="M141.916667,22.91398 C141.916667,22.91398 142.963037,26.4922451 146.672897,27.3834859 C150.382756,28.2747267 155.458333,26.1264374 155.458333,26.1264374 C155.458333,26.1264374 151.694117,22.5814274 148.133739,21.4041915 C144.573361,20.2269556 141.916667,22.91398 141.916667,22.91398 Z" id="Path" fill="#4788D8"></path>
                    <path d="M86.6666667,14.8136933 C86.6666667,14.8136933 87.7130373,18.3783044 91.4228968,19.2661443 C95.1327563,20.1539843 100.208333,18.0205182 100.208333,18.0205182 C100.208333,18.0205182 96.4373223,14.4559071 92.9041228,13.2831633 C89.3709232,12.1104195 86.6666667,14.8136933 86.6666667,14.8136933 Z" id="Path" fill="#4788D8"></path>
                    <path d="M167.392321,6.97499851 C167.392321,6.97499851 166.996772,10.7542019 169.986089,13.0108485 C172.975407,15.2674952 178.208333,15.151944 178.208333,15.151944 C178.208333,15.151944 176.198163,10.3939541 173.487676,7.9062051 C170.777188,5.4184561 167.392321,6.97499851 167.392321,6.97499851 Z" id="Path" fill="#4788D8"></path>
                    <path d="M42.25,75.9369825 C42.25,75.9369825 41.4841189,72.3987698 37.9077869,71.2753228 C34.3314549,70.1518757 29.25,71.8693293 29.25,71.8693293 C29.25,71.8693293 32.6664959,75.5689567 36.0563525,76.9571241 C39.446209,78.3452914 42.25,75.9369825 42.25,75.9369825 Z" id="Path" fill="#4788D8"></path>
                    <path d="M153.833333,5.04408748 C153.833333,5.04408748 153.073723,1.50240463 149.495558,0.379904049 C145.917393,-0.742596529 140.833333,0.979861254 140.833333,0.979861254 C140.833333,0.979861254 144.244917,4.67637178 147.643174,6.06336962 C151.041432,7.45036746 153.833333,5.04408748 153.833333,5.04408748 Z" id="Path" fill="#4788D8"></path>
                    <path d="M41.1666667,46.1656638 C41.1666667,46.1656638 40.4007855,42.6314035 36.8244536,41.5092114 C33.2481216,40.3870193 28.1666667,42.1090038 28.1666667,42.1090038 C28.1666667,42.1090038 31.5831626,45.7980491 34.9730191,47.1911152 C38.3628757,48.5841812 41.1666667,46.1656638 41.1666667,46.1656638 Z" id="Path" fill="#4788D8"></path>
                    <path d="M41.1666667,46.1656638 C41.1666667,46.1656638 40.4007855,42.6314035 36.8244536,41.5092114 C33.2481216,40.3870193 28.1666667,42.1090038 28.1666667,42.1090038 C28.1666667,42.1090038 31.5831626,45.7980491 34.9730191,47.1911152 C38.3628757,48.5841812 41.1666667,46.1656638 41.1666667,46.1656638 Z" id="Path" fill="#000000" opacity="0.3"></path>
                    <path d="M128.375,93.2480167 C128.375,93.2480167 127.61539,89.7137565 124.037225,88.5915644 C120.459059,87.4693722 115.375,89.1913567 115.375,89.1913567 C115.375,89.1913567 118.786584,92.880402 122.184841,94.2734681 C125.583098,95.6665342 128.375,93.2480167 128.375,93.2480167 Z" id="Path" fill="#4788D8"></path>
                    <path d="M128.375,93.2480167 C128.375,93.2480167 127.61539,89.7137565 124.037225,88.5915644 C120.459059,87.4693722 115.375,89.1913567 115.375,89.1913567 C115.375,89.1913567 118.786584,92.880402 122.184841,94.2734681 C125.583098,95.6665342 128.375,93.2480167 128.375,93.2480167 Z" id="Path" fill="#000000" opacity="0.3"></path>
                    <path d="M89.3743251,71.0089365 C89.3743251,71.0089365 85.9323864,69.3743265 82.6900801,71.2657143 C79.4477739,73.1571021 77.4583333,77.9294118 77.4583333,77.9294118 C77.4583333,77.9294118 82.7451512,77.7415256 86.125135,76.1444928 C89.5051188,74.54746 89.3743251,71.0089365 89.3743251,71.0089365 Z" id="Path" fill="#4788D8"></path>
                    <path d="M89.3743251,71.0089365 C89.3743251,71.0089365 85.9323864,69.3743265 82.6900801,71.2657143 C79.4477739,73.1571021 77.4583333,77.9294118 77.4583333,77.9294118 C77.4583333,77.9294118 82.7451512,77.7415256 86.125135,76.1444928 C89.5051188,74.54746 89.3743251,71.0089365 89.3743251,71.0089365 Z" id="Path" fill="#000000" opacity="0.3"></path>
                    <path d="M196.083333,131.537067 C196.083333,131.537067 199.223293,133.587059 202.654241,131.961428 C206.085189,130.335798 208.541667,125.596008 208.541667,125.596008 C208.541667,125.596008 203.351258,125.243462 199.866173,126.555718 C196.381088,127.867974 196.083333,131.537067 196.083333,131.537067 Z" id="Path" fill="#4788D8"></path>
                    <path d="M196.083333,131.537067 C196.083333,131.537067 199.223293,133.587059 202.654241,131.961428 C206.085189,130.335798 208.541667,125.596008 208.541667,125.596008 C208.541667,125.596008 203.351258,125.243462 199.866173,126.555718 C196.381088,127.867974 196.083333,131.537067 196.083333,131.537067 Z" id="Path" fill="#000000" opacity="0.3"></path>
                    <path d="M208.541667,34.6664789 C208.541667,34.6664789 211.681627,36.7164706 215.112575,35.0908402 C218.543523,33.4652099 221,28.7254202 221,28.7254202 C221,28.7254202 215.809592,28.3728738 212.324507,29.6851296 C208.839422,30.9973855 208.541667,34.6664789 208.541667,34.6664789 Z" id="Path" fill="#4788D8"></path>
                    <path d="M208.541667,34.6664789 C208.541667,34.6664789 211.681627,36.7164706 215.112575,35.0908402 C218.543523,33.4652099 221,28.7254202 221,28.7254202 C221,28.7254202 215.809592,28.3728738 212.324507,29.6851296 C208.839422,30.9973855 208.541667,34.6664789 208.541667,34.6664789 Z" id="Path" fill="#000000" opacity="0.3"></path>
                    <path d="M115.916088,6.07082799 C115.916088,6.07082799 112.508541,4.42919691 109.224905,6.32772446 C105.941269,8.22625201 104,12.9882353 104,12.9882353 C104,12.9882353 109.279977,12.8002623 112.659988,11.2024916 C116.039999,9.60472085 115.916088,6.07082799 115.916088,6.07082799 Z" id="Path" fill="#4788D8"></path>
                    <path d="M115.916088,6.07082799 C115.916088,6.07082799 112.508541,4.42919691 109.224905,6.32772446 C105.941269,8.22625201 104,12.9882353 104,12.9882353 C104,12.9882353 109.279977,12.8002623 112.659988,11.2024916 C116.039999,9.60472085 115.916088,6.07082799 115.916088,6.07082799 Z" id="Path" fill="#000000" opacity="0.3"></path>
                    <path d="M93.1659918,24.470828 C93.1659918,24.470828 89.7584725,22.8291969 86.4817468,24.7277245 C83.2050212,26.626252 81.25,31.3882353 81.25,31.3882353 C81.25,31.3882353 86.5368178,31.2002623 89.9168016,29.6024916 C93.2967854,28.0047209 93.1659918,24.470828 93.1659918,24.470828 Z" id="Path" fill="#4788D8"></path>
                    <path d="M93.1659918,24.470828 C93.1659918,24.470828 89.7584725,22.8291969 86.4817468,24.7277245 C83.2050212,26.626252 81.25,31.3882353 81.25,31.3882353 C81.25,31.3882353 86.5368178,31.2002623 89.9168016,29.6024916 C93.2967854,28.0047209 93.1659918,24.470828 93.1659918,24.470828 Z" id="Path" fill="#000000" opacity="0.3"></path>
                    <path d="M77.588938,18.4 C77.588938,18.4 74.9979371,21.0995415 76.1112578,24.6724641 C77.2245785,28.2453867 81.6643665,31.3882353 81.6643665,31.3882353 C81.6643665,31.3882353 82.8451612,26.4390758 82.0692104,22.8595367 C81.2932596,19.2799976 77.588938,18.4 77.588938,18.4 Z" id="Path" fill="#4788D8"></path>
                    <path d="M77.588938,18.4 C77.588938,18.4 74.9979371,21.0995415 76.1112578,24.6724641 C77.2245785,28.2453867 81.6643665,31.3882353 81.6643665,31.3882353 C81.6643665,31.3882353 82.8451612,26.4390758 82.0692104,22.8595367 C81.2932596,19.2799976 77.588938,18.4 77.588938,18.4 Z" id="Path" fill="#000000" opacity="0.3"></path>
                    <path d="M37.9166667,13.2003661 C37.9166667,13.2003661 37.9512731,16.9394414 41.3773148,18.7822715 C44.8033565,20.6251015 50.375,19.8706095 50.375,19.8706095 C50.375,19.8706095 47.6064815,15.4571651 44.4572917,13.4140275 C41.3081019,11.3708899 37.9166667,13.2003661 37.9166667,13.2003661 Z" id="Path" fill="#4788D8"></path>
                    <path d="M37.9166667,13.2003661 C37.9166667,13.2003661 37.9512731,16.9394414 41.3773148,18.7822715 C44.8033565,20.6251015 50.375,19.8706095 50.375,19.8706095 C50.375,19.8706095 47.6064815,15.4571651 44.4572917,13.4140275 C41.3081019,11.3708899 37.9166667,13.2003661 37.9166667,13.2003661 Z" id="Path" fill="#000000" opacity="0.3"></path>
                    <path d="M41.3324346,30.1413016 C41.3324346,30.1413016 44.9406945,31.0832618 47.5818608,28.4601642 C50.223027,25.8370666 50.9166667,20.5647059 50.9166667,20.5647059 C50.9166667,20.5647059 45.9678147,21.872984 43.1599082,24.2278846 C40.3520017,26.5827851 41.3324346,30.1413016 41.3324346,30.1413016 Z" id="Path" fill="#4788D8"></path>
                    <path d="M41.3324346,30.1413016 C41.3324346,30.1413016 44.9406945,31.0832618 47.5818608,28.4601642 C50.223027,25.8370666 50.9166667,20.5647059 50.9166667,20.5647059 C50.9166667,20.5647059 45.9678147,21.872984 43.1599082,24.2278846 C40.3520017,26.5827851 41.3324346,30.1413016 41.3324346,30.1413016 Z" id="Path" fill="#000000" opacity="0.3"></path>
                    <path d="M185.212208,47.0823529 C185.212208,47.0823529 188.381524,45.2858158 188.496772,41.4184612 C188.61202,37.5511065 185.60277,33.0117647 185.60277,33.0117647 C185.60277,33.0117647 182.996888,37.4756794 182.580715,41.2401789 C182.164542,45.0046784 185.212208,47.0823529 185.212208,47.0823529 Z" id="Path" fill="#4788D8"></path>
                    <path d="M185.212208,47.0823529 C185.212208,47.0823529 188.381524,45.2858158 188.496772,41.4184612 C188.61202,37.5511065 185.60277,33.0117647 185.60277,33.0117647 C185.60277,33.0117647 182.996888,37.4756794 182.580715,41.2401789 C182.164542,45.0046784 185.212208,47.0823529 185.212208,47.0823529 Z" id="Path" fill="#000000" opacity="0.3"></path>
                    <path d="M198.791667,36.9074568 C198.791667,36.9074568 197.989116,33.3597795 194.414116,32.2766677 C190.839116,31.193556 185.791667,32.9900946 185.791667,32.9900946 C185.791667,32.9900946 189.240646,36.6610002 192.636565,38.0165113 C196.032483,39.3720224 198.791667,36.9074568 198.791667,36.9074568 Z" id="Path" fill="#4788D8"></path>
                    <path d="M198.791667,36.9074568 C198.791667,36.9074568 197.989116,33.3597795 194.414116,32.2766677 C190.839116,31.193556 185.791667,32.9900946 185.791667,32.9900946 C185.791667,32.9900946 189.240646,36.6610002 192.636565,38.0165113 C196.032483,39.3720224 198.791667,36.9074568 198.791667,36.9074568 Z" id="Path" fill="#000000" opacity="0.3"></path>
                    <path d="M167.375,15.4043287 C167.375,15.4043287 167.416528,19.1246427 170.835648,20.9515826 C174.254769,22.7785225 179.833333,22.0411031 179.833333,22.0411031 C179.833333,22.0411031 177.127106,17.6431605 173.957153,15.5770575 C170.787199,13.5109546 167.375,15.4043287 167.375,15.4043287 Z" id="Path" fill="#4788D8"></path>
                    <path d="M167.375,15.4043287 C167.375,15.4043287 167.416528,19.1246427 170.835648,20.9515826 C174.254769,22.7785225 179.833333,22.0411031 179.833333,22.0411031 C179.833333,22.0411031 177.127106,17.6431605 173.957153,15.5770575 C170.787199,13.5109546 167.375,15.4043287 167.375,15.4043287 Z" id="Path" fill="#000000" opacity="0.3"></path>
                    <path d="M170.26026,31.7627544 C170.26026,31.7627544 174.07263,32.7116986 176.858053,30.0808327 C179.643475,27.4499669 180.375,22.1882353 180.375,22.1882353 C180.375,22.1882353 175.15585,23.4971238 172.187547,25.8465786 C169.219243,28.1960334 170.26026,31.7627544 170.26026,31.7627544 Z" id="Path" fill="#4788D8"></path>
                    <path d="M170.26026,31.7627544 C170.26026,31.7627544 174.07263,32.7116986 176.858053,30.0808327 C179.643475,27.4499669 180.375,22.1882353 180.375,22.1882353 C180.375,22.1882353 175.15585,23.4971238 172.187547,25.8465786 C169.219243,28.1960334 170.26026,31.7627544 170.26026,31.7627544 Z" id="Path" fill="#000000" opacity="0.3"></path>
                    <path d="M100.75,38.6749169 C100.75,38.6749169 100.784606,42.3952309 104.210648,44.2221708 C107.63669,46.0491107 113.208333,45.3116913 113.208333,45.3116913 C113.208333,45.3116913 110.502106,40.9137487 107.332153,38.8476458 C104.162199,36.7815428 100.75,38.6749169 100.75,38.6749169 Z" id="Path" fill="#4788D8"></path>
                    <path d="M100.75,38.6749169 C100.75,38.6749169 100.784606,42.3952309 104.210648,44.2221708 C107.63669,46.0491107 113.208333,45.3116913 113.208333,45.3116913 C113.208333,45.3116913 110.502106,40.9137487 107.332153,38.8476458 C104.162199,36.7815428 100.75,38.6749169 100.75,38.6749169 Z" id="Path" fill="#000000" opacity="0.3"></path>
                    <path d="M103.621583,54.4941322 C103.621583,54.4941322 107.228281,55.4367254 109.874971,52.8118651 C112.521661,50.1870049 113.208333,44.9176471 113.208333,44.9176471 C113.208333,44.9176471 108.261623,46.2268043 105.454932,48.5767415 C102.648241,50.9266787 103.621583,54.4941322 103.621583,54.4941322 Z" id="Path" fill="#4788D8"></path>
                    <path d="M103.621583,54.4941322 C103.621583,54.4941322 107.228281,55.4367254 109.874971,52.8118651 C112.521661,50.1870049 113.208333,44.9176471 113.208333,44.9176471 C113.208333,44.9176471 108.261623,46.2268043 105.454932,48.5767415 C102.648241,50.9266787 103.621583,54.4941322 103.621583,54.4941322 Z" id="Path" fill="#000000" opacity="0.3"></path>
                    <path d="M135.416667,46.3270708 C135.416667,46.3270708 134.34634,42.7411981 130.620519,41.8731097 C126.894697,41.0050214 121.875,43.2086303 121.875,43.2086303 C121.875,43.2086303 125.648241,46.7410821 129.204707,47.8829522 C132.761172,49.0248223 135.416667,46.3270708 135.416667,46.3270708 Z" id="Path" fill="#4788D8"></path>
                    <path d="M135.416667,46.3270708 C135.416667,46.3270708 134.34634,42.7411981 130.620519,41.8731097 C126.894697,41.0050214 121.875,43.2086303 121.875,43.2086303 C121.875,43.2086303 125.648241,46.7410821 129.204707,47.8829522 C132.761172,49.0248223 135.416667,46.3270708 135.416667,46.3270708 Z" id="Path" fill="#000000" opacity="0.3"></path>
                    <path d="M128.638024,30.8470588 C128.638024,30.8470588 124.889591,30.9092941 123.068924,34.3045752 C121.248257,37.6998562 122.051492,43.2941176 122.051492,43.2941176 C122.051492,43.2941176 126.455901,40.5281046 128.510845,37.3679346 C130.565789,34.2077647 128.638024,30.8470588 128.638024,30.8470588 Z" id="Path" fill="#4788D8"></path>
                    <path d="M128.638024,30.8470588 C128.638024,30.8470588 124.889591,30.9092941 123.068924,34.3045752 C121.248257,37.6998562 122.051492,43.2941176 122.051492,43.2941176 C122.051492,43.2941176 126.455901,40.5281046 128.510845,37.3679346 C130.565789,34.2077647 128.638024,30.8470588 128.638024,30.8470588 Z" id="Path" fill="#000000" opacity="0.3"></path>
                    <path d="M122.958333,25.768654 C122.958333,25.768654 121.888007,22.176403 118.168959,21.308387 C114.449912,20.4403709 109.416667,22.6437963 109.416667,22.6437963 C109.416667,22.6437963 113.189907,26.1759538 116.753147,27.3177288 C120.316387,28.4595037 122.958333,25.768654 122.958333,25.768654 Z" id="Path" fill="#4788D8"></path>
                    <path d="M122.958333,25.768654 C122.958333,25.768654 121.888007,22.176403 118.168959,21.308387 C114.449912,20.4403709 109.416667,22.6437963 109.416667,22.6437963 C109.416667,22.6437963 113.189907,26.1759538 116.753147,27.3177288 C120.316387,28.4595037 122.958333,25.768654 122.958333,25.768654 Z" id="Path" fill="#000000" opacity="0.3"></path>
                    <path d="M116.179111,9.74117647 C116.179111,9.74117647 112.428031,9.8103268 110.612776,13.1986928 C108.797521,16.5870588 109.587928,22.1882353 109.587928,22.1882353 C109.587928,22.1882353 113.995447,19.4222222 116.051842,16.2689673 C118.108238,13.1157124 116.179111,9.74117647 116.179111,9.74117647 Z" id="Path" fill="#4788D8"></path>
                    <path d="M116.179111,9.74117647 C116.179111,9.74117647 112.428031,9.8103268 110.612776,13.1986928 C108.797521,16.5870588 109.587928,22.1882353 109.587928,22.1882353 C109.587928,22.1882353 113.995447,19.4222222 116.051842,16.2689673 C118.108238,13.1157124 116.179111,9.74117647 116.179111,9.74117647 Z" id="Path" fill="#000000" opacity="0.3"></path>
                    <path d="M146.791667,59.2396228 C146.791667,59.2396228 146.826273,62.9599368 150.252315,64.7868767 C153.678356,66.6138166 159.25,65.8763972 159.25,65.8763972 C159.25,65.8763972 156.543773,61.4784546 153.373819,59.4123517 C150.203866,57.3462487 146.791667,59.2396228 146.791667,59.2396228 Z" id="Path" fill="#4788D8"></path>
                    <path d="M146.791667,59.2396228 C146.791667,59.2396228 146.826273,62.9599368 150.252315,64.7868767 C153.678356,66.6138166 159.25,65.8763972 159.25,65.8763972 C159.25,65.8763972 156.543773,61.4784546 153.373819,59.4123517 C150.203866,57.3462487 146.791667,59.2396228 146.791667,59.2396228 Z" id="Path" fill="#000000" opacity="0.3"></path>
                    <path d="M150.204916,75.6000145 C150.204916,75.6000145 153.811614,76.5426077 156.458304,73.9177475 C159.104994,71.2928872 159.791667,66.0235294 159.791667,66.0235294 C159.791667,66.0235294 154.844957,67.3326866 152.038266,69.6826239 C149.231574,72.0325611 150.204916,75.6000145 150.204916,75.6000145 Z" id="Path" fill="#4788D8"></path>
                    <path d="M150.204916,75.6000145 C150.204916,75.6000145 153.811614,76.5426077 156.458304,73.9177475 C159.104994,71.2928872 159.791667,66.0235294 159.791667,66.0235294 C159.791667,66.0235294 154.844957,67.3326866 152.038266,69.6826239 C149.231574,72.0325611 150.204916,75.6000145 150.204916,75.6000145 Z" id="Path" fill="#000000" opacity="0.3"></path>
                    <path d="M196.624325,91.0324659 C196.624325,91.0324659 193.216806,89.3978559 189.94008,91.2892437 C186.663355,93.1806315 184.708333,97.9529412 184.708333,97.9529412 C184.708333,97.9529412 189.995151,97.765055 193.375135,96.1680222 C196.755119,94.5709895 196.624325,91.0324659 196.624325,91.0324659 Z" id="Path" fill="#4788D8"></path>
                    <path d="M196.624325,91.0324659 C196.624325,91.0324659 193.216806,89.3978559 189.94008,91.2892437 C186.663355,93.1806315 184.708333,97.9529412 184.708333,97.9529412 C184.708333,97.9529412 189.995151,97.765055 193.375135,96.1680222 C196.755119,94.5709895 196.624325,91.0324659 196.624325,91.0324659 Z" id="Path" fill="#000000" opacity="0.3"></path>
                    <path d="M181.046505,84.9647059 C181.046505,84.9647059 178.456635,87.6642474 179.56947,91.23717 C180.682305,94.8100926 185.120156,97.9529412 185.120156,97.9529412 C185.120156,97.9529412 186.30718,93.0037817 185.524823,89.4176261 C184.742466,85.8314704 181.046505,84.9647059 181.046505,84.9647059 Z" id="Path" fill="#4788D8"></path>
                    <path d="M181.046505,84.9647059 C181.046505,84.9647059 178.456635,87.6642474 179.56947,91.23717 C180.682305,94.8100926 185.120156,97.9529412 185.120156,97.9529412 C185.120156,97.9529412 186.30718,93.0037817 185.524823,89.4176261 C184.742466,85.8314704 181.046505,84.9647059 181.046505,84.9647059 Z" id="Path" fill="#000000" opacity="0.3"></path>
                    <path d="M154.772453,40.4807291 C156.835574,43.6120447 157.625,48.8012775 157.625,48.8012775 C157.625,48.8012775 152.397542,47.4885862 150.035898,44.4940092 C147.674255,41.4994322 149.014288,37.9237158 149.014288,37.9237158 C149.014288,37.9237158 152.715966,37.3494134 154.772453,40.4807291 Z M149.08726,49.4234385 C145.611133,50.6404127 145.166667,54.4690957 145.166667,54.4690957 C145.166667,54.4690957 148.15189,56.7526316 151.574947,55.2006476 C154.998003,53.6486636 157.625,48.8012775 157.625,48.8012775 C157.625,48.8012775 152.563387,48.2064643 149.08726,49.4234385 Z" id="Shape" fill="#4788D8"></path>
                    <path d="M170.853598,44.770732 C167.23973,45.3532857 162.348432,44.0153327 162.348432,44.0153327 C162.348432,44.0153327 165.657835,39.9438587 169.304797,39.0476222 C172.95176,38.1513858 175.5,40.718463 175.5,40.718463 C175.5,40.718463 174.467466,44.1881783 170.853598,44.770732 Z M165.359989,36.2564859 C165.74388,32.735557 162.560234,30.8470588 162.560234,30.8470588 C162.560234,30.8470588 159.3104,32.5691131 159.250831,36.1796656 C159.191262,39.7902181 162.355051,43.989726 162.355051,43.989726 C162.355051,43.989726 164.982717,39.8094232 165.359989,36.2564859 Z" id="Shape" fill="#4788D8"></path>
                    <path d="M132.026573,12.9951293 C130.261537,16.3524916 126.116379,19.4823529 126.116379,19.4823529 C126.116379,19.4823529 124.839403,14.0430124 126.343694,10.478831 C127.847985,6.91464968 131.571942,6.49411765 131.571942,6.49411765 C131.571942,6.49411765 133.791608,9.64466092 132.026573,12.9951293 Z M121.623562,11.8852004 C118.949266,9.23791682 115.425881,10.6029224 115.425881,10.6029224 C115.425881,10.6029224 114.824164,14.4152866 117.759204,16.8626452 C120.694244,19.3100037 126.116379,19.4823529 126.116379,19.4823529 C126.116379,19.4823529 124.291172,14.5324841 121.623562,11.8852004 Z" id="Shape" fill="#4788D8"></path>
                    <path d="M101.693239,32.4774822 C99.9282041,35.8279505 95.7830455,38.9647059 95.7830455,38.9647059 C95.7830455,38.9647059 94.5060692,33.5253653 96.0103606,29.95429 C97.5146521,26.3832147 101.238609,25.9764706 101.238609,25.9764706 C101.238609,25.9764706 103.458275,29.1270139 101.693239,32.4774822 Z M91.2902284,31.3675534 C88.6159325,28.7202698 85.0925477,30.0852754 85.0925477,30.0852754 C85.0925477,30.0852754 84.4908311,33.8907456 87.4258708,36.3381042 C90.3609106,38.7854627 95.7830455,38.9647059 95.7830455,38.9647059 C95.7830455,38.9647059 93.9578385,34.014837 91.2902284,31.3675534 Z" id="Shape" fill="#4788D8"></path>
                    <path d="M61.6057863,14.4994593 C63.6689075,17.6317597 64.4583333,22.8226244 64.4583333,22.8226244 C64.4583333,22.8226244 59.230875,21.5095203 56.8625976,18.5140016 C54.4943202,15.5184828 55.8409878,11.948481 55.8409878,11.948481 C55.8409878,11.948481 59.5426651,11.3671588 61.6057863,14.4994593 Z M55.9205937,23.4449811 C52.4444666,24.662338 52,28.492225 52,28.492225 C52,28.492225 54.9785898,30.7764791 58.4082801,29.224007 C61.8379704,27.671535 64.4583333,22.8226244 64.4583333,22.8226244 C64.4583333,22.8226244 59.3967208,22.2276241 55.9205937,23.4449811 L55.9205937,23.4449811 Z" id="Shape" fill="#4788D8"></path>
                    <path d="M170.450899,67.6246204 C169.562589,64.0226274 170.563595,58.9811764 170.563595,58.9811764 C170.563595,58.9811764 175.025031,62.0140812 176.23817,65.5892935 C177.45131,69.1645058 174.998514,71.9764706 174.998514,71.9764706 C174.998514,71.9764706 171.332579,71.2199182 170.450899,67.6246204 Z M178.797033,61.3914319 C182.469597,61.485164 184.166667,58.1241966 184.166667,58.1241966 C184.166667,58.1241966 182.138138,54.9841693 178.399282,55.2118046 C174.660426,55.4394398 170.583482,58.9811764 170.583482,58.9811764 C170.583482,58.9811764 175.11121,61.2910045 178.797033,61.3914319 Z" id="Shape" fill="#4788D8"></path>
                    <path d="M75.1305059,21.5819013 C71.6032555,21.0281747 67.4892047,18.2068056 67.4892047,18.2068056 C67.4892047,18.2068056 71.8611897,15.2535967 75.4916138,15.4975002 C79.1220379,15.7414036 80.7083333,19.0505795 80.7083333,19.0505795 C80.7083333,19.0505795 78.6642047,22.129036 75.1305059,21.5819013 Z M72.7059243,11.5752697 C74.1632526,8.27927772 71.8031545,5.41176471 71.8031545,5.41176471 C71.8031545,5.41176471 68.256559,6.0709631 67.0636133,9.6042665 C65.8706675,13.1375699 67.4892047,18.1738456 67.4892047,18.1738456 C67.4892047,18.1738456 71.248596,14.9042216 72.7059243,11.5752697 Z" id="Shape" fill="#4788D8"></path>
                    <path d="M4.23422357,81.6279329 C7.7949722,80.6570513 12.8427001,81.5542798 12.8427001,81.5542798 C12.8427001,81.5542798 9.92208609,86.1274671 6.38800973,87.4331356 C2.85393336,88.738804 0,86.3149477 0,86.3149477 C0,86.3149477 0.67347493,82.5988146 4.23422357,81.6279329 Z M10.6222333,89.8904705 C10.6222333,93.5999079 13.996276,95.2470588 13.996276,95.2470588 C13.996276,95.2470588 17.0769237,93.1245107 16.7701926,89.3615074 C16.4634614,85.598504 12.8427001,81.5475841 12.8427001,81.5475841 C12.8427001,81.5475841 10.6422375,86.2011202 10.6222333,89.8904705 Z" id="Shape" fill="#4788D8"></path>
                    <path d="M203.124029,5.46313982 C203.064153,9.21607934 200.815492,13.8987706 200.815492,13.8987706 C200.815492,13.8987706 197.256221,9.75900007 196.990108,5.93819545 C196.723994,2.11739084 199.817566,0 199.817566,0 C199.817566,0 203.190557,1.71020029 203.124029,5.46313982 Z M193.457448,9.39252858 C189.924788,8.33383316 187.416667,11.1909535 187.416667,11.1909535 C187.416667,11.1909535 188.59422,14.7945898 192.273242,15.5478923 C195.952264,16.3011948 200.815492,13.8987706 200.815492,13.8987706 C200.815492,13.8987706 196.990108,10.4444375 193.457448,9.39252858 L193.457448,9.39252858 Z" id="Shape" fill="#4788D8"></path>
                    <path d="M25.4296499,108.235294 C24.0623184,108.380393 22.8570271,109.219696 22.2202923,110.470127 C21.2323136,112.549942 21.8678922,115.811765 21.8678922,115.811765 C21.8678922,115.811765 24.3850354,114.054902 25.5429213,112.110727 C26.1906501,110.892922 26.147338,109.411054 25.4296499,108.235294 L25.4296499,108.235294 Z" id="Path" fill="#4788D8"></path>
                    <path d="M25.4296499,108.235294 C24.0623184,108.380393 22.8570271,109.219696 22.2202923,110.470127 C21.2323136,112.549942 21.8678922,115.811765 21.8678922,115.811765 C21.8678922,115.811765 24.3850354,114.054902 25.5429213,112.110727 C26.1906501,110.892922 26.147338,109.411054 25.4296499,108.235294 L25.4296499,108.235294 Z" id="Path" fill="#000000" opacity="0.3"></path>
                    <path d="M139.180863,122.305882 C137.813406,122.447682 136.606409,123.285367 135.967319,124.536157 C134.986276,126.617747 135.61515,129.882353 135.61515,129.882353 C135.61515,129.882353 138.130644,128.123991 139.29406,126.178157 C139.940242,124.961313 139.896958,123.480645 139.180863,122.305882 Z" id="Path" fill="#4788D8"></path>
                    <path d="M139.180863,122.305882 C137.813406,122.447682 136.606409,123.285367 135.967319,124.536157 C134.986276,126.617747 135.61515,129.882353 135.61515,129.882353 C135.61515,129.882353 138.130644,128.123991 139.29406,126.178157 C139.940242,124.961313 139.896958,123.480645 139.180863,122.305882 Z" id="Path" fill="#000000" opacity="0.3"></path>
                    <path d="M7.01811517,176.423529 C5.64891891,176.568628 4.44198383,177.407931 3.80438065,178.658362 C2.81505453,180.738178 3.45149999,184 3.45149999,184 C3.45149999,184 5.97207609,182.243137 7.1315411,180.298962 C7.77218705,179.079216 7.72894368,177.601717 7.01811517,176.423529 Z" id="Path" fill="#4788D8"></path>
                    <path d="M7.01811517,176.423529 C5.64891891,176.568628 4.44198383,177.407931 3.80438065,178.658362 C2.81505453,180.738178 3.45149999,184 3.45149999,184 C3.45149999,184 5.97207609,182.243137 7.1315411,180.298962 C7.77218705,179.079216 7.72894368,177.601717 7.01811517,176.423529 Z" id="Path" fill="#000000" opacity="0.3"></path>
                    <path d="M145.708189,62.154767 C144.446866,61.4808488 142.963102,61.5499203 141.757754,62.3386655 C139.833841,63.6966858 138.666667,67.1058824 138.666667,67.1058824 C138.666667,67.1058824 141.789819,66.9714949 143.797102,65.8256654 C144.989308,65.0734011 145.720139,63.6695885 145.708189,62.154767 Z" id="Path" fill="#4788D8"></path>
                    <path d="M145.708189,62.154767 C144.446866,61.4808488 142.963102,61.5499203 141.757754,62.3386655 C139.833841,63.6966858 138.666667,67.1058824 138.666667,67.1058824 C138.666667,67.1058824 141.789819,66.9714949 143.797102,65.8256654 C144.989308,65.0734011 145.720139,63.6695885 145.708189,62.154767 Z" id="Path" fill="#000000" opacity="0.3"></path>
                </g>
                <rect id="Rectangle" fill="#EBEBEB" fill-rule="nonzero" x="0" y="241.95" width="18" height="1"></rect>
                <rect id="Rectangle" fill="#EBEBEB" fill-rule="nonzero" x="51" y="239.95" width="18" height="1"></rect>
                <rect id="Rectangle" fill="#EBEBEB" fill-rule="nonzero" x="13" y="243.95" width="29" height="1"></rect>
                <rect id="Rectangle" fill="#EBEBEB" fill-rule="nonzero" x="193" y="243.95" width="22" height="1"></rect>
                <rect id="Rectangle" fill="#EBEBEB" fill-rule="nonzero" x="173" y="240.95" width="13" height="1"></rect>
                <rect id="Rectangle" fill="#EBEBEB" fill-rule="nonzero" x="78" y="242.95" width="51" height="1"></rect>
                <path d="M21.125036,144.761418 C21.6319485,143.081355 23.171976,141.898085 24.9639494,141.811816 C25.3376489,141.807916 25.7079284,141.881612 26.0502353,142.028017 C26.9500262,140.813053 28.3705115,140.06756 29.9049684,140.004992 C30.6804168,139.958274 31.4386728,140.241205 31.9844918,140.780932 C32.5303108,141.320659 32.8103545,142.064439 32.752514,142.820755 C34.3819429,142.928856 35.3311248,144.272392 34.8934465,145.909344 C34.3684976,147.665373 32.7625277,148.90468 30.8910629,148.997932 L20.7664562,148.997932 C20.2041159,149.025471 19.6649521,148.776539 19.3300136,148.334726 C18.995075,147.892914 18.9087833,147.316817 19.1001146,146.799887 C19.4008088,145.84252 20.1540269,145.084263 21.125036,144.761418 L21.125036,144.761418 Z" id="Path" fill="#FFFFFF" fill-rule="nonzero"></path>
                <path d="M64.125036,38.7614183 C64.6319485,37.0813547 66.171976,35.8980854 67.9639494,35.8118162 C68.3376489,35.8079158 68.7079284,35.8816117 69.0502353,36.0280174 C69.9500262,34.813053 71.3705115,34.0675596 72.9049684,34.0049918 C73.6804168,33.9582742 74.4386728,34.2412049 74.9844918,34.7809318 C75.5303108,35.3206587 75.8103545,36.0644389 75.752514,36.8207551 C77.3819429,36.9288557 78.3311248,38.2723917 77.8934465,39.9093437 C77.3684976,41.665373 75.7625277,42.9046795 73.8910629,42.9979323 L63.7664562,42.9979323 C63.2041159,43.0254708 62.6649521,42.7765387 62.3300136,42.3347265 C61.995075,41.8929142 61.9087833,41.3168174 62.1001146,40.7998867 C62.4008088,39.8425201 63.1540269,39.0842627 64.125036,38.7614183 L64.125036,38.7614183 Z" id="Path-Copy-43" fill="#D0E1F5" fill-rule="nonzero"></path>
                <path d="M14.6755001,87.5577584 C15.6953134,83.9310071 19.5595788,81.0074015 23.3466692,81.0074015 C24.1883725,80.9987493 25.0224695,81.1609007 25.7942211,81.4832144 C27.8669227,78.8398097 31.2075003,77 34.4929528,77 C38.4674684,77 41.0693704,79.6751256 40.9205328,83.2542955 C44.5973731,83.4816283 46.7472497,86.4633888 45.7605115,90.1271478 C44.7296732,93.9230769 40.6834951,97 36.725517,97 L13.9257995,97 C11.1199348,97 9.43862104,94.8218345 10.1717841,92.1308485 C10.8148702,89.9983887 12.492298,88.2951223 14.6755001,87.5577584 L14.6755001,87.5577584 Z" id="Path" fill="#D0E1F5" fill-rule="nonzero"></path>
                <g id="freepik--Kite--inject-58" transform="translate(62.000000, 63.000000)" fill-rule="nonzero">
                    <polygon id="Rectangle" fill="#4788D8" transform="translate(19.082235, 25.616351) rotate(-74.090000) translate(-19.082235, -25.616351) " points="19.0869444 23.762372 19.0869444 23.762372 19.0775254 27.47033 19.0775254 27.47033"></polygon>
                    <polygon id="Rectangle" fill="#4788D8" transform="translate(30.800429, 28.987455) rotate(-74.090000) translate(-30.800429, -28.987455) " points="30.8170737 22.4347389 30.8170737 22.4347389 30.7837833 35.5401714 30.7837833 35.5401714"></polygon>
                    <polyline id="Path" fill="#4788D8" points="10.1013447 21.2902973 0 0 32.8103829 4.0312989 60.8142183 35.8873239"></polyline>
                    <g id="Group" opacity="0.3" transform="translate(2.328258, 1.161448)" fill="#FFFFFF">
                        <path d="M53.6956874,32.4034975 C53.6084805,32.4021601 53.5228785,32.3796138 53.4461376,32.3377698 L0.243190261,0.93636132 C0.129977943,0.869057527 0.0480067081,0.758967802 0.0154241377,0.630464867 C-0.0171584327,0.501961932 0.0023355612,0.365646641 0.0695903517,0.251697783 C0.134280663,0.135319993 0.242940706,0.0503958651 0.370740661,0.0163313432 C0.498540616,-0.0177331786 0.63455923,0.00197291816 0.747714999,0.0709466093 L53.9506623,31.4668778 C54.1466926,31.5799227 54.2417984,31.8128223 54.1816413,32.03251 C54.1214842,32.2521977 53.9213922,32.4026969 53.6956874,32.3980202 L53.6956874,32.4034975 Z" id="Path"></path>
                        <path d="M9.48738545,19.3510718 C9.33104015,19.3506444 9.18413675,19.2754685 9.09136065,19.1484114 C8.92843466,18.9271012 8.97194995,18.6146753 9.1890106,18.4473159 L28.5074255,3.76812971 C28.726144,3.60175287 29.0370373,3.64589382 29.2018252,3.86672128 C29.366613,4.08754874 29.3228937,4.40143985 29.1041752,4.56781672 L9.78576029,19.2579576 C9.69908119,19.32114 9.59425836,19.3538522 9.48738545,19.3510718 L9.48738545,19.3510718 Z" id="Path"></path>
                    </g>
                    <path d="M111.163617,84 C108.342619,84 105.86882,83.1455399 104.149096,81.5625978 C102.261197,79.8317684 101.366072,77.3505477 100.498073,74.9514867 C99.7656981,72.9248826 99.0116234,70.8325509 97.6607991,69.1893584 C97.1290146,68.4332536 96.3418158,67.8994979 95.4474003,67.6885759 C94.5468508,67.5461659 93.7005512,67.9186228 92.8054267,68.3184664 C92.0968872,68.6855382 91.3288127,68.9211508 90.5377779,69.0140845 C87.7927293,69.1510172 86.1977801,66.0125196 85.7637803,65.043036 C85.5793304,64.6158059 85.4057305,64.1776213 85.2212806,63.7503912 C84.597406,62.1784038 83.9572563,60.5571205 82.671532,59.5164319 C82.3333461,59.2031285 81.9025752,59.010684 81.4454826,58.9687011 C80.599183,58.9687011 80.0241333,59.64241 79.4111087,60.3818466 C78.798084,61.1212833 78.2284593,61.8223787 77.3496097,61.9593114 C75.6570106,62.2222222 74.6371111,60.157277 74.2953363,59.2589984 C73.3475748,56.7033002 72.5629599,54.0889212 71.9463125,51.4319249 C71.154263,48.3262911 70.3188134,45.1111111 68.9788391,42.1697966 L68.8920391,41.9780908 C68.1271145,40.3348983 67.3350649,38.6040689 65.8540407,37.6784038 C64.9830662,37.2096405 64.0405881,36.8912176 63.0655922,36.7363067 C62.2023716,36.5909276 61.3628092,36.3274165 60.5700935,35.9530516 C60.5083817,35.9074182 60.4918397,35.8215247 60.5321185,35.7558685 C60.5681919,35.6864372 60.6530658,35.6595054 60.7219934,35.6956182 C61.4947107,36.0581193 62.3121514,36.3141905 63.1523921,36.456964 C64.1577254,36.6187234 65.1294039,36.9482074 66.0276406,37.4319249 C67.5791898,38.4014085 68.4254894,40.2363067 69.168714,41.85759 L69.2609389,42.0492958 C70.6280382,45.0125196 71.4309378,48.2386541 72.2446874,51.3607199 C72.8594641,54.0062551 73.6404349,56.6095902 74.5828612,59.1549296 C74.913786,59.9874804 75.8360355,61.8935837 77.3279097,61.6744914 C78.0982593,61.5539906 78.667884,60.8638498 79.2158088,60.2010955 C79.8396834,59.4342723 80.5069581,58.6510172 81.4726076,58.6784038 C81.9933671,58.7215725 82.4854134,58.9372337 82.8722568,59.2918623 C84.2122312,60.3873239 84.8740808,62.0305164 85.5088055,63.6408451 C85.6769804,64.0680751 85.8505803,64.5062598 86.0513052,64.9225352 C86.45818,65.8536776 87.9988792,68.8607199 90.5486279,68.7237872 C91.3051234,68.6309945 92.0396071,68.4048169 92.7186267,68.0555556 C93.6137513,67.6557121 94.5360008,67.2503912 95.5179253,67.4037559 C96.4791235,67.627549 97.3272623,68.1958322 97.904924,69.0031299 C99.2882983,70.6846635 100.074923,72.8043818 100.796448,74.8528951 C101.648172,77.2190923 102.532447,79.6674491 104.366096,81.3544601 C106.199745,83.041471 108.814593,83.8302034 111.825467,83.6932707 C111.883488,83.6818375 111.942628,83.7067387 111.975412,83.7564053 C112.008196,83.8060718 112.008196,83.870767 111.975412,83.9204335 C111.942628,83.9701001 111.883488,83.9950013 111.825467,83.9835681 L111.163617,84 Z" id="Path" stroke="#233238" stroke-width="0.773788235" fill="#263238"></path>
                </g>
                <g id="freepik--character-2--inject-58" transform="translate(94.000000, 133.000000)" fill-rule="nonzero">
                    <path d="M51.6598139,27.1169654 L52.2426984,27.0249801 L52.9617708,26.9005294 C53.4520475,26.7977223 53.9532192,26.705737 54.4489433,26.5758754 C55.4458392,26.3323849 56.4481826,26.0347855 57.439631,25.7155424 C59.4396921,25.0361606 61.3816149,24.1983873 63.2466856,23.2102959 C64.7502006,22.4690027 66.3790087,21.0080598 67.9424464,19.4767753 C69.5058842,17.9454907 71.069322,16.2302355 72.6109697,14.6069657 L75.5635247,16.4250279 C74.6003394,18.676402 73.421908,20.8307924 72.0444278,22.8585875 C71.3332892,23.9036654 70.5563779,24.9030658 69.7183374,25.8508149 C69.2770884,26.3377958 68.8140494,26.8193659 68.3019826,27.2901142 C68.0405018,27.5281937 67.7572308,27.7608624 67.4739599,27.9881202 C67.1906889,28.215378 66.8366002,28.4642794 66.5969094,28.6157845 C65.5483313,29.3419927 64.4568703,30.0051153 63.3283983,30.6015847 C62.2033465,31.2143536 61.0407476,31.7565056 59.8474341,32.2248545 C58.646003,32.7052729 57.4140117,33.1065485 56.1594641,33.4260742 C55.527552,33.5884012 54.8847448,33.7290846 54.2255951,33.8427135 C53.8932965,33.9022334 53.5664454,33.9563424 53.2178042,33.9996296 L52.6730523,34.0537386 L52.3897814,34.0807931 L52.0465877,34.0807931 L51.6598139,27.1169654 Z" id="Path" fill="#FFB573"></path>
                    <path d="M51.1096146,36.1910439 C56.0559613,39.3239547 63.9003878,32.3493052 63.9003878,32.3493052 L61.9447287,23.5674153 C61.9447287,23.5674153 52.4224665,23.4104992 46.9803956,25.1906851 C41.6581701,26.9167621 47.0512134,33.6154557 51.1096146,36.1910439 Z" id="Path" fill="#4788D8"></path>
                    <path d="M71.1837199,16.1815374 L72.7743953,12.7456163 L77.1051724,15.5322295 C77.1051724,15.5322295 75.7541878,18.1781594 72.9160307,18.3242537 L71.1837199,16.1815374 Z" id="Path" fill="#FFB573"></path>
                    <path d="M77.2740455,11.9826794 L77.5082888,12.2694571 C78.1639037,13.0821662 78.1639037,14.2379504 77.5082888,15.0506594 L77.1106199,15.5322295 L72.7743953,12.7456163 L74.1253798,11.6634363 C74.5839,11.2870577 75.1751766,11.1089446 75.766934,11.1689428 C76.3586915,11.2289411 76.9015427,11.5220434 77.2740455,11.9826794 Z" id="Path" fill="#FFB573"></path>
                    <path d="M43.8153874,118.103897 C44.4091669,118.161788 44.9866039,118.103897 45.1990571,117.860756 C45.3118482,117.718829 45.3271769,117.51637 45.2371897,117.357106 C45.1731961,117.210927 45.0547393,117.099729 44.9103386,117.050284 C44.1640286,116.755041 42.4698504,117.577091 42.3990326,117.629192 C42.354893,117.647361 42.3279758,117.695035 42.3336624,117.744974 C42.3367777,117.791687 42.3673837,117.831182 42.4099277,117.843388 C42.8700218,117.975286 43.3404427,118.062481 43.8153874,118.103897 Z M44.6270677,117.223957 C44.6977397,117.229248 44.7673927,117.244831 44.8340734,117.270269 C44.9216208,117.298094 44.9945226,117.363004 45.0356315,117.449731 C45.1010018,117.606036 45.0683167,117.669716 45.0356315,117.710239 C44.7959407,118.005483 43.6301718,117.901279 42.7803589,117.710239 C43.3598104,117.420556 43.9873801,117.255302 44.6270677,117.223957 L44.6270677,117.223957 Z" id="Shape" fill="#4788D8"></path>
                    <path d="M42.4317177,117.776587 L42.4807454,117.776587 C43.0581824,117.581794 44.2511889,116.694407 44.2130563,116.153317 C44.2130563,116.028866 44.1313435,115.866539 43.8371775,115.81243 C43.6192616,115.768018 43.3925548,115.815012 43.2107129,115.942292 C42.5842483,116.369753 42.3445575,117.565562 42.3336624,117.641314 C42.3287974,117.679702 42.343019,117.718044 42.371795,117.744121 C42.3864952,117.762585 42.4081307,117.774307 42.4317177,117.776587 Z M43.7282271,116.023455 L43.7935973,116.023455 C43.989708,116.061332 43.9951555,116.142495 43.9951555,116.164139 C43.9951555,116.483382 43.1943703,117.19221 42.6005908,117.478987 C42.6979586,116.961463 42.9549669,116.48683 43.3360058,116.120852 C43.4504508,116.042044 43.5899094,116.007414 43.7282271,116.023455 L43.7282271,116.023455 Z" id="Shape" fill="#4788D8"></path>
                    <polygon id="Path" fill="#FFB573" points="36.8589064 119.681223 41.467507 120.097863 42.8947568 109.530376 38.2807087 109.113737"></polygon>
                    <path d="M42.0013638,117.094814 L36.9678568,116.640298 C36.7773879,116.623782 36.6008585,116.740677 36.5429504,116.921665 L35.2627835,120.909498 C35.1987461,121.104819 35.2283166,121.318515 35.3430328,121.489433 C35.457749,121.660351 35.6449689,121.769654 35.8511155,121.786063 C37.6705867,121.915925 39.2667096,121.959212 41.5546673,122.164826 C44.2239513,122.402906 43.5157739,122.657218 46.6426495,122.987283 C48.5329384,123.182075 49.0722427,121.077236 48.276905,120.904087 C44.6543053,120.114095 44.3710343,118.983217 43.0799724,117.549329 C42.7893507,117.270615 42.4050991,117.108695 42.0013638,117.094814 L42.0013638,117.094814 Z" id="Path" fill="#263238"></path>
                    <polygon id="Path" fill="#000000" opacity="0.2" points="42.8947568 109.530376 42.0939716 115.471544 37.4799235 115.060315 38.2807087 109.119148"></polygon>
                    <path d="M52.2045658,60.1559179 C52.8695552,68.599151 52.6651216,77.0877567 51.5944437,85.4897494 C49.747735,99.9693165 44.3546917,112.901366 44.3546917,112.901366 L36.6791383,110.904744 C36.6791383,110.904744 38.4659244,100.034247 39.4028975,85.727829 C40.4433735,70.1390275 35.9709609,58.6733314 35.9709609,58.6733314 L52.2045658,60.1559179 Z" id="Path" fill="#263238"></path>
                    <path d="M38.67293,66.3243433 C42.7040937,67.579672 41.1569984,74.3324746 39.533638,78.8613975 C39.4176126,74.6464706 38.9309317,70.4496806 38.0791505,66.3189324 L38.67293,66.3243433 Z" id="Path" fill="#000000" opacity="0.3"></path>
                    <path d="M8.10690429,104.454952 C8.43920291,104.947344 8.83142423,105.369394 9.15827534,105.380216 C9.33437275,105.37913 9.49103745,105.268905 9.55049666,105.10426 C9.6111347,104.966255 9.6111347,104.809393 9.55049666,104.671388 C9.28901578,103.924684 7.61662763,103.113049 7.54580989,103.080584 C7.50822273,103.054345 7.45810413,103.054345 7.42051697,103.080584 C7.38798152,103.11335 7.37737567,103.161809 7.39327937,103.205034 C7.59152245,103.642801 7.83043166,104.061252 8.10690429,104.454952 Z M9.26177819,104.557759 C9.30283059,104.614309 9.33582715,104.676217 9.35983352,104.74173 C9.39585299,104.826487 9.39585299,104.922107 9.35983352,105.006864 C9.28901578,105.147547 9.21819804,105.16378 9.16917037,105.158369 C8.80418664,105.158369 8.1395894,104.195229 7.75281559,103.42147 C8.32583265,103.700838 8.83841213,104.088662 9.26177819,104.56317 L9.26177819,104.557759 Z" id="Shape" fill="#4788D8"></path>
                    <path d="M7.40417441,103.256717 L7.43685952,103.2902 C7.98161136,103.619446 9.4143087,103.976594 9.79563499,103.602705 C9.8882428,103.513418 9.96450806,103.351585 9.79563499,103.078143 C9.69283393,102.877685 9.51323357,102.730094 9.29991082,102.670771 C8.56994335,102.453134 7.46954463,103.066982 7.42051697,103.094885 C7.38809025,103.115262 7.36767287,103.150818 7.36604178,103.189752 C7.37096827,103.215859 7.38441535,103.239474 7.40417441,103.256717 Z M9.58318177,103.128367 L9.61586688,103.184172 C9.7084747,103.362746 9.65399951,103.41855 9.61586688,103.440872 C9.38162359,103.66409 8.30846247,103.479935 7.70378792,103.195333 C8.16973967,102.935983 8.70199682,102.828881 9.22909308,102.888408 C9.38108835,102.916553 9.51720032,103.002205 9.61041936,103.128367 L9.58318177,103.128367 Z" id="Shape" fill="#4788D8"></path>
                    <polygon id="Path" fill="#FFB573" points="2.397905 100.174931 5.00726631 103.973382 14.1209646 98.3460467 11.5116033 94.5475952"></polygon>
                    <path d="M7.67655033,102.474563 L4.82749821,98.3244031 C4.72073836,98.1683109 4.51874682,98.1074445 4.34266907,98.1783088 L0.425903336,99.7366479 C0.234378794,99.8122934 0.0881040657,99.9706539 0.0286839311,100.166687 C-0.0307362036,100.36272 0.00320081208,100.574973 0.120842305,100.743075 C1.17766088,102.220251 2.75199369,104.325091 4.04305556,106.202673 C5.55746567,108.404909 4.44617192,107.046773 6.22206292,109.627772 C7.3115666,111.186111 9.18006541,110.542214 8.87500438,109.790099 C7.48588719,106.375822 7.72013048,105.46138 8.00884895,103.589208 C8.04361719,103.189325 7.92491832,102.791168 7.67655033,102.474563 Z" id="Path" fill="#263238"></path>
                    <polygon id="Path" fill="#000000" opacity="0.2" points="14.1209646 98.3460467 8.99484979 101.511423 6.38004095 97.7129714 11.5061558 94.5475952"></polygon>
                    <path d="M43.4558512,59.3659265 C43.4558512,59.3659265 40.0620472,72.8931753 33.617633,84.7322235 C26.5630966,97.7183823 12.3341786,101.830666 12.3341786,101.830666 L7.91079362,95.1698487 C7.91079362,95.1698487 17.2478402,88.2384864 21.8782308,80.2682314 C26.1436377,65.3016833 27.5599925,57.9374491 27.5599925,57.9374491 L43.4558512,59.3659265 Z" id="Path" fill="#263238"></path>
                    <path d="M14.4423682,101.85772 C14.4423682,101.890186 11.4298905,103.156336 11.4298905,103.156336 L6.48899132,95.0399871 L8.83687175,93.3247319 L14.4423682,101.85772 Z" id="Path" fill="#4788D8"></path>
                    <path d="M45.8418643,111.526998 C45.8799969,111.526998 44.9321287,114.66532 44.9321287,114.66532 L35.4915793,113.296362 L35.6550049,110.401531 L45.8418643,111.526998 Z" id="Path" fill="#4788D8"></path>
                    <path d="M55.4186016,30.4609013 C55.674635,34.7896209 56.3228897,45.07033 53.1034063,61.49241 L25.925737,59.501199 C26.083715,56.0274015 30.6487354,44.2857496 29.5428892,28.6590717 C29.4546763,27.5135862 29.8397847,26.3817961 30.6095309,25.5243323 C31.3792771,24.6668685 32.4673119,24.1576412 33.6230805,24.1139161 C34.8378771,24.0706289 36.1834141,24.0598072 37.5017136,24.1139161 C41.0081379,24.2187663 44.5056821,24.52227 47.9772915,25.0229473 C49.3119335,25.2664377 50.6084429,25.5910917 51.7197366,25.9049239 C53.80744,26.4805365 55.2946357,28.3123497 55.4186016,30.4609013 L55.4186016,30.4609013 Z" id="Path" fill="#4788D8"></path>
                    <path d="M29.6845247,35.0926313 C29.624602,37.7331502 29.4339388,40.222164 29.1397728,42.538029 C32.0596427,39.6377869 32.4082839,35.0926313 32.4082839,35.0926313 L29.6845247,35.0926313 Z" id="Path" fill="#000000" opacity="0.3"></path>
                    <path d="M63.0560224,28.5670865 L62.5875358,33.112242 L56.7804812,32.6577265 L57.3252331,27.1331981 L62.8108841,27.5606591 L62.7182763,27.138609 L57.3688132,26.7273806 L57.6847693,23.6485788 L57.597609,23.6485788 C57.4832111,23.6485788 57.3633657,23.6485788 57.2489678,23.6485788 L56.9330117,26.6678607 L51.1259571,26.2133452 L51.3384103,24.2004905 C51.2022224,24.2004905 51.0605869,24.2437777 50.9243989,24.2600104 L50.8917138,24.2600104 L50.6956032,26.1754689 L44.8885485,25.7263642 L45.0029464,24.606308 L44.5725925,24.5630208 L44.4581946,25.6884879 L38.6456925,25.2393832 L38.7600903,24.1572033 L38.7600903,24.1572033 L38.4332392,24.1572033 L38.3242889,24.1572033 L38.2153385,25.2393832 L32.4082839,24.7902786 L32.451864,24.2978867 L32.451864,24.2059014 C32.3038966,24.2093248 32.1563978,24.2237947 32.010615,24.2491886 L31.9833774,24.4656246 L31.9561399,24.7524023 L31.5148909,24.7199369 C31.323281,24.8272584 31.1410598,24.9503359 30.970139,25.0878781 L31.8962172,25.1636307 L31.3732554,30.6827482 L29.624602,30.5474757 C29.624602,30.6881591 29.624602,30.8234316 29.624602,30.9641149 L31.3078852,31.0939765 L30.7631333,36.6239158 L29.624602,36.5319305 L29.624602,36.9485698 L30.7141057,37.0351442 L30.1693538,42.5596726 L29.1615629,42.48392 C29.1615629,42.6191925 29.1343253,42.7598759 29.1125353,42.8951484 L30.1257737,42.9763119 L29.5810218,48.5008403 L28.2681699,48.3980332 L28.1864571,48.8092616 L29.5374417,48.9066578 L28.9926898,54.4365971 L27.0152407,54.2850919 L26.9171853,54.6909093 L28.9491097,54.8478254 L28.447938,59.6797587 L28.8837395,59.7122241 L29.3849112,54.8857017 L35.1865183,55.3348064 L34.6907941,60.1342743 L34.6907941,60.1342743 L35.1157005,60.1667397 L35.1157005,60.1667397 L35.6114247,55.3618609 L41.4184793,55.8109655 L40.9282027,60.5887898 L41.3585566,60.6266661 L41.3585566,60.6266661 L41.8488333,55.8542527 L47.6558879,56.3033574 L47.1710588,61.0541272 L47.6014127,61.0865926 L48.0862419,56.3358228 L53.898744,56.7903384 L53.7680035,58.1051869 C53.8497163,57.6344387 53.9259816,57.1691013 54.0022468,56.7091749 C54.3654147,54.3933099 54.6686599,52.2199319 54.9119824,50.1890409 C55.0536179,48.9715885 55.1680158,47.8028342 55.2660711,46.6881889 C55.2987562,46.363535 55.3205463,46.0442919 55.3477839,45.7304597 C55.380469,45.3192314 55.4131541,44.9188248 55.4349442,44.5238291 C55.4785243,43.8636994 55.516657,43.2198024 55.5493421,42.5975489 C55.6038172,41.5802998 55.6419499,40.6171597 55.6582924,39.7027177 L55.1244356,44.5021855 L49.317381,44.0530809 L49.894818,38.5501961 L55.6473974,38.9938898 C55.6473974,38.8477955 55.6473974,38.7125231 55.6473974,38.5772506 L49.9329506,38.1335568 L50.4994925,32.5982066 L56.3065471,33.0473113 L55.9252208,36.775421 L56.2411769,36.7050793 L56.3719173,36.6617921 L56.7369011,33.0797767 L62.4295578,33.5234704 C62.6474585,33.3665543 62.8490167,33.2096382 63.0287848,33.0743658 L63.3556359,29.9144004 L63.0560224,28.5670865 Z M38.6293499,25.6776661 L44.4472996,26.1051272 L43.9025477,31.6350665 L38.0954931,31.1805509 L38.6293499,25.6776661 Z M43.0309448,43.9610956 L48.8434469,44.4102002 L48.2605624,49.9563723 L42.4535078,49.5018567 L43.0309448,43.9610956 Z M42.0340489,49.4531586 L36.2269943,48.998643 L36.7717461,43.4741146 L42.5788007,43.9286302 L42.0340489,49.4531586 Z M42.644171,43.5011691 L36.8207738,43.079119 L37.3927632,37.5545906 L43.1998178,38.0036952 L42.644171,43.5011691 Z M37.4472384,37.1108968 L37.9919902,31.5863684 L43.8044924,32.035473 L43.232503,37.5600015 L37.4472384,37.1108968 Z M32.3864938,25.1582198 L38.1935484,25.6127353 L37.6487966,31.1372637 L31.8362945,30.6827482 L32.3864938,25.1582198 Z M31.7763718,31.1102092 L37.5834264,31.5647248 L37.0386745,37.0892532 L31.2370674,36.6401485 L31.7763718,31.1102092 Z M31.1608022,37.0621987 L36.9733043,37.5113034 L36.4285525,43.0412427 L30.6160503,42.5867271 L31.1608022,37.0621987 Z M30.5561276,43.0141882 L36.3631822,43.4687037 L35.7911928,48.9932321 L29.9841382,48.5441275 L30.5561276,43.0141882 Z M35.1810708,54.9181671 L29.3740161,54.4636516 L29.918768,48.9391231 L35.7312701,49.3719951 L35.1810708,54.9181671 Z M41.4239268,55.4051481 L35.6114247,54.9506325 L36.1561765,49.4206932 L41.9686787,49.8752088 L41.4239268,55.4051481 Z M47.6613354,55.8867181 L41.8542808,55.4376135 L42.4262702,49.9130851 L48.2333248,50.3676006 L47.6613354,55.8867181 Z M53.9041915,56.3682882 L48.0971369,55.9191835 L48.6418887,50.3946551 L54.4489433,50.8437598 L53.9041915,56.3682882 Z M55.0808555,44.9134139 L54.5361036,50.4379423 L48.7236015,49.9888377 L49.2955909,44.4534874 L55.0808555,44.9134139 Z M48.8870271,44.0097937 L43.0799724,43.560689 L43.6247243,38.0307497 L49.4317789,38.4852653 L48.8870271,44.0097937 Z M49.4971491,38.0578042 L43.684647,37.6032887 L44.2293988,32.0787602 L50.0364534,32.5278649 L49.4971491,38.0578042 Z M50.1072712,32.1058147 L44.3002166,31.6512992 L44.8449684,26.1213599 L50.6574705,26.5812863 L50.1072712,32.1058147 Z M56.3501273,32.5873848 L50.5376251,32.1382801 L51.082377,26.6083408 L56.8948791,27.0628564 L56.3501273,32.5873848 Z" id="Shape" fill="#FFFFFF" opacity="0.3"></path>
                    <path d="M40.3289756,16.2843445 C40.3289756,19.5308843 39.7842238,23.2102959 37.8013271,24.6495952 C37.8013271,24.6495952 40.0729423,29.1622854 46.658992,29.1676963 C51.4473607,29.1676963 48.8979221,25.8399931 48.8979221,25.8399931 C45.7873891,24.1572033 45.9998423,21.7926403 46.9803956,19.2711611 L42.3391099,15.2129864 C41.5710098,14.4500496 40.3289756,15.0993575 40.3289756,16.2843445 Z" id="Path" fill="#FFB573"></path>
                    <path d="M40.3289756,16.2843445 C40.3289756,15.0993575 41.5655623,14.4500496 42.3391099,15.2021646 L46.9803956,19.2549284 C46.4746851,20.3550074 46.2716766,21.5686048 46.3920636,22.7720131 C45.3009753,22.8118751 44.2165321,22.5871586 43.232503,22.1172942 C41.9518311,21.5432702 40.873978,20.6008339 40.1383125,19.4118445 C40.2691746,18.3744707 40.33286,17.3298228 40.3289756,16.2843445 Z" id="Path" fill="#000000" opacity="0.2"></path>
                    <path d="M34.96317,12.3397988 C36.5974255,16.6306421 37.316498,19.2332848 40.5087438,20.726693 C45.3080075,22.9722163 50.8208961,19.1034232 50.6683656,14.3959406 C50.5321776,10.1375627 47.5469375,3.48756717 42.1593418,3.2062004 C36.7717461,2.92483362 33.3180195,8.05436637 34.96317,12.3397988 Z" id="Path" fill="#FFB573"></path>
                    <path d="M32.0269576,11.4956985 C32.293886,13.7033455 35.7585077,15.5376404 35.7585077,15.5376404 L39.1958918,15.23463 C39.1958918,15.23463 36.9515142,13.0702702 37.5616363,10.2241371 C38.1717584,7.37800393 32.3647037,7.7080688 32.0269576,11.4956985 Z" id="Path" fill="#263238"></path>
                    <path d="M33.3888372,2.60017965 C29.5156516,5.54911989 31.1008795,9.24476426 30.1802489,12.1233628 C32.8277428,12.9566413 37.169415,10.6407763 39.1087315,9.62352723 C39.4573727,9.44496754 39.8114614,9.28805146 40.1383125,9.08243728 C40.6449317,8.774016 40.5577714,6.76116138 40.5577714,6.76116138 C40.5577714,6.76116138 41.2169211,8.10306446 41.1678935,8.53593642 C44.1150009,6.96677556 46.6698871,5.4733673 47.3017992,4.2775585 C46.5064615,0.809171908 40.0075721,-2.4427787 33.3888372,2.60017965 Z" id="Path" fill="#263238"></path>
                    <path d="M47.0403183,14.1145738 L47.0403183,14.1145738 C46.0013723,14.7014952 44.7404923,14.7519141 43.6574094,14.2498463 C43.5942197,14.2142775 43.570251,14.1357126 43.6029342,14.0712866 C43.6384867,14.0112415 43.7154032,13.9897542 43.7772548,14.0225885 C44.7850428,14.4771287 45.9506761,14.4268771 46.9150254,13.8873161 C46.9774179,13.8587541 47.0514228,13.8830289 47.0844204,13.9428804 C47.117418,14.0027318 47.0981508,14.0777408 47.0403183,14.1145738 L47.0403183,14.1145738 Z" id="Path" fill="#263238"></path>
                    <path d="M43.4395087,10.657009 C43.6356193,11.0141284 43.9842605,11.198099 44.2130563,11.0736483 C44.441852,10.9491976 44.4799847,10.5325583 44.2893215,10.2024935 C44.0986584,9.87242861 43.7445697,9.66140352 43.5103264,9.78585421 C43.2760831,9.9103049 43.243398,10.2998897 43.4395087,10.657009 Z" id="Path" fill="#263238"></path>
                    <path d="M47.4597772,8.8605904 C47.6558879,9.21770976 48.0045291,9.40168035 48.2333248,9.27722966 C48.4621206,9.15277897 48.5002533,8.73613971 48.3041426,8.40066394 C48.1080319,8.06518817 47.7593907,7.85957398 47.530595,7.98943557 C47.3017992,8.11929716 47.2636666,8.50347103 47.4597772,8.8605904 Z" id="Path" fill="#263238"></path>
                    <path d="M41.7235404,11.0682374 C41.7982994,11.0156628 41.8363547,10.9253641 41.8215957,10.8355687 C41.7217422,10.2472231 41.905226,9.64639765 42.3173199,9.21229886 C42.4101093,9.11946422 42.4101093,8.96965774 42.3173199,8.87682309 C42.2731548,8.8311874 42.2121763,8.80539559 42.1484468,8.80539559 C42.0847173,8.80539559 42.0237388,8.8311874 41.9795737,8.87682309 C41.4390714,9.42300006 41.197601,10.1949452 41.331319,10.9491976 C41.3535912,11.0775495 41.4736082,11.165765 41.603695,11.1494009 C41.650685,11.134387 41.6923039,11.1062013 41.7235404,11.0682374 Z" id="Path" fill="#263238"></path>
                    <path d="M48.9523973,6.41486381 C49.000329,6.39811525 49.0395474,6.36305593 49.0613476,6.31746762 C49.0954223,6.26459614 49.1065415,6.20029147 49.0921803,6.13915692 C49.077819,6.07802237 49.039196,6.0252462 48.9850824,5.99281365 C48.3351137,5.57701137 47.5218025,5.5022858 46.806075,5.79261037 C46.7171968,5.82050864 46.6526618,5.89705615 46.640619,5.98886424 C46.6285762,6.08067232 46.6712099,6.17108918 46.7499241,6.22067657 C46.8286382,6.27026397 46.929156,6.27002794 47.0076332,6.22007143 L47.0076332,6.22007143 C47.5772668,6.00346626 48.216761,6.06979996 48.729049,6.39863111 C48.7962206,6.44037859 48.8798232,6.44645473 48.9523973,6.41486381 L48.9523973,6.41486381 Z" id="Path" fill="#263238"></path>
                    <path d="M46.658992,9.62352723 C47.4835073,10.4136132 48.4149244,11.0856262 49.4263314,11.6201492 C49.1282026,12.1249216 48.6226428,12.474853 48.0426617,12.5778784 L46.658992,9.62352723 Z" id="Path" fill="#ED893E"></path>
                    <path d="M35.2355459,16.7875582 C35.9532885,17.409199 36.8823517,17.7361513 37.8340122,17.7020002 C39.0106762,17.6208367 39.0161237,16.3763298 38.1989959,15.396957 C37.4690285,14.5149804 35.9764084,13.4923204 35.0285402,14.0604648 C34.080672,14.6286093 34.2931253,15.992156 35.2355459,16.7875582 Z" id="Path" fill="#FFB573"></path>
                    <path d="M33.3724946,32.5982066 L32.2503059,33.8751789 L31.1008795,35.217082 C30.3327794,36.1152913 29.5810218,37.0297333 28.8292643,37.9225317 C27.3330126,39.7694521 25.880341,41.6524451 24.4712496,43.5715108 L24.3405091,43.7500705 L24.307824,43.7933577 L24.307824,43.7933577 C24.307824,43.7933577 24.307824,43.7933577 24.307824,43.7663032 C24.3302088,43.7030219 24.3466219,43.6378105 24.3568517,43.5715108 C24.40025,43.3759652 24.3908536,43.1725008 24.3296141,42.9817228 C24.1988737,42.6733015 24.1661885,42.8735048 24.3731942,43.1115844 C24.638789,43.4360982 24.9382589,43.7317413 25.2665873,43.993561 C25.6744624,44.3228131 26.0999921,44.6298805 26.5413066,44.9134139 C28.5311786,46.1451983 30.5900402,47.2634567 32.7078974,48.2627607 L31.7654767,51.585053 C30.465231,51.417583 29.1770188,51.1681787 27.9086337,50.8383489 C26.6096526,50.5108994 25.3354297,50.0932324 24.0953708,49.5884311 C23.4325124,49.3150283 22.7867334,49.0024402 22.1615018,48.6523455 C21.4394812,48.2575912 20.7666423,47.7799632 20.156815,47.2292789 C19.7760752,46.8810469 19.434513,46.4927958 19.1381291,46.0713464 C18.7481119,45.5198587 18.4637259,44.9017168 18.2992112,44.2478733 C18.1130806,43.4506321 18.1261721,42.6202624 18.3373438,41.8292012 C18.4392984,41.4680424 18.5780178,41.118136 18.7513552,40.7848976 L18.969256,40.3899019 L19.0891014,40.1788768 C19.726461,39.0696424 20.3856108,37.9712298 21.0937882,36.8998717 C21.8019656,35.8285136 22.5155905,34.7733882 23.2727955,33.7399064 C24.0300006,32.7064246 24.8144432,31.6945864 25.6370185,30.7043918 C26.0455824,30.2119999 26.4595938,29.719608 26.8953953,29.238038 C27.3311967,28.7564679 27.7506556,28.2965415 28.2627224,27.7716842 L33.3724946,32.5982066 Z" id="Path" fill="#FFB573"></path>
                    <path d="M29.8533978,48.0679683 L33.617633,47.4781803 L33.6830032,52.607713 C33.6830032,52.607713 30.7141057,52.9540106 29.0199274,50.6868437 L29.8533978,48.0679683 Z" id="Path" fill="#FFB573"></path>
                    <path d="M36.7826412,50.0700011 L35.9437233,51.909707 C35.6950989,52.4570736 35.1163643,52.7796007 34.5164735,52.7051092 L33.6830032,52.607713 L33.617633,47.4781803 L35.9273808,48.1870081 C36.3071342,48.3041316 36.6181484,48.5772876 36.7816719,48.9373107 C36.9451953,49.2973339 36.9455482,49.7097024 36.7826412,50.0700011 L36.7826412,50.0700011 Z" id="Path" fill="#FFB573"></path>
                    <path d="M32.8114002,24.1842578 C26.9444229,24.1842578 21.3007939,33.4801832 21.3007939,33.4801832 L27.0915059,42.7761086 C27.0915059,42.7761086 30.8775312,38.6421814 34.5055785,34.24312 C38.051913,29.936044 37.6270065,24.1842578 32.8114002,24.1842578 Z" id="Path" fill="#4788D8"></path>
                    <path d="M36.1779666,31.4727395 C36.2400468,31.3412738 36.2928339,31.2056733 36.3359447,31.066922 L31.8145044,30.7152136 L32.3864938,25.1906851 L35.9001432,25.466641 C35.7671851,25.2984644 35.6134465,25.1475772 35.4425516,25.0175364 L32.430074,24.7848677 L32.4899967,24.2004905 L32.2720959,24.2004905 L32.2720959,24.2004905 C32.2067257,24.2004905 32.135908,24.2004905 32.0705377,24.2329559 L32.0160626,24.7361696 L30.52889,24.6171298 C30.2565141,24.7199369 29.9841382,24.8389767 29.7172098,24.9688383 L31.9779299,25.147398 L31.3732554,30.6827482 L25.5662008,30.2336435 L25.8113391,27.836615 L25.4626979,28.1829126 L25.32651,28.323596 L25.1303993,30.2011781 L23.7521771,30.0929601 C23.6813594,30.1687127 23.6159892,30.2498762 23.550619,30.3310397 L23.5015913,30.3851487 C23.4806544,30.4177498 23.456963,30.4485225 23.4307736,30.477134 L23.4307736,30.477134 L25.0650291,30.6069956 L24.5202772,36.1423458 L22.8587841,36.0070733 L22.8587841,36.0070733 L23.0821324,36.3533709 L23.1366076,36.4399453 L24.4821446,36.5481632 L24.3023765,38.3121165 L24.3023765,38.3121165 L24.6728078,38.9019045 L24.9124986,36.5806286 L30.7195532,37.0297333 L30.52889,38.9019045 C30.6868681,38.717934 30.8557411,38.5339634 31.0191667,38.3608146 L31.1499071,37.0838423 L32.0596427,37.154184 L32.3919413,36.7645992 L31.1989348,36.6726139 L31.7436866,31.1426746 L36.1779666,31.4727395 Z M30.7740284,36.6239158 L24.9669737,36.1694003 L25.5117256,30.6448719 L31.3187802,31.0939765 L30.7740284,36.6239158 Z" id="Shape" fill="#FFFFFF" opacity="0.3"></path>
                </g>
                <g id="freepik--character-1--inject-58" transform="translate(31.000000, 141.000000)" fill-rule="nonzero">
                    <path d="M42.6996754,6.22461303 C42.8418482,6.6832183 43.2027482,6.97996288 43.5034983,6.88824183 C43.8042484,6.79652078 43.9354848,6.34870622 43.7987802,5.90089167 C43.6620756,5.45307711 43.2957074,5.14554181 42.9949573,5.23726287 C42.6942072,5.32898392 42.5575027,5.77140312 42.6996754,6.22461303 Z" id="Path" fill="#263238"></path>
                    <path d="M43.5909892,6.88824183 C44.2565771,7.72115553 45.0348497,8.46001674 45.9040306,9.08415176 C45.562463,9.5186711 45.0445581,9.78305325 44.4877712,9.80712948 L43.5909892,6.88824183 Z" id="Path" fill="#A02724"></path>
                    <path d="M40.5124022,5.16712324 C40.5705431,5.15045166 40.6220845,5.11654835 40.6600432,5.07000683 C41.0816246,4.49109342 41.7584783,4.14614346 42.4809481,4.14200558 C42.5937044,4.1821966 42.7198956,4.14828903 42.7964281,4.05723612 C42.8729607,3.96618321 42.8833903,3.83754924 42.8225024,3.7356491 C42.7616144,3.63374896 42.6424916,3.58047766 42.5246936,3.60246997 C41.6091654,3.58835342 40.7440553,4.01514758 40.206184,4.74628546 C40.160357,4.80561709 40.1403645,4.8805135 40.1506255,4.9544208 C40.1608864,5.0283281 40.2005558,5.09516051 40.2608658,5.14014646 C40.3355149,5.18830944 40.4290088,5.19833648 40.5124022,5.16712324 Z" id="Path" fill="#263238"></path>
                    <path d="M36.0558332,13.6216462 C36.0175559,16.6214642 35.541824,20.0960735 33.8357509,21.4341218 C33.8357509,21.4341218 34.3114828,24.6713355 39.8944976,25.2756154 C46.0297988,25.9284535 43.1754073,22.4268674 43.1754073,22.4268674 C40.5725523,20.8945862 40.7803432,18.693281 41.6279116,16.3355103 L37.7783108,12.6073193 C37.1166607,11.9005276 36.0667695,12.5209936 36.0558332,13.6216462 Z" id="Path" fill="#B55B52"></path>
                    <path d="M33.031928,22.0384017 C32.763987,20.9593305 32.4851097,19.7615615 33.5185963,19.5673286 C34.6669147,19.3515144 40.6272341,19.9072361 42.5739072,20.9755166 C43.663229,21.5451781 44.10631,22.8590938 43.5800529,23.9591485 L33.031928,22.0384017 Z" id="Path" fill="#263238"></path>
                    <path d="M31.3750686,26.9913386 C31.2274276,27.0938504 30.997764,27.2665018 30.8282503,27.4175718 L30.2103456,27.8977584 C29.8002319,28.2214798 29.4010545,28.5667826 29.0073454,28.9120854 C28.2144588,29.6080863 27.4653178,30.3418548 26.7489858,31.0702278 C26.0419197,31.8234857 25.3791832,32.6161039 24.7640354,33.4441845 C24.1709133,34.2592212 23.635579,35.1137226 23.1618578,36.0015833 L23.3587124,34.8793492 C23.3840926,35.7017464 23.4626294,36.5217078 23.5938443,37.3342362 C23.7326172,38.1809536 23.9151277,39.0201253 24.1406626,39.8484722 C24.3593899,40.6901477 24.6218627,41.5318233 24.9116764,42.3734988 C25.2014901,43.2151744 25.5405174,44.073036 25.8522038,44.8499673 L25.8904811,44.936293 C26.1183711,45.5158864 25.8907515,46.1732182 25.3510643,46.4940492 C24.8113771,46.8148802 24.1160253,46.7062324 23.7032079,46.2365738 C23.347776,45.8211314 23.0579624,45.4434564 22.7626805,45.0334094 C22.4673986,44.6233623 22.1885213,44.2187106 21.9205803,43.7978728 C21.3856294,42.9527666 20.9052963,42.0751744 20.4824482,41.1703344 C20.0484485,40.2481432 19.6829404,39.2960534 19.3888116,38.3215864 C19.0800589,37.3177774 18.8533152,36.2911736 18.7107569,35.2516288 C18.6626334,34.9244131 18.706125,34.5904425 18.8365251,34.2858601 L18.9076115,34.1293947 C19.3905783,32.9475472 19.9817672,31.8116173 20.6738346,30.7357157 C21.3430841,29.674738 22.0944639,28.6663989 22.9212578,27.7197117 C23.7300701,26.7770874 24.601428,25.8884958 25.529581,25.0598011 C25.9943766,24.6497541 26.4646403,24.2504977 26.9567768,23.8620321 C27.1973768,23.6677993 27.4434451,23.4735664 27.7004497,23.2901243 C27.9574543,23.1066822 28.2035225,22.9340308 28.5316135,22.7128212 C29.7011355,21.9590418 31.2656928,22.2553487 32.0692503,23.3828037 C32.8728078,24.5102588 32.6262577,26.0632208 31.5117732,26.8942222 L31.3750686,26.9913386 Z" id="Path" fill="#B55B52"></path>
                    <path d="M27.1809723,43.1720115 L23.9875534,42.4004756 L22.3142895,44.3589899 C22.9540669,46.9109933 25.6498811,47.6717385 25.6498811,47.6717385 L26.7763267,48.2598323 C27.2908784,48.5297929 27.9266444,48.4083802 28.3019498,47.9684831 L29.5322909,46.5441091 C29.9742317,46.0239867 29.9057164,45.2489696 29.3791818,44.8121998 L27.6785769,43.4201979 C27.5349252,43.2998198 27.3643926,43.2147646 27.1809723,43.1720115 Z" id="Path" fill="#B55B52"></path>
                    <path d="M38.9703747,53.7145373 C38.9703747,53.7145373 35.7878922,66.2965077 29.7455501,77.346197 C23.1290487,89.4479807 5.61445882,95.5663145 5.61445882,95.5663145 L3.87557665,92.7391479 C3.87557665,92.7391479 17.8905295,82.9195998 22.7626805,76.2941026 C24.0477035,65.0717619 25.4967719,52.4628147 25.4967719,52.4628147 L38.9703747,53.7145373 Z" id="Path" fill="#B55B52"></path>
                    <path d="M7.23850915,97.1309678 C7.58847285,97.5572009 7.98218202,97.9240851 8.29386845,97.9078991 C8.45655861,97.8939247 8.59361666,97.7823041 8.63836398,97.6273405 C8.69010629,97.4991512 8.69010629,97.3562735 8.63836398,97.2280842 C8.33761391,96.5482693 6.71356359,95.9116173 6.64794539,95.8846405 C6.61314576,95.8618727 6.56791318,95.8618727 6.53311355,95.8846405 C6.51140154,95.9193701 6.51140154,95.9632134 6.53311355,95.997943 C6.73608708,96.3942143 6.97202802,96.7731888 7.23850915,97.1309678 L7.23850915,97.1309678 Z M8.33214573,97.1309678 C8.37570067,97.1808208 8.41078658,97.2373038 8.43604121,97.2982238 C8.47113127,97.3754512 8.47113127,97.4637875 8.43604121,97.5410148 C8.38135938,97.6758987 8.31574118,97.6920848 8.27199572,97.6974802 C7.92750019,97.6974802 7.23304096,96.8719907 6.81745906,96.1813851 C7.38081564,96.3982131 7.89410676,96.7248399 8.32667755,97.1417585 L8.33214573,97.1309678 Z" id="Shape" fill="#4788D8"></path>
                    <path d="M6.51124082,96.1258893 L6.54404991,96.1562295 C7.05805911,96.4474949 8.44150939,96.6962841 8.77506855,96.2897261 C8.85162311,96.1926376 8.91177312,96.0227328 8.77506855,95.7557396 C8.66405291,95.5623111 8.48596332,95.4283649 8.28293209,95.3855898 C7.58300467,95.221753 6.59326356,95.9317124 6.55498628,95.9620525 C6.52377958,95.9848517 6.50522103,96.0237522 6.50577263,96.065209 C6.50236681,96.0856017 6.50426347,96.1066489 6.51124082,96.1258893 L6.51124082,96.1258893 Z M8.55087305,95.8285559 L8.58368215,95.8831682 C8.68757762,96.053073 8.63836398,96.1137533 8.62195943,96.1380254 C8.41963666,96.3807465 7.40255463,96.2836581 6.81745906,96.0409369 C7.23462056,95.7398597 7.72550332,95.5893697 8.22278207,95.6101069 C8.35228332,95.636703 8.46878394,95.7142712 8.55087305,95.8285559 Z" id="Shape" fill="#4788D8"></path>
                    <path d="M6.69715904,95.3127328 L4.42239494,92.5017523 C4.18400675,92.2096611 3.76996836,92.1238937 3.43265383,92.2967287 L0.430621404,93.8451959 C0.216499651,93.9525872 0.0637658529,94.1505362 0.0158404552,94.3827685 C-0.0320849424,94.6150008 0.0300397384,94.8561166 0.184553172,95.0375696 C1.13054882,96.1598037 2.29527178,97.4600845 3.57482659,99.0355285 C5.14419509,100.972461 4.00681304,99.7908783 5.84959068,102.062323 C6.94322727,103.432744 8.68210944,102.704371 8.3430821,102.029951 C6.85573634,99.0625053 6.94869545,98.1776669 7.07993184,96.5158972 C7.08705422,96.084626 6.95279828,95.6626212 6.69715904,95.3127328 L6.69715904,95.3127328 Z" id="Path" fill="#263238"></path>
                    <path d="M45.2041032,54.2756544 C46.7129724,62.0589772 46.9749849,70.0276749 45.9805852,77.891128 C44.2526394,91.3795182 37.1658743,108.407262 37.1658743,108.407262 L33.3381463,107.910889 C33.3381463,107.910889 37.3080471,93.3434278 38.1993609,80.0330843 C36.6682697,67.7316724 32.0039096,53.1102574 32.0039096,53.1102574 L45.2041032,54.2756544 Z" id="Path" fill="#B55B52"></path>
                    <path d="M39.309402,108.51797 C39.8562203,108.573934 40.4030386,108.51797 40.6108295,108.275457 C40.7144195,108.13 40.7275062,107.926613 40.6436386,107.765558 C40.5798329,107.62298 40.4701596,107.513852 40.3374204,107.460862 C39.637493,107.162385 38.0462517,107.989416 37.9806336,108.026726 C37.9401904,108.043667 37.9152916,108.09 37.9204835,108.138655 C37.9211858,108.187824 37.9500267,108.230712 37.9915699,108.244366 C38.4236267,108.375899 38.8643465,108.4674 39.309402,108.51797 L39.309402,108.51797 Z M40.0694794,107.634974 C40.136246,107.641693 40.2022182,107.656281 40.266334,107.678502 C40.3483256,107.708772 40.4156314,107.776306 40.4522522,107.86505 C40.5178704,108.014289 40.4850613,108.088909 40.4522522,108.126218 C40.2280567,108.424696 39.1344202,108.318985 38.3415336,108.126218 C38.8844203,107.837772 39.4710964,107.670984 40.0694794,107.634974 L40.0694794,107.634974 Z" id="Shape" fill="#4788D8"></path>
                    <path d="M38.0134427,108.132099 L38.0571881,108.132099 C38.6040064,107.943261 39.697643,107.112377 39.697643,106.626794 C39.697643,106.508097 39.6210884,106.362422 39.3422111,106.308468 C39.1399211,106.268733 38.9299916,106.313677 38.7625837,106.432562 C38.1665518,106.826423 37.9478245,107.964843 37.9368881,108.013401 C37.9294876,108.04923 37.9419893,108.086236 37.9696972,108.110517 C37.9817154,108.121933 37.9969758,108.129462 38.0134427,108.132099 L38.0134427,108.132099 Z M39.2273793,106.513492 L39.2875293,106.513492 C39.4734475,106.545864 39.4789157,106.621399 39.4789157,106.642981 C39.4789157,106.939725 38.7297746,107.603354 38.1665518,107.867726 C38.2613619,107.386585 38.5038002,106.945837 38.861011,106.605213 C38.9644737,106.523064 39.0947,106.480872 39.2273793,106.486515 L39.2273793,106.513492 Z" id="Shape" fill="#4788D8"></path>
                    <path d="M37.6087971,107.500842 L33.6224918,107.144749 C33.3203092,107.116099 33.0393263,107.300926 32.9499053,107.587168 L31.8562687,111.099545 C31.7995304,111.280421 31.8280744,111.476874 31.9340303,111.634736 C32.0399861,111.792599 32.2121631,111.895198 32.403087,111.914243 C33.9724555,112.027546 35.0278148,112.032941 37.1549379,112.221779 C39.6593657,112.448384 38.9977156,112.685779 41.9286616,112.987919 C43.7058211,113.171361 44.2088939,111.207452 43.4597528,111.045591 C40.1788431,110.338799 39.8234112,109.329868 38.7133701,108.067355 C38.4172208,107.765278 38.0295282,107.566439 37.6087971,107.500842 Z" id="Path" fill="#263238"></path>
                    <path d="M48.4357993,26.3816634 C49.6114586,32.6996254 48.4357993,41.7152654 45.9040306,54.437515 L24.6546718,52.3818844 C26.2131039,45.0388047 28.9800045,39.4330298 28.1324361,24.3260327 C28.0798903,23.3913012 28.4191477,22.4763663 29.0706497,21.795788 C29.7221517,21.1152097 30.6285879,20.728856 31.5773913,20.7273302 C31.5773913,20.7273302 39.0852065,21.4125404 44.1049984,22.2110531 C46.3018495,22.5486111 48.0404516,24.2229045 48.4357993,26.3816634 Z" id="Path" fill="#4788D8"></path>
                    <path d="M48.5342266,52.0473723 C49.4255404,52.9430014 50.4152815,53.6659791 51.1152089,53.5742581 C51.4853594,53.507808 51.7725908,53.2179118 51.8315409,52.8512804 C51.9182952,52.5443337 51.8706938,52.2155616 51.7003045,51.9448605 C50.8582043,50.4719283 47.0140717,49.4036478 46.8500263,49.360485 C46.7561541,49.3351209 46.6561468,49.3694427 46.5984898,49.4468107 C46.5409921,49.5258042 46.5409921,49.6321896 46.5984898,49.7111831 C47.1725089,50.5448166 47.8202894,51.3266057 48.5342266,52.0473723 L48.5342266,52.0473723 Z M51.0113135,51.815372 C51.1176853,51.9232275 51.2112485,52.0426967 51.2901908,52.1714655 C51.3926733,52.3320246 51.4242755,52.5269075 51.3776817,52.7110011 C51.2901908,53.0293271 51.1425499,53.0832807 51.0441226,53.0994667 C50.2621724,53.2235599 48.485013,51.4808599 47.3749718,49.9917416 C48.3592447,50.3262537 50.1965542,51.0006732 51.0113135,51.815372 Z" id="Shape" fill="#4788D8"></path>
                    <path d="M46.6203626,49.7489506 C46.6445709,49.7711878 46.6722707,49.7894084 46.7023853,49.8029042 C47.9272583,50.2723001 51.1261453,50.4503469 51.7932636,49.5439271 C51.9518409,49.3281128 52.0557364,48.9720193 51.6510909,48.4648559 C51.3518858,48.1003806 50.9160313,47.8707613 50.4426224,47.8282038 C48.8021676,47.6609478 46.7297262,49.3281128 46.6148944,49.3982525 C46.5533032,49.4525419 46.5226464,49.5332048 46.5328717,49.6140667 C46.5475258,49.6667294 46.578034,49.7137636 46.6203626,49.7489506 Z M51.1862953,48.6698794 L51.2792544,48.7723912 C51.5471954,49.1015079 51.4487681,49.2363918 51.415959,49.2795546 C51.0113135,49.8190902 48.6818675,49.8622531 47.2984173,49.5115549 C47.9436628,49.058345 49.3271131,48.2004834 50.398877,48.3083905 C50.6955629,48.3280131 50.9751309,48.4525263 51.1862953,48.6590887 L51.1862953,48.6698794 Z" id="Shape" fill="#4788D8"></path>
                    <path d="M48.8295085,29.7807377 L44.1159348,27.0560829 C45.3517993,30.07459 46.9079615,32.9555687 48.7584221,35.6508851 C48.9031609,33.6974197 48.9269005,31.7370577 48.8295085,29.7807377 L48.8295085,29.7807377 Z" id="Path" fill="#000000" opacity="0.2"></path>
                    <path d="M47.2984173,24.7522658 C47.5772946,25.0328244 47.9764719,25.3997086 48.337372,25.7288253 C48.6982721,26.057942 49.0810449,26.3924541 49.4692859,26.7161755 C50.251236,27.3582228 51.027718,28.0056656 51.8479455,28.5991547 C53.4522671,29.8126994 55.1467017,30.9056355 56.916951,31.8687405 C57.3544057,32.1223223 57.8082648,32.3327411 58.2566558,32.5593461 L58.5738105,32.7158114 C58.6066196,32.7158114 58.6175559,32.7535789 58.6558332,32.7643696 C58.7509927,32.8072033 58.8525598,32.8345345 58.9565833,32.8453 C59.7319393,32.9030086 60.5108968,32.7982018 61.2422837,32.5377647 C63.1429023,31.897905 64.9745797,31.0737841 66.7104666,30.0774823 L66.7870212,30.0397148 C67.1474592,29.7553975 67.6342466,29.6824078 68.0640152,29.8482404 C68.4937838,30.0140729 68.8012416,30.3935337 68.8705722,30.8436836 C68.9399028,31.2938334 68.7605732,31.7462839 68.4001352,32.0306012 C66.8048358,33.7429462 64.9215796,35.1703455 62.833525,36.2497697 C61.5985126,36.9067507 60.2273915,37.2758803 58.8253469,37.3288409 C58.3856362,37.3330259 57.946964,37.2859398 57.5184511,37.1885616 C57.2847016,37.1343806 57.0545937,37.0659073 56.8294601,36.9835381 L56.40841,36.8162821 C55.8615917,36.5950725 55.3147734,36.3900489 54.8062324,36.1418625 C52.7104708,35.186422 50.7080078,34.0432068 48.8240403,32.7266021 C47.888981,32.0737641 46.9757945,31.3831585 46.0899488,30.6439947 C45.6524942,30.2717151 45.2205077,29.8940402 44.7994577,29.5055746 C44.3784076,29.1171089 43.9792302,28.7340386 43.5144347,28.2376659 C42.5208566,27.2245431 42.5477867,25.6085179 43.5745847,24.6281727 C44.6013827,23.6478274 46.239221,23.6743988 47.2327991,24.6875216 L47.2984173,24.7522658 Z" id="Path" fill="#B55B52"></path>
                    <path d="M69.1219353,26.7269662 L68.1759397,27.2665018 C67.137065,27.8553666 66.271927,28.7015435 65.6660437,29.7213888 L64.7801981,31.2051117 L66.1964575,33.3632542 C68.8594625,33.4981381 70.3741492,31.1727396 70.3741492,31.1727396 L71.5060631,30.2932965 C72.0322198,29.8894099 72.1559439,29.1546043 71.7904086,28.6045501 L70.8389448,27.1531993 C70.472931,26.5826927 69.7179961,26.3952865 69.1219353,26.7269662 Z" id="Path" fill="#B55B52"></path>
                    <path d="M31.2766413,9.5589431 C32.7967961,13.5622973 33.4639145,15.9848122 36.2964332,17.4253723 C40.5506795,19.5835147 45.3134669,16.1250915 45.0947395,11.7440623 C44.897885,7.80005701 42.448139,1.91911887 37.7126926,1.55763001 C32.9772462,1.19614116 29.7564864,5.56098423 31.2766413,9.5589431 Z" id="Path" fill="#B55B52"></path>
                    <path d="M41.4474615,9.80712948 C41.4474615,9.80712948 43.1863437,13.5838787 41.1740524,15.7150444 C39.1617611,17.84621 33.9123055,18.0026754 32.6382188,16.9236042 C31.3641322,15.8445329 26.3334039,11.587597 28.2636725,5.84693811 C30.1939411,0.106279227 36.290965,1.05046654 36.290965,1.05046654 C36.1323877,-0.686838118 40.8022159,-0.0771628802 42.4317345,1.5468393 C44.061253,3.17084149 40.386634,4.58442478 40.386634,4.58442478 C40.386634,4.58442478 44.0503166,6.30014802 41.4474615,9.80712948 Z" id="Path" fill="#263238"></path>
                    <path d="M26.5302585,2.23204953 C25.0046355,-0.0609768119 22.3853759,-0.622093845 19.4216207,0.710559109 C16.17352,2.15651454 15.1290971,2.07018884 12.2583011,1.25009472 C16.0422837,6.41884585 20.3512118,8.43670903 23.8891262,7.96731305 C25.1914043,7.82609395 26.321859,7.01814532 26.8638212,5.84126518 C27.4057834,4.66438503 27.2790217,3.29279747 26.5302585,2.23204953 Z" id="Path" fill="#263238"></path>
                    <path d="M26.7216449,4.16358701 C25.5569219,2.58814303 25.2616401,2.00544457 27.7551315,1.74107212 C30.2486229,1.47669967 30.1283229,2.28060773 29.4502682,3.86144706 C28.7722135,5.4422864 27.4325087,5.1347511 26.7216449,4.16358701 Z" id="Path" fill="#4788D8"></path>
                    <path d="M28.0886906,7.96191769 C27.6457678,9.81792019 27.383295,10.4329908 25.3545992,9.299966 C23.3259033,8.16694122 24.0695762,7.6166149 25.857672,6.7317765 C27.6457678,5.84693811 28.3620998,6.8181022 28.0886906,7.96191769 Z" id="Path" fill="#4788D8"></path>
                    <path d="M27.2192496,7.05549787 C26.125613,7.02312573 26.4810449,5.89010095 26.5958767,5.43689104 C26.7107085,4.98368113 26.7599222,4.30926162 27.8699633,4.35781983 C28.9800045,4.40637803 29.116709,4.92433221 29.0948363,5.37754213 C29.0729636,5.83075204 29.1331136,7.10945143 27.2192496,7.05549787 Z" id="Path" fill="#4788D8"></path>
                    <path d="M38.8336701,9.26759387 C39.309545,10.1890375 40.0776398,10.9317453 41.0209433,11.3825735 C42.2786253,11.9544812 42.9293391,10.9995032 42.5903118,9.79633876 C42.2895617,8.71726755 41.2670115,7.09866072 39.9929249,7.0393118 C38.7188382,6.97996288 38.2649791,8.13996444 38.8336701,9.26759387 Z" id="Path" fill="#B55B52"></path>
                    <path d="M25.6662856,48.270623 C17.5843112,53.9897005 18.7216933,68.3359523 10.732678,74.0118669 C1.8742217,80.3028521 12.6684148,83.4267633 23.3641806,85.0345794 C37.9259517,87.225094 44.2745121,92.4639848 45.6196851,90.1925398 C49.1630676,84.1929039 48.3154993,55.5975166 46.871899,49.3658803 C37.2314925,45.0711769 25.6662856,48.270623 25.6662856,48.270623 Z" id="Path" fill="#4788D8"></path>
                    <path d="M47.6811901,56.0075637 C43.6073938,56.2125872 31.9656323,54.7234689 23.8617852,49.8406717 C22.5389497,51.2799068 21.4589075,52.9193806 20.6628982,54.6964921 C30.7954412,60.269895 44.3127894,60.8471981 47.9545992,60.8903609 C47.8835128,59.1476609 47.7905537,57.5020773 47.6811901,56.0075637 Z" id="Path" fill="#FFFFFF"></path>
                    <path d="M48.1131765,67.3270207 C43.7386302,67.6453468 27.3996996,65.7893443 18.4537523,60.3130578 C17.7592931,62.3255256 17.0867066,64.3487842 16.2664792,66.2479495 C28.3292907,71.7188406 44.2088939,72.1828412 48.0694311,72.2313994 C48.1186447,70.6127926 48.1241129,68.9618136 48.1131765,67.3270207 Z" id="Path" fill="#FFFFFF"></path>
                    <path d="M10.732678,74.0172623 C10.2692031,74.3419138 9.82551188,74.6932204 9.40390958,75.0693567 C21.193312,81.0042484 42.5575027,83.9393221 47.2109263,84.5166252 C47.4624627,82.8980184 47.6538492,81.0150391 47.7905537,79.0187574 C42.6067163,78.8568967 26.0435902,75.9002416 14.2487197,70.2351177 C13.3311041,71.7049561 12.1377664,72.9886086 10.732678,74.0172623 Z" id="Path" fill="#FFFFFF"></path>
                </g>
            </g>
        </g>
    </g>
</svg>